<svg width="16" height="16" viewBox="0 0 16 16" fill="none" xmlns="http://www.w3.org/2000/svg">
<path d="M8 0C3.584 0 0 3.584 0 8C0 12.416 3.584 16 8 16C12.416 16 16 12.416 16 8C16 3.584 12.424 0 8 0ZM12.344 11.544C11.36 12.96 9.744 13.8 8.024 13.8C6.304 13.8 4.688 12.96 3.704 11.544C3.512 11.272 3.584 10.896 3.856 10.712C4.128 10.52 4.504 10.592 4.688 10.864C5.448 11.952 6.696 12.608 8.024 12.608C9.352 12.608 10.6 11.96 11.36 10.864C11.552 10.592 11.92 10.528 12.192 10.712C12.472 10.896 12.536 11.272 12.344 11.544Z" fill="#2995E2"/>
</svg>
