<svg width="232" height="85" viewBox="0 0 232 85" fill="none" xmlns="http://www.w3.org/2000/svg">
<g clip-path="url(#clip0_3_800)">
<path d="M129.862 81.434C152.349 81.434 170.579 63.2043 170.579 40.717C170.579 18.2296 152.349 0 129.862 0C107.375 0 89.1449 18.2296 89.1449 40.717C89.1449 63.2043 107.375 81.434 129.862 81.434Z" fill="#F5EFD9"/>
<path d="M231.905 40.3014H146.78C146.78 32.7532 154.535 26.6349 164.098 26.6349C166.181 26.6309 168.253 26.93 170.25 27.5227C173.422 22.8674 178.29 19.9014 183.75 19.9014C191.946 19.9014 198.813 26.6083 200.608 35.6229C203.757 33.405 208.842 31.6526 214.574 31.6526C224.151 31.6526 231.905 36.5273 231.905 40.3014Z" fill="#EFDFC0"/>
<path d="M88.2506 84.5864H0C0 73.999 11.718 65.4167 26.1692 65.4167C35.5995 65.4167 43.8659 69.0744 48.4747 74.551C52.8729 73.1507 57.4622 72.4428 62.078 72.4528C76.5293 72.4561 88.2506 79.296 88.2506 84.5864Z" fill="#EFDFC0"/>
</g>
<defs>
<clipPath id="clip0_3_800">
<rect width="232" height="85" fill="white"/>
</clipPath>
</defs>
</svg>
