<svg width="160" height="97" viewBox="0 0 160 97" fill="none" xmlns="http://www.w3.org/2000/svg">
<g clip-path="url(#clip0_3_804)">
<path d="M141.712 0.880554H123.161V13.7803H141.712V0.880554Z" fill="#F5EFD9"/>
<path d="M123.247 94.5048V0" stroke="#56303C" stroke-width="1.79893" stroke-miterlimit="10"/>
<path d="M135.852 5.78154V8.61306H133.968V10.4972H131.137V8.61306H129.252V5.78154H131.137V3.89734H133.968V5.78154H135.852Z" fill="#FFAFB1"/>
<path d="M128.397 95.1413H72.3756V35.5884H112.338L128.397 95.1413Z" fill="#EFDFC0"/>
<path d="M88.4335 95.1418H0L13.383 35.5889L42.8795 22.2059L72.3759 35.5889L88.4335 95.1418Z" fill="#F5EFD9"/>
<path d="M72.3758 35.5889L42.8794 22.2059H82.8418L112.338 35.5889H72.3758Z" fill="#EFDFC0"/>
<path d="M42.8794 22.2059L72.3758 35.5889H112.338" stroke="#F5EFD9" stroke-width="1.43981" stroke-miterlimit="10"/>
<path d="M59.2053 22.2059L88.7018 35.5889" stroke="#F5EFD9" stroke-width="1.43981" stroke-miterlimit="10"/>
<path d="M72.8558 22.2059L102.352 35.5889" stroke="#F5EFD9" stroke-width="1.43981" stroke-miterlimit="10"/>
<path d="M60.7917 54.127H23.3607V95.1397H60.7917V54.127Z" fill="#B4702F"/>
<path d="M23.4496 47.2529H60.2613V54.1267H23.4496C22.5742 54.1267 21.7346 53.7789 21.1156 53.1599C20.4966 52.5409 20.1488 51.7013 20.1488 50.8259V50.552C20.1493 49.6768 20.4972 48.8377 21.1162 48.219C21.7352 47.6004 22.5745 47.2529 23.4496 47.2529Z" fill="white"/>
<path d="M60.2298 54.1267C61.9805 54.1267 63.3998 52.5879 63.3998 50.6898C63.3998 48.7916 61.9805 47.2529 60.2298 47.2529C58.4791 47.2529 57.0598 48.7916 57.0598 50.6898C57.0598 52.5879 58.4791 54.1267 60.2298 54.1267Z" fill="#A0D6FF"/>
<path d="M27.5127 54.127H60.7915V75.3435L27.5127 54.127Z" fill="#56303C"/>
<path d="M54.6257 54.127V61.5818" stroke="#F5EFD9" stroke-width="1.26025" stroke-miterlimit="10"/>
<path d="M27.4707 54.127V58.3281" stroke="#F5EFD9" stroke-width="1.26025" stroke-miterlimit="10"/>
<path d="M98.6729 51.5575H138.955L160 95.1872H119.72L98.6729 51.5575Z" fill="#F5EFD9"/>
<path d="M76.9919 95.1872H119.72L98.6725 51.5575H98.4998L76.9919 95.1872Z" fill="#A0D6FF"/>
<path d="M98.7667 51.5575L76.7234 95.1872" stroke="white" stroke-width="1.43981" stroke-miterlimit="10"/>
<path d="M91.947 95.1875H107.075C103.011 93.0871 99.5271 90.019 96.9296 86.2539C94.3322 82.4887 92.7013 78.1422 92.1808 73.5977L91.947 71.5565V95.1875Z" fill="#56303C"/>
<path d="M106.618 95.187C98.3672 90.9214 92.6605 81.2789 91.6138 72.0515" stroke="white" stroke-width="1.79893" stroke-miterlimit="10" stroke-linecap="round"/>
<path d="M106.618 95.1872V72.5803" stroke="#56303C" stroke-width="1.79893" stroke-miterlimit="10"/>
</g>
<defs>
<clipPath id="clip0_3_804">
<rect width="160" height="97" fill="white"/>
</clipPath>
</defs>
</svg>
