<svg width="678" height="410" viewBox="0 0 678 410" fill="none" xmlns="http://www.w3.org/2000/svg">
<g clip-path="url(#clip0_3_453)">
<path d="M677.954 359.729V410L1.79251 386.207C-0.718234 385.968 -0.534898 382.248 1.98828 382.254L507.4 383.734C523.012 383.78 528.931 363.352 515.719 355.04L464.873 323.047C459.028 320.496 460.047 312.87 466.324 311.758L559.504 296.532H573.978L497.767 314.719C495.452 315.163 495.434 318.473 497.746 318.939L677.954 359.729Z" fill="#F5EFD9"/>
<path d="M645.381 129.332H612.34V152.308H645.381V129.332Z" fill="#F5EFD9"/>
<path d="M612.493 296.087V127.764" stroke="#56303C" stroke-width="1.79893" stroke-miterlimit="10"/>
<path d="M634.944 138.062V143.105H631.588V146.461H626.544V143.105H623.188V138.062H626.544V134.706H631.588V138.062H634.944Z" fill="#FFAFB1"/>
<path d="M621.666 297.22H521.885V191.151H593.063L621.666 297.22Z" fill="#EFDFC0"/>
<path d="M550.486 297.221H392.977L416.814 191.152L469.35 167.315L521.886 191.152L550.486 297.221Z" fill="#F5EFD9"/>
<path d="M521.886 191.152L469.35 167.315H540.527L593.063 191.152H521.886Z" fill="#EFDFC0"/>
<path d="M469.35 167.315L521.886 191.152H593.063" stroke="#F5EFD9" stroke-width="1.43981" stroke-miterlimit="10"/>
<path d="M498.428 167.315L550.964 191.152" stroke="#F5EFD9" stroke-width="1.43981" stroke-miterlimit="10"/>
<path d="M522.741 167.315L575.277 191.152" stroke="#F5EFD9" stroke-width="1.43981" stroke-miterlimit="10"/>
<path d="M501.253 224.17H434.585V297.217H501.253V224.17Z" fill="#B4702F"/>
<path d="M434.744 211.926H500.309V224.169H434.744C433.184 224.169 431.689 223.55 430.586 222.447C429.484 221.345 428.864 219.849 428.864 218.29V217.802C428.865 216.243 429.485 214.749 430.587 213.647C431.69 212.545 433.185 211.926 434.744 211.926Z" fill="white"/>
<path d="M500.252 224.169C503.371 224.169 505.898 221.428 505.898 218.048C505.898 214.667 503.371 211.926 500.252 211.926C497.134 211.926 494.606 214.667 494.606 218.048C494.606 221.428 497.134 224.169 500.252 224.169Z" fill="#A0D6FF"/>
<path d="M441.98 224.17H501.253V261.958L441.98 224.17Z" fill="#56303C"/>
<path d="M490.271 224.17V237.447" stroke="#F5EFD9" stroke-width="1.26025" stroke-miterlimit="10"/>
<path d="M441.905 224.17V231.652" stroke="#F5EFD9" stroke-width="1.26025" stroke-miterlimit="10"/>
<path d="M568.723 219.593H640.469L677.953 297.302H606.211L568.723 219.593Z" fill="#F5EFD9"/>
<path d="M530.108 297.302H606.21L568.723 219.593H568.415L530.108 297.302Z" fill="#A0D6FF"/>
<path d="M568.891 219.593L529.629 297.302" stroke="white" stroke-width="1.43981" stroke-miterlimit="10"/>
<path d="M556.744 297.302H583.688C576.451 293.561 570.245 288.097 565.619 281.391C560.993 274.685 558.088 266.943 557.161 258.849L556.744 255.213V297.302Z" fill="#56303C"/>
<path d="M582.874 297.302C568.179 289.704 558.015 272.53 556.151 256.095" stroke="white" stroke-width="1.79893" stroke-miterlimit="10" stroke-linecap="round"/>
<path d="M582.874 297.302V257.037" stroke="#56303C" stroke-width="1.79893" stroke-miterlimit="10"/>
<path d="M327.269 76.0992C348.284 76.0992 365.319 59.0638 365.319 38.0496C365.319 17.0354 348.284 0 327.269 0C306.255 0 289.22 17.0354 289.22 38.0496C289.22 59.0638 306.255 76.0992 327.269 76.0992Z" fill="#F5EFD9"/>
<path d="M422.628 37.6613H343.08C343.08 30.6076 350.326 24.8901 359.263 24.8901C361.209 24.8863 363.146 25.1658 365.011 25.7197C367.976 21.3694 372.525 18.5977 377.627 18.5977C385.287 18.5977 391.704 24.8652 393.382 33.2892C396.324 31.2166 401.075 29.5791 406.432 29.5791C415.382 29.5791 422.628 34.1344 422.628 37.6613Z" fill="#EFDFC0"/>
<path d="M288.384 79.0452H205.915C205.915 69.1513 216.865 61.1312 230.37 61.1312C239.182 61.1312 246.907 64.5493 251.214 69.6671C255.324 68.3586 259.613 67.6971 263.926 67.7064C277.431 67.7095 288.384 74.1013 288.384 79.0452Z" fill="#EFDFC0"/>
<path d="M66.6024 375.616C66.6019 378.318 65.7096 380.945 64.064 383.088C62.4184 385.231 60.1114 386.772 57.501 387.47" stroke="#D9AF00" stroke-width="1.79893" stroke-miterlimit="10" stroke-linecap="round"/>
<path d="M305.394 233.084L268.559 348.451C267.854 350.661 266.464 352.59 264.591 353.958C262.717 355.327 260.457 356.064 258.137 356.064H15.384" stroke="#56303C" stroke-width="1.79893" stroke-miterlimit="10" stroke-linecap="round"/>
<path d="M287.65 233.563H320.793" stroke="#D9AF00" stroke-width="3.59786" stroke-linecap="round" stroke-linejoin="round"/>
<path d="M50.739 385.703C57.5126 385.703 63.0037 380.212 63.0037 373.438C63.0037 366.664 57.5126 361.173 50.739 361.173C43.9654 361.173 38.4742 366.664 38.4742 373.438C38.4742 380.212 43.9654 385.703 50.739 385.703Z" fill="#A0D6FF"/>
<path d="M50.7393 381.846C55.3832 381.846 59.1478 378.081 59.1478 373.437C59.1478 368.793 55.3832 365.029 50.7393 365.029C46.0954 365.029 42.3308 368.793 42.3308 373.437C42.3308 378.081 46.0954 381.846 50.7393 381.846Z" stroke="white" stroke-width="1.79893" stroke-miterlimit="10"/>
<path d="M227.598 385.703C234.371 385.703 239.863 380.212 239.863 373.438C239.863 366.664 234.371 361.173 227.598 361.173C220.824 361.173 215.333 366.664 215.333 373.438C215.333 380.212 220.824 385.703 227.598 385.703Z" fill="#A0D6FF"/>
<path d="M227.597 381.846C232.241 381.846 236.006 378.081 236.006 373.437C236.006 368.793 232.241 365.029 227.597 365.029C222.954 365.029 219.189 368.793 219.189 373.437C219.189 378.081 222.954 381.846 227.597 381.846Z" stroke="#56303C" stroke-width="1.79893" stroke-miterlimit="10" stroke-linecap="round"/>
<path d="M158.006 147.68H38.485V351.234H158.006V147.68Z" fill="#EFDFC0"/>
<path d="M84.446 351.361V148.09" stroke="#F5EFD9" stroke-width="1.08069" stroke-miterlimit="10"/>
<path d="M75.5121 351.361V148.09" stroke="#F5EFD9" stroke-width="1.08069" stroke-miterlimit="10"/>
<path d="M93.6499 351.361V148.09" stroke="#F5EFD9" stroke-width="1.08069" stroke-miterlimit="10"/>
<path d="M102.854 351.361V148.09" stroke="#F5EFD9" stroke-width="1.08069" stroke-miterlimit="10"/>
<path d="M112.058 351.361V148.09" stroke="#F5EFD9" stroke-width="1.08069" stroke-miterlimit="10"/>
<path d="M121.262 351.361V148.09" stroke="#F5EFD9" stroke-width="1.08069" stroke-miterlimit="10"/>
<path d="M130.466 351.361V148.09" stroke="#F5EFD9" stroke-width="1.08069" stroke-miterlimit="10"/>
<path d="M139.67 351.361V148.09" stroke="#F5EFD9" stroke-width="1.08069" stroke-miterlimit="10"/>
<path d="M48.0244 351.361V148.09" stroke="#F5EFD9" stroke-width="1.08069" stroke-miterlimit="10"/>
<path d="M57.2318 351.361V148.09" stroke="#F5EFD9" stroke-width="1.08069" stroke-miterlimit="10"/>
<path d="M66.4358 351.361V148.09" stroke="#F5EFD9" stroke-width="1.08069" stroke-miterlimit="10"/>
<path d="M157.671 227.971H38.6747" stroke="#F5EFD9" stroke-width="1.08069" stroke-miterlimit="10"/>
<path d="M157.671 218.763H38.6747" stroke="#F5EFD9" stroke-width="1.08069" stroke-miterlimit="10"/>
<path d="M157.671 209.559H38.6747" stroke="#F5EFD9" stroke-width="1.08069" stroke-miterlimit="10"/>
<path d="M157.671 200.355H38.6747" stroke="#F5EFD9" stroke-width="1.08069" stroke-miterlimit="10"/>
<path d="M157.671 191.152H38.6747" stroke="#F5EFD9" stroke-width="1.08069" stroke-miterlimit="10"/>
<path d="M157.671 181.948H38.6747" stroke="#F5EFD9" stroke-width="1.08069" stroke-miterlimit="10"/>
<path d="M157.671 172.743H38.6747" stroke="#F5EFD9" stroke-width="1.08069" stroke-miterlimit="10"/>
<path d="M157.671 163.54H39.1937" stroke="#F5EFD9" stroke-width="1.08069" stroke-miterlimit="10"/>
<path d="M157.671 154.332H38.6747" stroke="#F5EFD9" stroke-width="1.08069" stroke-miterlimit="10"/>
<path d="M157.671 301.658H38.6747" stroke="#F5EFD9" stroke-width="1.08069" stroke-miterlimit="10"/>
<path d="M157.671 310.959H38.6747" stroke="#F5EFD9" stroke-width="1.08069" stroke-miterlimit="10"/>
<path d="M157.671 292.455H38.6747" stroke="#F5EFD9" stroke-width="1.08069" stroke-miterlimit="10"/>
<path d="M157.671 283.25H38.6747" stroke="#F5EFD9" stroke-width="1.08069" stroke-miterlimit="10"/>
<path d="M157.671 337.412L38.6747 337.891" stroke="#F5EFD9" stroke-width="1.08069" stroke-miterlimit="10"/>
<path d="M157.671 347.192H38.6747" stroke="#F5EFD9" stroke-width="1.08069" stroke-miterlimit="10"/>
<path d="M157.671 328.687H38.6747" stroke="#F5EFD9" stroke-width="1.08069" stroke-miterlimit="10"/>
<path d="M157.671 319.48H38.6747" stroke="#F5EFD9" stroke-width="1.08069" stroke-miterlimit="10"/>
<path d="M157.671 274.047H38.6747" stroke="#F5EFD9" stroke-width="1.08069" stroke-miterlimit="10"/>
<path d="M157.671 264.842H38.6747" stroke="#F5EFD9" stroke-width="1.08069" stroke-miterlimit="10"/>
<path d="M157.671 255.637H38.6747" stroke="#F5EFD9" stroke-width="1.08069" stroke-miterlimit="10"/>
<path d="M157.671 246.434H38.6747" stroke="#F5EFD9" stroke-width="1.08069" stroke-miterlimit="10"/>
<path d="M157.671 237.227H39.1937" stroke="#F5EFD9" stroke-width="1.08069" stroke-miterlimit="10"/>
<path d="M149.293 351.361V148.09" stroke="#F5EFD9" stroke-width="1.08069" stroke-miterlimit="10"/>
<path d="M126.498 196.537C128.1 196.537 129.4 193.34 129.4 189.397C129.4 185.453 128.1 182.256 126.498 182.256C124.895 182.256 123.595 185.453 123.595 189.397C123.595 193.34 124.895 196.537 126.498 196.537Z" fill="#D9AF00"/>
<path d="M134.907 203.335C137.018 200.004 137.632 196.608 136.278 195.75C134.924 194.892 132.115 196.897 130.004 200.228C127.893 203.56 127.28 206.956 128.634 207.814C129.988 208.672 132.796 206.667 134.907 203.335Z" fill="#D9AF00"/>
<path d="M124.361 207.82C125.715 206.962 125.101 203.566 122.99 200.234C120.879 196.903 118.071 194.898 116.717 195.756C115.363 196.614 115.976 200.01 118.087 203.341C120.198 206.672 123.007 208.677 124.361 207.82Z" fill="#D9AF00"/>
<path d="M134.909 219.068C137.02 215.737 137.634 212.341 136.28 211.483C134.926 210.625 132.117 212.63 130.006 215.962C127.895 219.293 127.282 222.689 128.636 223.547C129.99 224.405 132.799 222.4 134.909 219.068Z" fill="#D9AF00"/>
<path d="M124.36 223.551C125.714 222.693 125.1 219.297 122.989 215.966C120.879 212.635 118.07 210.63 116.716 211.488C115.362 212.346 115.976 215.742 118.086 219.073C120.197 222.404 123.006 224.409 124.36 223.551Z" fill="#D9AF00"/>
<path d="M126.497 193.647V235.944" stroke="#D9AF00" stroke-width="1.43981" stroke-miterlimit="10" stroke-linecap="round"/>
<path d="M126.497 179.58V177.47" stroke="#D9AF00" stroke-width="1.43981" stroke-miterlimit="10" stroke-linecap="round"/>
<path d="M70.3788 207.062C71.9817 207.062 73.2811 203.865 73.2811 199.921C73.2811 195.977 71.9817 192.78 70.3788 192.78C68.776 192.78 67.4766 195.977 67.4766 199.921C67.4766 203.865 68.776 207.062 70.3788 207.062Z" fill="#D9AF00"/>
<path d="M78.1192 214.14C80.2488 210.827 80.8838 207.44 79.5373 206.575C78.1909 205.709 75.373 207.693 73.2434 211.006C71.1138 214.318 70.4789 217.705 71.8254 218.571C73.1718 219.437 75.9896 217.453 78.1192 214.14Z" fill="#D9AF00"/>
<path d="M69.0169 214.303C70.3634 213.438 69.7285 210.051 67.5989 206.738C65.4693 203.425 62.6514 201.441 61.305 202.307C59.9586 203.173 60.5934 206.56 62.723 209.872C64.8526 213.185 67.6705 215.169 69.0169 214.303Z" fill="#D9AF00"/>
<path d="M78.7914 226.258C80.9022 222.927 81.5157 219.531 80.1618 218.673C78.8078 217.815 75.9991 219.82 73.8883 223.151C71.7774 226.483 71.1639 229.879 72.5178 230.737C73.8718 231.595 76.6805 229.59 78.7914 226.258Z" fill="#D9AF00"/>
<path d="M68.2419 230.741C69.5958 229.883 68.9823 226.487 66.8715 223.156C64.7606 219.825 61.9519 217.82 60.5979 218.678C59.244 219.536 59.8575 222.932 61.9683 226.263C64.0792 229.594 66.8879 231.599 68.2419 230.741Z" fill="#D9AF00"/>
<path d="M70.3788 204.174V235.984" stroke="#D9AF00" stroke-width="1.43981" stroke-miterlimit="10" stroke-linecap="round"/>
<path d="M70.3788 190.107V187.997" stroke="#D9AF00" stroke-width="1.43981" stroke-miterlimit="10" stroke-linecap="round"/>
<path d="M100.334 183.811C101.937 183.811 103.236 180.614 103.236 176.67C103.236 172.727 101.937 169.53 100.334 169.53C98.7311 169.53 97.4318 172.727 97.4318 176.67C97.4318 180.614 98.7311 183.811 100.334 183.811Z" fill="#D9AF00"/>
<path d="M108.744 188.704C110.855 185.373 111.469 181.977 110.115 181.119C108.761 180.261 105.952 182.266 103.841 185.598C101.731 188.929 101.117 192.325 102.471 193.183C103.825 194.041 106.634 192.036 108.744 188.704Z" fill="#D9AF00"/>
<path d="M108.742 203.005C110.853 199.673 111.467 196.277 110.113 195.419C108.759 194.562 105.95 196.567 103.839 199.898C101.728 203.229 101.115 206.625 102.469 207.483C103.823 208.341 106.631 206.336 108.742 203.005Z" fill="#D9AF00"/>
<path d="M98.1957 193.192C99.5497 192.334 98.9361 188.938 96.8253 185.606C94.7145 182.275 91.9057 180.27 90.5518 181.128C89.1978 181.986 89.8114 185.382 91.9222 188.713C94.033 192.044 96.8418 194.049 98.1957 193.192Z" fill="#D9AF00"/>
<path d="M98.1937 207.492C99.5476 206.634 98.9341 203.238 96.8232 199.907C94.7124 196.575 91.9037 194.57 90.5497 195.428C89.1958 196.286 89.8093 199.682 91.9201 203.013C94.0309 206.345 96.8397 208.35 98.1937 207.492Z" fill="#D9AF00"/>
<path d="M108.744 218.738C110.855 215.406 111.469 212.01 110.115 211.152C108.761 210.295 105.952 212.3 103.841 215.631C101.731 218.962 101.117 222.358 102.471 223.216C103.825 224.074 106.634 222.069 108.744 218.738Z" fill="#D9AF00"/>
<path d="M98.1965 223.224C99.5504 222.366 98.9369 218.97 96.8261 215.638C94.7152 212.307 91.9065 210.302 90.5525 211.16C89.1986 212.018 89.8121 215.414 91.9229 218.745C94.0338 222.076 96.8425 224.081 98.1965 223.224Z" fill="#D9AF00"/>
<path d="M100.334 180.925V235.614" stroke="#D9AF00" stroke-width="1.43981" stroke-miterlimit="10" stroke-linecap="round"/>
<path d="M117.707 147.639H80.2448V164.043H117.707V147.639Z" fill="white"/>
<path d="M117.707 334.832H80.2448V351.236H117.707V334.832Z" fill="white"/>
<path d="M184.702 147.682H158.006V351.236H184.702V147.682Z" fill="#D9AF00"/>
<path d="M132.013 237.365H64.9566C61.7491 237.365 59.1489 239.965 59.1489 243.173V260.897C59.1489 264.104 61.7491 266.705 64.9566 266.705H132.013C135.221 266.705 137.821 264.104 137.821 260.897V243.173C137.821 239.965 135.221 237.365 132.013 237.365Z" fill="white"/>
<path d="M127.11 246.705H70.1827V257.469H127.11V246.705Z" fill="#A0D6FF"/>
<path d="M85.2196 252.926L86.7733 251.372C87.1502 250.996 87.6609 250.785 88.1933 250.785C88.7258 250.785 89.2365 250.996 89.6134 251.372L90.9123 252.671C91.1766 252.934 91.5341 253.081 91.9066 253.081C92.2792 253.081 92.6367 252.934 92.901 252.671L94.1968 251.372C94.5737 250.996 95.0844 250.785 95.6168 250.785C96.1493 250.785 96.66 250.996 97.0369 251.372L98.4414 252.777C98.5722 252.907 98.7274 253.011 98.8983 253.082C99.0692 253.153 99.2523 253.189 99.4373 253.189C99.6223 253.189 99.8055 253.153 99.9764 253.082C100.147 253.011 100.303 252.907 100.433 252.777L101.835 251.372C102.212 250.996 102.722 250.785 103.255 250.785C103.787 250.785 104.298 250.996 104.675 251.372L105.974 252.671C106.238 252.934 106.595 253.081 106.968 253.081C107.341 253.081 107.698 252.934 107.962 252.671L109.258 251.372C109.635 250.996 110.146 250.785 110.678 250.785C111.211 250.785 111.721 250.996 112.098 251.372L113.963 253.255" stroke="#B4702F" stroke-width="1.43981" stroke-miterlimit="10"/>
<path d="M184.702 147.682C184.702 153.443 178.726 158.117 171.34 158.117C163.954 158.117 157.994 153.456 157.994 147.682" stroke="white" stroke-width="1.79893" stroke-miterlimit="10"/>
<path d="M38.4856 154.957L95.6237 147.639L38.4856 166.268V154.957Z" fill="#56303C"/>
<path d="M85.2196 156.153L86.7733 154.6C86.9595 154.413 87.1808 154.264 87.4245 154.163C87.6682 154.062 87.9295 154.01 88.1933 154.01C88.4572 154.01 88.7185 154.062 88.9622 154.163C89.2059 154.264 89.4272 154.413 89.6134 154.6L90.9123 155.896C91.0428 156.026 91.1977 156.13 91.3684 156.201C91.539 156.272 91.7219 156.308 91.9066 156.308C92.0914 156.308 92.2743 156.272 92.4449 156.201C92.6155 156.13 92.7705 156.026 92.901 155.896L94.1968 154.6C94.383 154.413 94.6043 154.264 94.848 154.163C95.0917 154.062 95.353 154.01 95.6168 154.01C95.8807 154.01 96.142 154.062 96.3857 154.163C96.6294 154.264 96.8507 154.413 97.0369 154.6L98.4414 156.004C98.5722 156.135 98.7274 156.239 98.8983 156.31C99.0692 156.381 99.2523 156.417 99.4373 156.417C99.6223 156.417 99.8055 156.381 99.9764 156.31C100.147 156.239 100.303 156.135 100.433 156.004L101.835 154.6C102.021 154.413 102.242 154.264 102.486 154.163C102.73 154.062 102.991 154.01 103.255 154.01C103.519 154.01 103.78 154.062 104.024 154.163C104.267 154.264 104.489 154.413 104.675 154.6L105.974 155.896C106.104 156.026 106.259 156.13 106.43 156.201C106.6 156.272 106.783 156.308 106.968 156.308C107.153 156.308 107.336 156.272 107.506 156.201C107.677 156.13 107.832 156.026 107.962 155.896L109.258 154.6C109.444 154.413 109.666 154.264 109.909 154.163C110.153 154.062 110.414 154.01 110.678 154.01C110.942 154.01 111.203 154.062 111.447 154.163C111.691 154.264 111.912 154.413 112.098 154.6L113.963 156.48" stroke="#B4702F" stroke-width="1.43981" stroke-miterlimit="10"/>
<path d="M100.334 167.984V166.902" stroke="#D9AF00" stroke-width="1.43981" stroke-miterlimit="10" stroke-linecap="round"/>
<path d="M258.217 147.172V170.064C258.217 172.097 257.633 174.086 256.535 175.797C255.438 177.508 253.872 178.868 252.024 179.715C251.438 179.984 250.948 180.425 250.619 180.979C250.289 181.533 250.137 182.174 250.18 182.818C250.224 183.461 250.463 184.075 250.864 184.58C251.266 185.084 251.811 185.454 252.428 185.641L252.901 185.784C254.436 186.248 255.781 187.193 256.738 188.48C257.695 189.767 258.214 191.327 258.217 192.931V193.077C258.216 194.676 257.702 196.233 256.751 197.519C255.801 198.805 254.463 199.753 252.935 200.224C252.149 200.466 251.45 200.93 250.922 201.56C250.394 202.19 250.059 202.959 249.957 203.775C249.856 204.591 249.992 205.419 250.349 206.159C250.706 206.899 251.27 207.521 251.971 207.949L252.282 208.138C254.092 209.244 255.588 210.797 256.625 212.647C257.663 214.497 258.208 216.582 258.208 218.703V339.123C258.208 339.197 258.208 339.269 258.208 339.34C258.087 342.65 255.231 345.297 251.723 345.297C250.333 345.318 248.974 344.89 247.847 344.075C246.721 343.261 245.887 342.105 245.471 340.779C245.177 339.727 244.591 338.78 243.78 338.048L243.529 337.827C242.513 336.927 241.204 336.428 239.847 336.421C238.49 336.415 237.176 336.902 236.152 337.793L235.878 338.032C235.067 338.72 234.469 339.626 234.154 340.642C233.287 343.579 229.95 345.766 225.966 345.766C221.982 345.766 218.648 343.591 217.778 340.642C217.464 339.623 216.867 338.713 216.057 338.02L215.668 337.678C214.677 336.809 213.411 336.318 212.093 336.292C210.775 336.266 209.49 336.706 208.465 337.535L207.89 338.001C206.992 338.713 206.333 339.682 206.001 340.779C205.588 342.104 204.759 343.26 203.637 344.076C202.514 344.892 201.159 345.325 199.771 345.31C196.263 345.31 193.407 342.662 193.286 339.353C193.286 339.281 193.286 339.21 193.286 339.135V219.263C193.286 217.185 193.809 215.142 194.806 213.319C195.803 211.497 197.242 209.955 198.991 208.834L200.33 207.977C201.001 207.548 201.538 206.941 201.882 206.223C202.225 205.505 202.361 204.706 202.275 203.915C202.188 203.124 201.882 202.373 201.391 201.746C200.901 201.12 200.245 200.643 199.497 200.37L198.196 199.891C196.756 199.364 195.514 198.407 194.636 197.151C193.758 195.894 193.286 194.398 193.286 192.866C193.286 191.345 193.75 189.86 194.615 188.609C195.481 187.358 196.707 186.401 198.13 185.865L198.888 185.579C199.452 185.366 199.943 184.997 200.305 184.515C200.666 184.033 200.884 183.459 200.932 182.859C200.98 182.258 200.856 181.656 200.575 181.124C200.294 180.591 199.868 180.149 199.345 179.849L198.634 179.445C197.01 178.516 195.66 177.174 194.721 175.556C193.782 173.937 193.287 172.1 193.286 170.229V147.172L197.45 144.518C198.664 143.741 200.076 143.328 201.517 143.328C202.959 143.328 204.37 143.741 205.585 144.518L206.846 145.329C207.646 145.841 208.576 146.112 209.525 146.112C210.474 146.112 211.404 145.841 212.203 145.329L213.446 144.518C214.661 143.741 216.073 143.329 217.516 143.329C218.958 143.329 220.37 143.741 221.585 144.518L223.082 145.475C223.879 145.98 224.802 146.249 225.745 146.249C226.688 146.249 227.612 145.98 228.408 145.475L229.909 144.518C231.124 143.741 232.535 143.328 233.977 143.328C235.418 143.328 236.83 143.741 238.044 144.518L239.306 145.329C240.106 145.841 241.035 146.112 241.984 146.112C242.934 146.112 243.863 145.841 244.663 145.329L245.925 144.518C247.139 143.741 248.55 143.327 249.992 143.327C251.434 143.327 252.845 143.741 254.06 144.518L258.217 147.172Z" fill="#A0D6FF"/>
<path d="M197.431 152.144C198.646 151.367 200.057 150.954 201.499 150.954C202.94 150.954 204.352 151.367 205.566 152.144L206.828 152.955C207.628 153.466 208.557 153.738 209.506 153.738C210.456 153.738 211.385 153.466 212.185 152.955L213.428 152.144C214.643 151.367 216.055 150.954 217.497 150.954C218.939 150.954 220.351 151.367 221.566 152.144L223.064 153.101C223.86 153.606 224.784 153.874 225.727 153.874C226.67 153.874 227.594 153.606 228.39 153.101L229.913 152.144C231.127 151.367 232.538 150.954 233.98 150.954C235.422 150.954 236.833 151.367 238.048 152.144L239.309 152.955C240.109 153.466 241.038 153.738 241.988 153.738C242.937 153.738 243.866 153.466 244.666 152.955L245.928 152.144C247.142 151.367 248.554 150.954 249.995 150.954C251.437 150.954 252.848 151.367 254.063 152.144" stroke="white" stroke-width="1.79893" stroke-miterlimit="10" stroke-linecap="round"/>
<path d="M197.431 159.769C198.647 158.995 200.059 158.585 201.501 158.587C202.943 158.59 204.353 159.006 205.566 159.785L206.828 160.596C207.628 161.107 208.557 161.379 209.506 161.379C210.456 161.379 211.385 161.107 212.185 160.596L213.428 159.785C214.641 159.006 216.053 158.59 217.495 158.588C218.937 158.585 220.35 158.995 221.566 159.769L223.064 160.726C223.86 161.232 224.784 161.5 225.727 161.5C226.67 161.5 227.594 161.232 228.39 160.726L229.891 159.769C231.107 158.995 232.519 158.585 233.961 158.587C235.402 158.59 236.813 159.006 238.026 159.785L239.287 160.596C240.087 161.107 241.017 161.379 241.966 161.379C242.915 161.379 243.845 161.107 244.644 160.596L245.906 159.785C247.12 159.007 248.532 158.594 249.974 158.594C251.415 158.594 252.827 159.007 254.041 159.785" stroke="white" stroke-width="1.79893" stroke-miterlimit="10" stroke-linecap="round"/>
<path d="M262.54 218.738V340.975C262.548 343.479 261.64 345.899 259.987 347.78C258.333 349.66 256.049 350.871 253.565 351.183C251.08 351.495 248.568 350.888 246.5 349.475C244.433 348.062 242.954 345.942 242.342 343.514C241.659 340.832 237.849 340.832 237.165 343.514C236.603 345.724 235.32 347.683 233.519 349.082C231.718 350.481 229.502 351.24 227.222 351.239H224.941C222.661 351.24 220.445 350.481 218.644 349.082C216.843 347.683 215.56 345.724 214.998 343.514L214.976 343.424C214.292 340.742 210.483 340.742 209.799 343.424L209.777 343.514C209.166 345.942 207.687 348.062 205.619 349.475C203.552 350.888 201.039 351.495 198.555 351.183C196.07 350.871 193.786 349.66 192.133 347.78C190.479 345.899 189.571 343.479 189.579 340.975V218.738C189.579 214.633 191.21 210.696 194.113 207.793C197.015 204.891 200.952 203.26 205.057 203.26H247.084C251.185 203.266 255.117 204.899 258.015 207.801C260.912 210.703 262.54 214.637 262.54 218.738Z" stroke="#FFAFB1" stroke-width="1.79893" stroke-miterlimit="10"/>
<path d="M253.196 183.394H198.898C193.738 183.394 189.554 187.577 189.554 192.738V193.916C189.554 199.076 193.738 203.259 198.898 203.259H253.196C258.356 203.259 262.54 199.076 262.54 193.916V192.738C262.54 187.577 258.356 183.394 253.196 183.394Z" stroke="#FFAFB1" stroke-width="1.79893" stroke-miterlimit="10"/>
<path d="M219.388 119.675H232.709C240.621 119.675 248.208 122.817 253.803 128.412C259.397 134.006 262.54 141.594 262.54 149.505V170.881C262.54 174.2 261.221 177.384 258.874 179.731C256.527 182.078 253.343 183.397 250.023 183.397H202.071C198.751 183.397 195.567 182.078 193.22 179.731C190.873 177.384 189.554 174.2 189.554 170.881V149.505C189.554 145.588 190.326 141.708 191.825 138.089C193.325 134.469 195.522 131.181 198.292 128.411C201.063 125.641 204.352 123.443 207.971 121.944C211.591 120.445 215.47 119.674 219.388 119.675Z" stroke="#FFAFB1" stroke-width="1.79893" stroke-miterlimit="10"/>
<path d="M214.217 107.478V122.732C214.217 127.049 219.5 130.544 226.047 130.544C232.594 130.544 237.877 127.049 237.877 122.732V107.478H214.217Z" fill="white" stroke="#FFAFB1" stroke-width="1.79893" stroke-miterlimit="10"/>
<path d="M226.047 115.29C232.58 115.29 237.877 111.793 237.877 107.478C237.877 103.164 232.58 99.6664 226.047 99.6664C219.514 99.6664 214.217 103.164 214.217 107.478C214.217 111.793 219.514 115.29 226.047 115.29Z" fill="white" stroke="#FFAFB1" stroke-width="1.79893" stroke-miterlimit="10"/>
<path d="M237.877 107.478V112.724C237.877 117.037 232.579 120.536 226.047 120.536C219.515 120.536 214.217 117.03 214.217 112.724V107.478" stroke="#A0D6FF" stroke-width="1.79893" stroke-miterlimit="10"/>
<path d="M226.047 115.29C232.58 115.29 237.877 111.793 237.877 107.478C237.877 103.164 232.58 99.6664 226.047 99.6664C219.514 99.6664 214.217 103.164 214.217 107.478C214.217 111.793 219.514 115.29 226.047 115.29Z" fill="white" stroke="#A0D6FF" stroke-width="1.79893" stroke-miterlimit="10"/>
<path d="M240.456 174.728H210.085C206.707 174.728 203.969 177.466 203.969 180.843V207.756C203.969 211.134 206.707 213.871 210.085 213.871H240.456C243.833 213.871 246.571 211.134 246.571 207.756V180.843C246.571 177.466 243.833 174.728 240.456 174.728Z" fill="white"/>
<path d="M231.417 195.681C231.435 196.5 231.29 197.314 230.989 198.076C230.688 198.838 230.238 199.532 229.666 200.118C229.093 200.704 228.409 201.169 227.654 201.487C226.899 201.805 226.088 201.968 225.269 201.968C224.45 201.968 223.639 201.805 222.884 201.487C222.129 201.169 221.445 200.704 220.872 200.118C220.299 199.532 219.849 198.838 219.549 198.076C219.248 197.314 219.103 196.5 219.121 195.681C219.121 192.284 225.27 184.267 225.27 184.267C225.27 184.267 231.417 192.284 231.417 195.681Z" fill="#A0D6FF"/>
<path d="M228.847 195.392C228.847 195.9 228.747 196.403 228.552 196.872C228.358 197.342 228.073 197.768 227.714 198.128C227.354 198.487 226.928 198.772 226.459 198.966C225.989 199.161 225.486 199.261 224.978 199.261" stroke="white" stroke-width="1.79893" stroke-miterlimit="10" stroke-linecap="round"/>
<path d="M139.929 223.611V336.996C139.929 344.854 121.642 351.224 99.0855 351.224C76.5292 351.224 58.2393 344.854 58.2393 336.996V223.611C58.2393 215.753 76.5261 209.383 99.0855 209.383C121.645 209.383 139.929 215.765 139.929 223.611Z" fill="#A0D6FF"/>
<path d="M98.6065 244.527C76.0502 244.527 57.7634 238.156 57.7634 230.298" stroke="white" stroke-width="1.79893" stroke-miterlimit="10" stroke-linecap="round"/>
<path d="M98.6065 283.143C76.0502 283.143 57.7634 276.769 57.7634 268.911" stroke="white" stroke-width="1.79893" stroke-miterlimit="10" stroke-linecap="round"/>
<path d="M98.6065 321.754C76.0502 321.754 57.7634 315.384 57.7634 307.525" stroke="white" stroke-width="1.79893" stroke-miterlimit="10" stroke-linecap="round"/>
<path d="M86.7613 250.593C69.9816 248.824 57.7634 243.396 57.7634 236.973" stroke="white" stroke-width="1.79893" stroke-miterlimit="10" stroke-linecap="round"/>
<path d="M98.606 251.201C96.2164 251.201 93.8766 251.129 91.5989 250.993" stroke="white" stroke-width="1.79893" stroke-miterlimit="10" stroke-linecap="round"/>
<path d="M66.4668 255.761C61.0196 253.343 57.7662 250.295 57.7662 246.985" stroke="white" stroke-width="1.79893" stroke-miterlimit="10" stroke-linecap="round"/>
<path d="M98.6068 261.211C87.5601 261.211 77.5389 259.682 70.1869 257.199" stroke="white" stroke-width="1.79893" stroke-miterlimit="10" stroke-linecap="round"/>
<path d="M66.4668 308.675C61.0196 306.258 57.7662 303.21 57.7662 299.897" stroke="white" stroke-width="1.79893" stroke-miterlimit="10" stroke-linecap="round"/>
<path d="M98.6068 314.126C87.5601 314.126 77.5389 312.6 70.1869 310.117" stroke="white" stroke-width="1.79893" stroke-miterlimit="10" stroke-linecap="round"/>
<path d="M139.929 223.611C139.929 231.47 121.642 237.84 99.0855 237.84C76.5292 237.84 58.2393 231.47 58.2393 223.611C58.2393 215.753 76.5261 209.395 99.0948 209.395C121.664 209.395 139.929 215.765 139.929 223.611Z" fill="white"/>
<path d="M136.333 223.612C136.333 230.163 119.656 235.47 99.0851 235.47C78.5144 235.47 61.8341 230.175 61.8341 223.612C61.8341 217.05 78.5113 211.77 99.0944 211.77C119.678 211.77 136.333 217.087 136.333 223.612Z" stroke="#D9AF00" stroke-width="1.43981" stroke-miterlimit="10" stroke-linecap="round"/>
<path d="M129.876 222.816C129.876 222.816 116.43 229.27 112.866 229.27C111.154 229.27 109.513 228.59 108.302 227.38C107.092 226.169 106.412 224.528 106.412 222.816C106.412 221.104 107.092 219.463 108.302 218.252C109.513 217.042 111.154 216.362 112.866 216.362C116.43 216.362 129.876 222.816 129.876 222.816Z" fill="#D9AF00"/>
<path d="M114.629 227.118C117.004 226.134 118.132 223.411 117.148 221.036C116.164 218.661 113.441 217.533 111.066 218.517C108.691 219.5 107.563 222.223 108.547 224.598C109.531 226.974 112.254 228.101 114.629 227.118Z" fill="white"/>
<path d="M129.876 219.945V225.504" stroke="#A0D6FF" stroke-width="1.61937" stroke-miterlimit="10" stroke-linecap="round"/>
<path d="M139.928 258.351V300.301C139.928 306.475 128.633 311.733 112.848 313.703V271.753C128.633 269.783 139.928 264.526 139.928 258.351Z" fill="#D9AF00"/>
<path d="M153.32 218.158L159.513 237.412" stroke="#56303C" stroke-width="3.59786" stroke-miterlimit="10" stroke-linecap="round"/>
<path d="M163.851 351.235C194.675 351.235 219.662 325.448 219.662 293.637C219.662 261.827 194.675 236.039 163.851 236.039C133.027 236.039 108.04 261.827 108.04 293.637C108.04 325.448 133.027 351.235 163.851 351.235Z" fill="#FFAFB1"/>
<path d="M220.995 271.214C224.566 279.975 225.99 289.463 225.146 298.886C224.303 308.309 221.218 317.394 216.148 325.381" stroke="white" stroke-width="1.79893" stroke-miterlimit="10" stroke-linecap="round"/>
<path d="M114.735 264.039C120.429 253.969 129.065 245.881 139.486 240.858" stroke="white" stroke-width="1.79893" stroke-miterlimit="10" stroke-linecap="round"/>
<path d="M184.546 252.94C197.224 260.137 205.816 274.054 205.816 290.042" stroke="#A0D6FF" stroke-width="4.49899" stroke-miterlimit="10" stroke-linecap="round"/>
<path d="M171.352 248.124C172.471 248.279 173.574 248.486 174.662 248.745" stroke="#A0D6FF" stroke-width="4.49899" stroke-miterlimit="10" stroke-linecap="round"/>
<path d="M181.252 339.306C181.251 339.863 181.029 340.397 180.635 340.791C180.24 341.185 179.706 341.406 179.148 341.406H175.845V343.32C175.856 343.603 175.81 343.885 175.709 344.15C175.608 344.414 175.455 344.656 175.259 344.86C175.062 345.064 174.827 345.226 174.567 345.337C174.306 345.448 174.026 345.505 173.743 345.505C173.46 345.505 173.18 345.448 172.919 345.337C172.659 345.226 172.423 345.064 172.227 344.86C172.031 344.656 171.878 344.414 171.777 344.15C171.676 343.885 171.63 343.603 171.641 343.32V341.406H168.335C168.052 341.417 167.77 341.371 167.505 341.27C167.24 341.169 166.999 341.016 166.795 340.82C166.591 340.624 166.429 340.388 166.318 340.128C166.207 339.867 166.15 339.587 166.15 339.304C166.15 339.021 166.207 338.741 166.318 338.48C166.429 338.22 166.591 337.984 166.795 337.788C166.999 337.592 167.24 337.439 167.505 337.338C167.77 337.237 168.052 337.191 168.335 337.202H171.638V334.424C171.659 333.88 171.889 333.366 172.281 332.989C172.673 332.612 173.196 332.401 173.74 332.401C174.284 332.401 174.807 332.612 175.198 332.989C175.59 333.366 175.821 333.88 175.842 334.424V337.202H179.148C179.706 337.202 180.241 337.423 180.636 337.818C181.03 338.212 181.252 338.748 181.252 339.306Z" fill="#B4702F"/>
<path d="M177.88 219.796C174.792 228.659 163.785 232.881 163.785 232.881C163.785 232.881 157.785 222.736 160.871 213.874C163.956 205.012 174.963 200.789 174.963 200.789C174.963 200.789 180.966 210.934 177.88 219.796Z" fill="#B4702F"/>
<path d="M174.963 200.789C174.963 200.789 180.966 210.934 177.881 219.796C174.795 228.659 163.786 232.881 163.786 232.881L174.963 200.789Z" fill="#56303C"/>
<path d="M107.53 265.563H39.3448C36.2317 265.563 33.708 268.087 33.708 271.2V274.68C33.708 277.793 36.2317 280.317 39.3448 280.317H107.53C110.643 280.317 113.166 277.793 113.166 274.68V271.2C113.166 268.087 110.643 265.563 107.53 265.563Z" fill="#56303C"/>
<path d="M116.476 280.317H30.3956C22.1049 280.317 15.3839 287.038 15.3839 295.328V336.178C15.3839 344.468 22.1049 351.189 30.3956 351.189H116.476C124.766 351.189 131.487 344.468 131.487 336.178V295.328C131.487 287.038 124.766 280.317 116.476 280.317Z" fill="white" stroke="#B4702F" stroke-width="1.79893" stroke-miterlimit="10"/>
<path d="M115.646 346.696H31.2255C28.2229 346.696 25.3436 345.502 23.2208 343.379C21.0979 341.255 19.9054 338.376 19.9054 335.373V296.13C19.9054 289.878 24.9735 286.24 31.2255 286.24H115.646C121.898 286.24 126.966 289.878 126.966 296.13V335.373C126.966 338.376 125.774 341.255 123.651 343.379C121.528 345.502 118.649 346.696 115.646 346.696Z" fill="#D9AF00"/>
<path d="M108.978 335.04C110.696 335.04 112.088 333.648 112.088 331.93C112.088 330.212 110.696 328.819 108.978 328.819C107.26 328.819 105.868 330.212 105.868 331.93C105.868 333.648 107.26 335.04 108.978 335.04Z" fill="white"/>
<path d="M104.034 337.595C104.73 337.595 105.295 337.03 105.295 336.333C105.295 335.636 104.73 335.072 104.034 335.072C103.337 335.072 102.772 335.636 102.772 336.333C102.772 337.03 103.337 337.595 104.034 337.595Z" fill="white"/>
<path d="M96.9737 302.608C98.1355 302.608 99.0774 301.666 99.0774 300.504C99.0774 299.343 98.1355 298.401 96.9737 298.401C95.8119 298.401 94.87 299.343 94.87 300.504C94.87 301.666 95.8119 302.608 96.9737 302.608Z" fill="white"/>
<path d="M42.6076 329.951C44.0012 329.951 45.1308 328.821 45.1308 327.427C45.1308 326.034 44.0012 324.904 42.6076 324.904C41.2141 324.904 40.0845 326.034 40.0845 327.427C40.0845 328.821 41.2141 329.951 42.6076 329.951Z" fill="white"/>
<path d="M34.9669 324.164C35.6637 324.164 36.2285 323.599 36.2285 322.902C36.2285 322.205 35.6637 321.641 34.9669 321.641C34.2702 321.641 33.7053 322.205 33.7053 322.902C33.7053 323.599 34.2702 324.164 34.9669 324.164Z" fill="white"/>
<path d="M88.3605 265.084V321.735L84.5416 317.913L80.8283 321.626L77.1181 317.913L73.2992 321.735L69.4802 317.913L65.7669 321.626L62.0567 317.913L58.2378 321.735V265.084H88.3605Z" fill="#FFAFB1"/>
<path d="M80.1475 288.63H74.3523L71.4531 293.651L74.3523 298.67H80.1475L83.0467 293.651L80.1475 288.63Z" fill="white"/>
<path d="M69.676 294.855H63.8807L60.9816 299.877L63.8807 304.895H69.676L72.5751 299.877L69.676 294.855Z" fill="white"/>
<path d="M80.1475 300.981H74.3523L71.4531 306.002L74.3523 311.021H80.1475L83.0467 306.002L80.1475 300.981Z" fill="white"/>
<path d="M58.2378 321.735L61.3141 318.658C61.5111 318.461 61.7782 318.351 62.0567 318.351C62.3353 318.351 62.6024 318.461 62.7994 318.658L65.7669 321.626L68.7376 318.658C68.9345 318.461 69.2017 318.351 69.4802 318.351C69.7588 318.351 70.0259 318.461 70.2229 318.658L73.2992 321.735L76.3755 318.658C76.5724 318.461 76.8396 318.351 77.1181 318.351C77.3967 318.351 77.6638 318.461 77.8608 318.658L80.8283 321.626L83.7989 318.658C83.9959 318.461 84.263 318.351 84.5416 318.351C84.8201 318.351 85.0873 318.461 85.2842 318.658L88.3605 321.735" stroke="white" stroke-width="1.26025" stroke-linejoin="round"/>
<path d="M137.82 142.234L38.2917 154.974L34.4852 155.459L17.0591 157.696H16.9784L10.4032 158.538L2.54468 97.109L127.802 81.0657C128.37 80.995 128.943 81.1511 129.397 81.5002C129.851 81.8492 130.149 82.363 130.226 82.9301L137.82 142.234Z" fill="#D9AF00"/>
<path d="M130.054 79.8231L95.6731 84.3378L103.726 145.664L138.107 141.149L130.054 79.8231Z" fill="#B4702F"/>
<path d="M95.4985 85.1511C96.4058 92.2297 76.3292 100.635 50.6593 103.923C24.9894 107.21 3.44299 104.137 2.53564 97.0554L95.4985 85.1511Z" fill="#A0D6FF"/>
<path d="M71.3322 132.605C68.3554 138.972 60.9133 142.076 58.1104 143.046L64.4898 129.404C64.5715 129.204 64.5733 128.981 64.4948 128.78C64.4163 128.579 64.2635 128.415 64.0681 128.324C63.8727 128.232 63.6494 128.219 63.4446 128.287C63.2397 128.355 63.0688 128.499 62.9672 128.69L56.5878 142.334C55.5375 139.562 53.148 131.862 56.1248 125.492C59.8288 117.568 70.4373 114.7 70.4373 114.7C70.4373 114.7 75.0362 124.681 71.3322 132.605Z" fill="white"/>
<path d="M44.1898 133.627L52.1727 140.485C49.839 140.656 44.4478 140.659 40.8153 137.545C36.0703 133.474 36.1263 125.619 36.1263 125.619C36.1263 125.619 43.8947 124.376 48.6303 128.434C52.2597 131.542 53.08 136.871 53.2664 139.208L45.2712 132.35C45.1885 132.27 45.0905 132.209 44.9832 132.168C44.8759 132.128 44.7615 132.11 44.647 132.116C44.5325 132.122 44.4204 132.151 44.3175 132.201C44.2146 132.251 44.1231 132.322 44.0486 132.409C43.974 132.496 43.918 132.598 43.884 132.707C43.85 132.817 43.8387 132.932 43.8507 133.046C43.8628 133.16 43.898 133.27 43.9542 133.37C44.0103 133.47 44.0863 133.557 44.1774 133.627H44.1898Z" fill="white"/>
<path d="M45.2896 121.989C46.8307 121.989 48.08 120.74 48.08 119.199C48.08 117.658 46.8307 116.408 45.2896 116.408C43.7485 116.408 42.4991 117.658 42.4991 119.199C42.4991 120.74 43.7485 121.989 45.2896 121.989Z" stroke="#56303C" stroke-width="1.79893" stroke-miterlimit="10" stroke-linecap="round"/>
<path d="M56.2454 120.154C57.6667 119.558 58.336 117.923 57.7403 116.502C57.1446 115.081 55.5095 114.411 54.0881 115.007C52.6668 115.603 51.9976 117.238 52.5933 118.659C53.189 120.081 54.8241 120.75 56.2454 120.154Z" stroke="#56303C" stroke-width="1.79893" stroke-miterlimit="10" stroke-linecap="round"/>
<path d="M49.1991 114.078C50.7402 114.078 51.9895 112.828 51.9895 111.287C51.9895 109.746 50.7402 108.497 49.1991 108.497C47.658 108.497 46.4087 109.746 46.4087 111.287C46.4087 112.828 47.658 114.078 49.1991 114.078Z" stroke="#56303C" stroke-width="1.79893" stroke-miterlimit="10" stroke-linecap="round"/>
<path d="M104.448 145.717L119.136 133.03L136.951 141.327" stroke="#56303C" stroke-width="1.79893" stroke-miterlimit="10" stroke-linecap="round"/>
<path d="M96.4524 85.627L114.515 96.9657L119.136 133.03" stroke="#56303C" stroke-width="1.79893" stroke-miterlimit="10" stroke-linecap="round"/>
<path d="M129.232 81.5416L114.516 96.9666" stroke="#56303C" stroke-width="1.79893" stroke-miterlimit="10" stroke-linecap="round"/>
<path d="M460.398 363.014L459.901 372.525L450.383 372.42L441.589 366.317L453.928 356.062L455.898 359.089C457.004 360.79 458.562 362.149 460.398 363.014Z" fill="#B4702F"/>
<path d="M453.928 356.065L441.585 366.323L445.376 368.952L453.928 356.065Z" fill="#56303C"/>
<path d="M485.804 361.988L456.877 384.951C456.39 385.342 455.805 385.593 455.186 385.677C454.567 385.762 453.937 385.676 453.362 385.43C452.788 385.184 452.291 384.787 451.925 384.281C451.559 383.774 451.337 383.178 451.284 382.556L450.373 372.423L459.891 372.528L460.388 363.017C462.607 364.066 465.115 364.337 467.507 363.787L484.759 359.838C485.03 359.773 485.315 359.803 485.567 359.923C485.819 360.042 486.022 360.244 486.144 360.494C486.266 360.745 486.298 361.029 486.236 361.301C486.174 361.573 486.022 361.815 485.804 361.988Z" fill="#D9AF00"/>
<path d="M454.711 386.658L487.235 360.783" stroke="#56303C" stroke-width="1.79893" stroke-miterlimit="10" stroke-linecap="round"/>
<path d="M467.485 361.687L465.528 363.35L463.868 361.392C463.65 361.135 463.484 360.838 463.381 360.517C463.278 360.196 463.239 359.858 463.266 359.522C463.293 359.186 463.387 358.859 463.541 358.559C463.695 358.259 463.907 357.993 464.164 357.775C464.421 357.557 464.719 357.393 465.041 357.291C465.362 357.189 465.701 357.151 466.037 357.18C466.373 357.209 466.7 357.304 466.999 357.459C467.298 357.614 467.564 357.827 467.781 358.086C468.216 358.604 468.429 359.273 468.374 359.947C468.319 360.622 468 361.247 467.485 361.687Z" stroke="#56303C" stroke-width="1.79893" stroke-miterlimit="10" stroke-linecap="round"/>
<path d="M326.93 362.535L324.36 369.691H314.069L312.416 360.782L312.621 360.59L317.446 356.065L326.93 362.535Z" fill="#B4702F"/>
<path d="M317.443 356.065L326.93 362.535L325.172 367.432L317.443 356.065Z" fill="#56303C"/>
<path d="M312.416 360.783L314.069 369.692H324.323L324.081 370.353C323.59 374.648 325.55 380.173 329.565 381.782L334.565 383.597C334.799 383.692 334.993 383.866 335.114 384.089C335.235 384.311 335.274 384.569 335.226 384.817C335.178 385.066 335.045 385.29 334.851 385.452C334.656 385.613 334.411 385.702 334.158 385.704H318.416L303.041 368.536C301.683 367.016 302.317 364.126 304.246 363.474L312.416 360.783Z" fill="#D9AF00"/>
<path d="M301.179 366.668L318.422 385.707H335.494" stroke="#56303C" stroke-width="1.79893" stroke-miterlimit="10" stroke-linecap="round"/>
<path d="M327.095 375.683L324.728 374.698L325.713 372.327C325.842 372.016 326.031 371.733 326.27 371.495C326.509 371.257 326.792 371.068 327.104 370.94C327.415 370.811 327.749 370.746 328.087 370.747C328.424 370.747 328.757 370.815 329.069 370.945C329.38 371.074 329.663 371.263 329.901 371.502C330.139 371.741 330.328 372.024 330.456 372.336C330.585 372.648 330.65 372.982 330.649 373.319C330.649 373.656 330.581 373.99 330.451 374.301C330.19 374.929 329.689 375.428 329.06 375.687C328.43 375.946 327.724 375.945 327.095 375.683Z" stroke="#56303C" stroke-width="1.79893" stroke-miterlimit="10" stroke-linecap="round"/>
<path d="M453.929 356.067L434.123 372.536L378.93 276.208L371.584 306.971L330.697 364.513L311.54 352.052L343.795 284.66L351.374 222.031C351.736 219.05 353.176 216.305 355.424 214.313C357.671 212.321 360.57 211.221 363.573 211.22H393.587C393.748 211.221 393.906 211.268 394.039 211.358C394.173 211.448 394.278 211.575 394.339 211.724L453.929 356.067Z" fill="#EFDFC0"/>
<mask id="mask0_3_453" style="mask-type:alpha" maskUnits="userSpaceOnUse" x="311" y="211" width="143" height="162">
<path d="M453.929 356.067L434.123 372.536L378.93 276.208L371.584 306.971L330.697 364.513L311.54 352.052L343.795 284.66L351.374 222.031C351.736 219.05 353.176 216.305 355.424 214.313C357.671 212.321 360.57 211.221 363.573 211.22H393.587C393.748 211.221 393.906 211.268 394.039 211.358C394.173 211.448 394.278 211.575 394.339 211.724L453.929 356.067Z" fill="#EDE0C4"/>
</mask>
<g mask="url(#mask0_3_453)">
<path d="M370.21 308.284V210.844" stroke="#F5EFD9" stroke-width="1.08069" stroke-miterlimit="10"/>
<path d="M361.276 322.585V210.844" stroke="#F5EFD9" stroke-width="1.08069" stroke-miterlimit="10"/>
<path d="M379.414 275.868V210.844" stroke="#F5EFD9" stroke-width="1.08069" stroke-miterlimit="10"/>
<path d="M388.618 290.169V210.844" stroke="#F5EFD9" stroke-width="1.08069" stroke-miterlimit="10"/>
<path d="M397.825 308.284V216.564" stroke="#F5EFD9" stroke-width="1.08069" stroke-miterlimit="10"/>
<path d="M407.029 325.446V238.968" stroke="#F5EFD9" stroke-width="1.08069" stroke-miterlimit="10"/>
<path d="M416.233 344.989V262.805" stroke="#F5EFD9" stroke-width="1.08069" stroke-miterlimit="10"/>
<path d="M425.437 358.337V286.638" stroke="#F5EFD9" stroke-width="1.08069" stroke-miterlimit="10"/>
<path d="M333.792 361.196V304.754" stroke="#F5EFD9" stroke-width="1.08069" stroke-miterlimit="10"/>
<path d="M342.996 344.988V285.684" stroke="#F5EFD9" stroke-width="1.08069" stroke-miterlimit="10"/>
<path d="M324.405 360.721V326.682" stroke="#F5EFD9" stroke-width="1.08069" stroke-miterlimit="10"/>
<path d="M352.199 335.455V216.564" stroke="#F5EFD9" stroke-width="1.08069" stroke-miterlimit="10"/>
<path d="M422.938 280.709H343.987" stroke="#F5EFD9" stroke-width="1.08069" stroke-miterlimit="10"/>
<path d="M419.601 271.506H345.416" stroke="#F5EFD9" stroke-width="1.08069" stroke-miterlimit="10"/>
<path d="M416.264 262.302H345.416" stroke="#F5EFD9" stroke-width="1.08069" stroke-miterlimit="10"/>
<path d="M411.497 253.097H347.324" stroke="#F5EFD9" stroke-width="1.08069" stroke-miterlimit="10"/>
<path d="M407.206 243.894H348.275" stroke="#F5EFD9" stroke-width="1.08069" stroke-miterlimit="10"/>
<path d="M403.872 234.69H349.229" stroke="#F5EFD9" stroke-width="1.08069" stroke-miterlimit="10"/>
<path d="M400.056 225.486H351.137" stroke="#F5EFD9" stroke-width="1.08069" stroke-miterlimit="10"/>
<path d="M396.243 216.279H353.085" stroke="#F5EFD9" stroke-width="1.08069" stroke-miterlimit="10"/>
<path d="M452.971 354.401H310.141" stroke="#F5EFD9" stroke-width="1.08069" stroke-miterlimit="10"/>
<path d="M457.738 363.7H310.141" stroke="#F5EFD9" stroke-width="1.08069" stroke-miterlimit="10"/>
<path d="M450.588 345.196H314.43" stroke="#F5EFD9" stroke-width="1.08069" stroke-miterlimit="10"/>
<path d="M447.251 335.992H317.767" stroke="#F5EFD9" stroke-width="1.08069" stroke-miterlimit="10"/>
<path d="M443.438 326.789H322.534" stroke="#F5EFD9" stroke-width="1.08069" stroke-miterlimit="10"/>
<path d="M438.193 317.585H327.301" stroke="#F5EFD9" stroke-width="1.08069" stroke-miterlimit="10"/>
<path d="M433.905 308.38H332.068" stroke="#F5EFD9" stroke-width="1.08069" stroke-miterlimit="10"/>
<path d="M430.567 299.173H336.837" stroke="#F5EFD9" stroke-width="1.08069" stroke-miterlimit="10"/>
<path d="M425.8 289.97H341.168" stroke="#F5EFD9" stroke-width="1.08069" stroke-miterlimit="10"/>
<path d="M435.057 370.733V308.568" stroke="#F5EFD9" stroke-width="1.08069" stroke-miterlimit="10"/>
<path d="M444.594 363.104V336.216" stroke="#F5EFD9" stroke-width="1.08069" stroke-miterlimit="10"/>
</g>
<path d="M378.93 276.211L358.732 239.485C356.49 235.414 355.314 230.842 355.314 226.195" stroke="#56303C" stroke-width="1.79893" stroke-miterlimit="10" stroke-linecap="round"/>
<path d="M434.122 372.528L453.929 356.066" stroke="#56303C" stroke-width="1.79893" stroke-miterlimit="10" stroke-linecap="round"/>
<path d="M311.54 352.046L330.697 364.506" stroke="#56303C" stroke-width="1.79893" stroke-miterlimit="10" stroke-linecap="round"/>
<path d="M393.177 212.882L382.494 228.954" stroke="#56303C" stroke-width="1.79893" stroke-miterlimit="10" stroke-linecap="round"/>
<path d="M392.777 107.087L381.771 103.504C381.771 103.504 378.713 95.2568 380.388 92.5814C382.063 89.906 400.35 87.2585 400.35 87.2585C405.607 86.2331 410.175 87.3051 410.784 89.8097C411.437 92.4789 407.366 95.7665 401.673 97.1523L392.777 107.087Z" fill="#56303C"/>
<path d="M409.295 106.537H407.742C407.648 106.535 407.555 106.554 407.47 106.593C407.385 106.632 407.31 106.689 407.25 106.761C407.19 106.833 407.148 106.918 407.125 107.009C407.103 107.099 407.101 107.194 407.12 107.286L408.229 112.823C408.304 113.197 408.294 113.584 408.201 113.954C408.109 114.324 407.935 114.669 407.693 114.965C407.451 115.26 407.146 115.497 406.801 115.661C406.456 115.824 406.079 115.909 405.697 115.909H403.674C402.915 115.909 402.187 116.212 401.65 116.749C401.114 117.286 400.812 118.014 400.812 118.774V126.623H371.404C372.924 126.625 374.417 126.221 375.728 125.452C377.039 124.683 378.121 123.578 378.862 122.251L383.65 111.537C382.637 111.288 381.737 110.708 381.093 109.888C380.449 109.067 380.099 108.055 380.098 107.012V106.984C380.098 106.369 380.219 105.759 380.454 105.19C380.69 104.621 381.035 104.104 381.47 103.669C381.905 103.233 382.422 102.888 382.99 102.652C383.559 102.417 384.169 102.295 384.784 102.295H385.325C386.265 102.296 387.184 102.565 387.976 103.072L389.887 104.315C395.023 102.081 393.044 95.6703 393.044 95.6703C403.087 96.7859 406.303 91.0901 406.303 91.0901L410.004 105.654C410.029 105.761 410.03 105.871 410.006 105.978C409.983 106.085 409.935 106.184 409.866 106.27C409.798 106.355 409.711 106.423 409.612 106.47C409.513 106.516 409.404 106.539 409.295 106.537Z" fill="#B4702F"/>
<path d="M403.671 115.908C402.918 115.909 402.196 116.208 401.663 116.74C401.131 117.271 400.83 117.992 400.828 118.745L400.809 123.406L393.041 114.168C393.548 114.716 394.163 115.153 394.848 115.452C395.532 115.751 396.271 115.905 397.018 115.905L403.671 115.908Z" fill="#56303C"/>
<path d="M400.885 98.566L404.634 97.6519L404.797 98.3191C404.899 98.7362 404.83 99.1767 404.607 99.5436C404.384 99.9105 404.025 100.174 403.607 100.275L399.891 101.181L399.721 100.484C399.622 100.075 399.688 99.6439 399.906 99.2843C400.124 98.9247 400.476 98.6664 400.885 98.566Z" fill="#56303C"/>
<path d="M403.879 102.659C403.863 102.805 403.805 102.942 403.712 103.055C403.62 103.169 403.496 103.253 403.357 103.297C403.217 103.342 403.068 103.345 402.927 103.307C402.786 103.269 402.659 103.19 402.561 103.081C402.463 102.972 402.399 102.838 402.377 102.693C402.354 102.549 402.373 102.4 402.433 102.267C402.492 102.133 402.589 102.02 402.712 101.94C402.835 101.86 402.978 101.817 403.124 101.817C403.336 101.829 403.534 101.924 403.675 102.082C403.817 102.24 403.89 102.447 403.879 102.659Z" fill="#56303C"/>
<path d="M384.114 105.221C384.476 105.221 384.835 105.293 385.17 105.432C385.505 105.571 385.81 105.774 386.066 106.031C386.322 106.287 386.525 106.592 386.664 106.927C386.802 107.262 386.873 107.621 386.873 107.984" stroke="#56303C" stroke-width="1.43981" stroke-miterlimit="10" stroke-linecap="round"/>
<path d="M386.105 106.064L384.433 107.624" stroke="#56303C" stroke-width="1.43981" stroke-miterlimit="10" stroke-linecap="round"/>
<path d="M407.462 108.995C406.384 109.213 404.635 108.234 404.635 107.441" stroke="#56303C" stroke-width="1.43981" stroke-miterlimit="10"/>
<path d="M405.82 86.6685L380.222 98.7871L380.023 97.8394C379.332 94.5632 379.828 91.1482 381.422 88.2035C383.015 85.2589 385.603 82.9759 388.723 81.7619L396.681 78.6732C397.684 78.2826 398.793 78.2613 399.811 78.613C400.828 78.9648 401.687 79.6668 402.234 80.5936L405.82 86.6685Z" fill="#A0D6FF"/>
<path d="M380.222 98.8013L412.28 84.004" stroke="#D9AF00" stroke-width="1.79893" stroke-miterlimit="10" stroke-linecap="round"/>
<path d="M402.489 81.0293L397.625 83.077L398.962 86.3833L404.244 84.003L402.489 81.0293Z" fill="#D9AF00"/>
<path d="M358.287 211.212H391.968C392.893 211.212 393.79 210.896 394.512 210.317C395.233 209.738 395.736 208.93 395.936 208.027L405.121 166.699C406.836 158.985 406.753 150.981 404.879 143.304L400.818 126.62H369.216C364.699 126.62 360.261 127.796 356.337 130.033C352.414 132.271 349.142 135.492 346.843 139.379L305.621 209.5C305.088 210.405 304.75 211.411 304.628 212.454C304.505 213.496 304.602 214.553 304.91 215.557C305.219 216.56 305.733 217.489 306.421 218.283C307.108 219.076 307.953 219.718 308.902 220.168L315.822 223.443C317.433 224.205 319.262 224.374 320.985 223.919C322.708 223.464 324.215 222.415 325.24 220.957L355.071 178.619L352.638 204.994C352.565 205.781 352.656 206.575 352.906 207.325C353.157 208.074 353.56 208.764 354.092 209.349C354.623 209.934 355.271 210.401 355.993 210.722C356.716 211.043 357.497 211.21 358.287 211.212Z" fill="#A0D6FF"/>
<path d="M395.998 131.959H398.655" stroke="#56303C" stroke-width="1.79893" stroke-miterlimit="10" stroke-linecap="round"/>
<path d="M398.655 133.305C399.398 133.305 400.001 132.702 400.001 131.959C400.001 131.216 399.398 130.614 398.655 130.614C397.912 130.614 397.31 131.216 397.31 131.959C397.31 132.702 397.912 133.305 398.655 133.305Z" fill="#D9AF00"/>
<path d="M396.476 138.159H399.133" stroke="#56303C" stroke-width="1.79893" stroke-miterlimit="10" stroke-linecap="round"/>
<path d="M399.133 139.494C399.876 139.494 400.479 138.892 400.479 138.149C400.479 137.406 399.876 136.803 399.133 136.803C398.39 136.803 397.788 137.406 397.788 138.149C397.788 138.892 398.39 139.494 399.133 139.494Z" fill="#D9AF00"/>
<path d="M366.714 156.527L365.76 163.494" stroke="white" stroke-width="1.61937" stroke-miterlimit="10" stroke-linecap="round"/>
<path d="M355.056 178.626L370.676 157.201" stroke="#56303C" stroke-width="1.79893" stroke-miterlimit="10" stroke-linecap="round"/>
<path d="M406.634 164.35H397.849C396.792 164.35 395.935 165.207 395.935 166.264V171.242C395.935 172.299 396.792 173.156 397.849 173.156H406.634C407.691 173.156 408.548 172.299 408.548 171.242V166.264C408.548 165.207 407.691 164.35 406.634 164.35Z" fill="#F5EFD9"/>
<path d="M369.694 126.62L385.902 134.619C390.309 136.79 394.104 140.029 396.94 144.041C399.777 148.052 401.566 152.709 402.144 157.588L402.995 164.776L403.207 132.58" stroke="white" stroke-width="0.901127" stroke-miterlimit="10" stroke-linecap="round"/>
<path d="M402.865 162.321V164.776" stroke="#56303C" stroke-width="1.79893" stroke-miterlimit="10" stroke-linecap="round"/>
<path d="M397.788 173.157H403.685L403.309 174.851L397.788 173.157Z" fill="#56303C"/>
<path d="M405.975 167.877H399.232V169.419H405.975V167.877Z" fill="#D9AF00"/>
<path d="M398.748 126.276L400.811 124.431V121.485L403.652 125.524C403.973 125.984 404.171 126.519 404.225 127.078C404.28 127.636 404.189 128.199 403.962 128.712L402.25 132.578L400.818 126.621H394.82L392.005 131.497L369.216 126.621L376.002 118.132C376.461 117.558 377.098 117.152 377.812 116.978C378.526 116.805 379.277 116.873 379.949 117.172L398.748 126.276Z" fill="#D9AF00"/>
<path d="M392.005 131.021L395.461 125.577" stroke="white" stroke-width="1.61937" stroke-miterlimit="10" stroke-linecap="round"/>
<path d="M305.987 232.312L311.381 232.185C316.316 231.784 320.946 227.316 318.528 222.288C317.503 220.159 314.032 218.727 310.99 217.416C307.845 216.061 305.011 215.769 302.382 217.959L296.699 221.862C295.749 222.511 295.055 223.472 294.738 224.578L291.507 235.118C291.386 235.513 291.358 235.929 291.425 236.336C291.492 236.743 291.652 237.129 291.892 237.464C292.133 237.799 292.448 238.073 292.812 238.266C293.176 238.459 293.58 238.566 293.993 238.577L303.647 238.797C304.251 238.811 304.846 238.654 305.365 238.344C305.884 238.035 306.305 237.586 306.581 237.048L306.851 236.52C306.927 236.372 306.964 236.207 306.959 236.041C306.953 235.875 306.906 235.713 306.821 235.57C306.736 235.428 306.616 235.309 306.472 235.226C306.328 235.142 306.166 235.097 305.999 235.093C305.776 235.089 305.557 235.03 305.361 234.923C305.166 234.815 304.998 234.662 304.874 234.477C304.75 234.291 304.673 234.078 304.648 233.856C304.624 233.634 304.654 233.409 304.735 233.201C304.833 232.946 305.004 232.726 305.227 232.568C305.45 232.41 305.714 232.321 305.987 232.312Z" fill="#B4702F"/>
<path d="M297.153 230.97L295.671 235.942C295.6 236.178 295.585 236.426 295.628 236.669C295.671 236.911 295.769 237.14 295.916 237.337C296.062 237.535 296.253 237.695 296.473 237.806C296.693 237.916 296.935 237.974 297.181 237.974H298.349L301.146 238.08H300.801C300.555 238.08 300.313 238.022 300.093 237.911C299.873 237.801 299.683 237.64 299.536 237.443C299.389 237.245 299.291 237.016 299.248 236.774C299.206 236.532 299.22 236.283 299.291 236.048L300.773 231.234" stroke="#56303C" stroke-width="1.43981" stroke-linecap="round" stroke-linejoin="round"/>
<path d="M312.053 227.238L307.283 229.264C306.723 229.503 306.245 229.9 305.909 230.408C305.573 230.916 305.394 231.511 305.394 232.12" stroke="#56303C" stroke-width="1.43981" stroke-miterlimit="10" stroke-linecap="round"/>
</g>
<defs>
<clipPath id="clip0_3_453">
<rect width="678" height="410" fill="white"/>
</clipPath>
</defs>
</svg>
