<svg width="139" height="33" viewBox="0 0 139 33" fill="none" xmlns="http://www.w3.org/2000/svg">
<path d="M16.4587 2.75C8.86874 2.75 2.70874 8.91 2.70874 16.5C2.70874 24.09 8.86874 30.25 16.4587 30.25C24.0487 30.25 30.2087 24.09 30.2087 16.5C30.2087 8.91 24.0625 2.75 16.4587 2.75ZM23.925 22.5913C22.2337 25.025 19.4562 26.4688 16.5 26.4688C13.5437 26.4688 10.7662 25.025 9.07499 22.5913C8.74499 22.1238 8.86874 21.4775 9.33624 21.1613C9.80374 20.8313 10.45 20.955 10.7662 21.4225C12.0725 23.2925 14.2175 24.42 16.5 24.42C18.7825 24.42 20.9275 23.3062 22.2337 21.4225C22.5637 20.955 23.1962 20.845 23.6637 21.1613C24.145 21.4775 24.255 22.1238 23.925 22.5913Z" fill="#2995E2"/>
<path d="M44.008 22.5V11.572H46.216V16.132H50.456V11.572H52.664V22.5H50.456V17.988H46.216V22.5H44.008ZM57.7218 22.676C56.8364 22.676 56.1324 22.5267 55.6098 22.228C55.0978 21.9293 54.7298 21.476 54.5058 20.868C54.2818 20.26 54.1698 19.4973 54.1698 18.58C54.1698 17.588 54.3084 16.7773 54.5858 16.148C54.8738 15.5187 55.2898 15.0547 55.8338 14.756C56.3778 14.4467 57.0498 14.292 57.8498 14.292C59.0338 14.292 59.9244 14.5907 60.5218 15.188C61.1298 15.7853 61.4338 16.7293 61.4338 18.02L61.3378 19.204H56.3138C56.3244 19.8013 56.4471 20.2493 56.6818 20.548C56.9164 20.8467 57.3218 20.996 57.8978 20.996C58.2284 20.996 58.5911 20.9907 58.9858 20.98C59.3804 20.9587 59.7698 20.9373 60.1538 20.916C60.5484 20.8947 60.8844 20.8733 61.1618 20.852L61.2098 22.34C60.9431 22.3827 60.6071 22.4307 60.2018 22.484C59.7964 22.5373 59.3751 22.58 58.9378 22.612C58.5111 22.6547 58.1058 22.676 57.7218 22.676ZM56.3138 17.844H59.3058C59.3058 17.1187 59.1884 16.612 58.9538 16.324C58.7298 16.036 58.3618 15.892 57.8498 15.892C57.3484 15.892 56.9644 16.0413 56.6978 16.34C56.4418 16.6387 56.3138 17.14 56.3138 17.844ZM62.9128 22.5V11.188H65.0408V22.5H62.9128ZM66.8644 25.876V14.468H68.9764L68.9924 14.98C69.1417 14.884 69.3284 14.7827 69.5524 14.676C69.787 14.5693 70.0377 14.4787 70.3044 14.404C70.571 14.3293 70.8324 14.292 71.0884 14.292C72.1657 14.292 72.939 14.6387 73.4084 15.332C73.8777 16.0147 74.1124 17.0547 74.1124 18.452C74.1124 19.4547 73.995 20.2653 73.7604 20.884C73.5257 21.5027 73.147 21.956 72.6244 22.244C72.1124 22.532 71.435 22.676 70.5924 22.676C70.3257 22.676 70.0377 22.6547 69.7284 22.612C69.419 22.5693 69.1737 22.5267 68.9924 22.484V25.876H66.8644ZM70.2564 20.9C70.683 20.9 71.019 20.8093 71.2644 20.628C71.5097 20.4467 71.6804 20.1747 71.7764 19.812C71.883 19.4387 71.9364 18.9693 71.9364 18.404C71.9364 17.5293 71.8137 16.9267 71.5684 16.596C71.3337 16.2547 70.9924 16.084 70.5444 16.084C70.3737 16.084 70.1924 16.1053 70.0004 16.148C69.8084 16.1907 69.6217 16.244 69.4404 16.308C69.259 16.372 69.1097 16.436 68.9924 16.5V20.788C69.1204 20.7987 69.3017 20.82 69.5364 20.852C69.7817 20.884 70.0217 20.9 70.2564 20.9ZM78.8155 22.676C77.9302 22.676 77.2262 22.5267 76.7035 22.228C76.1915 21.9293 75.8235 21.476 75.5995 20.868C75.3755 20.26 75.2635 19.4973 75.2635 18.58C75.2635 17.588 75.4022 16.7773 75.6795 16.148C75.9675 15.5187 76.3835 15.0547 76.9275 14.756C77.4715 14.4467 78.1435 14.292 78.9435 14.292C80.1275 14.292 81.0182 14.5907 81.6155 15.188C82.2235 15.7853 82.5275 16.7293 82.5275 18.02L82.4315 19.204H77.4075C77.4182 19.8013 77.5408 20.2493 77.7755 20.548C78.0102 20.8467 78.4155 20.996 78.9915 20.996C79.3222 20.996 79.6848 20.9907 80.0795 20.98C80.4742 20.9587 80.8635 20.9373 81.2475 20.916C81.6422 20.8947 81.9782 20.8733 82.2555 20.852L82.3035 22.34C82.0368 22.3827 81.7008 22.4307 81.2955 22.484C80.8902 22.5373 80.4688 22.58 80.0315 22.612C79.6048 22.6547 79.1995 22.676 78.8155 22.676ZM77.4075 17.844H80.3995C80.3995 17.1187 80.2822 16.612 80.0475 16.324C79.8235 16.036 79.4555 15.892 78.9435 15.892C78.4422 15.892 78.0582 16.0413 77.7915 16.34C77.5355 16.6387 77.4075 17.14 77.4075 17.844ZM85.1128 22.5L83.2088 14.468H85.4968L86.8408 20.692H87.3048L88.6808 14.468H90.8408L88.9368 22.5H85.1128ZM95.0811 22.676C94.1958 22.676 93.4918 22.5267 92.9691 22.228C92.4571 21.9293 92.0891 21.476 91.8651 20.868C91.6411 20.26 91.5291 19.4973 91.5291 18.58C91.5291 17.588 91.6678 16.7773 91.9451 16.148C92.2331 15.5187 92.6491 15.0547 93.1931 14.756C93.7371 14.4467 94.4091 14.292 95.2091 14.292C96.3931 14.292 97.2838 14.5907 97.8811 15.188C98.4891 15.7853 98.7931 16.7293 98.7931 18.02L98.6971 19.204H93.6731C93.6838 19.8013 93.8065 20.2493 94.0411 20.548C94.2758 20.8467 94.6811 20.996 95.2571 20.996C95.5878 20.996 95.9505 20.9907 96.3451 20.98C96.7398 20.9587 97.1291 20.9373 97.5131 20.916C97.9078 20.8947 98.2438 20.8733 98.5211 20.852L98.5691 22.34C98.3025 22.3827 97.9665 22.4307 97.5611 22.484C97.1558 22.5373 96.7345 22.58 96.2971 22.612C95.8705 22.6547 95.4651 22.676 95.0811 22.676ZM93.6731 17.844H96.6651C96.6651 17.1187 96.5478 16.612 96.3131 16.324C96.0891 16.036 95.7211 15.892 95.2091 15.892C94.7078 15.892 94.3238 16.0413 94.0571 16.34C93.8011 16.6387 93.6731 17.14 93.6731 17.844ZM100.208 22.5V14.468H102.336V15.412C102.517 15.2733 102.741 15.1293 103.008 14.98C103.275 14.82 103.563 14.676 103.872 14.548C104.192 14.4093 104.496 14.3187 104.784 14.276V16.34C104.507 16.3827 104.213 16.4573 103.904 16.564C103.595 16.66 103.301 16.7667 103.024 16.884C102.757 17.0013 102.528 17.108 102.336 17.204V22.5H100.208ZM107.864 25.876L108.888 22.5H107.176L105.272 14.468H107.496L108.92 20.692H109.336L110.76 14.468H112.904L110.136 25.876H107.864ZM117.367 22.676C116.461 22.676 115.73 22.5267 115.175 22.228C114.631 21.9293 114.237 21.4707 113.991 20.852C113.746 20.2227 113.623 19.412 113.623 18.42C113.623 17.46 113.751 16.6813 114.007 16.084C114.263 15.476 114.669 15.028 115.223 14.74C115.778 14.4413 116.493 14.292 117.367 14.292C118.253 14.292 118.967 14.4413 119.511 14.74C120.066 15.028 120.471 15.476 120.727 16.084C120.994 16.6813 121.127 17.46 121.127 18.42C121.127 19.412 121.005 20.2227 120.759 20.852C120.514 21.4707 120.114 21.9293 119.559 22.228C119.015 22.5267 118.285 22.676 117.367 22.676ZM117.367 20.916C117.815 20.916 118.151 20.836 118.375 20.676C118.599 20.5053 118.749 20.2387 118.823 19.876C118.909 19.5027 118.951 19.0173 118.951 18.42C118.951 17.8333 118.903 17.3693 118.807 17.028C118.711 16.676 118.551 16.4253 118.327 16.276C118.103 16.1267 117.783 16.052 117.367 16.052C116.962 16.052 116.642 16.1267 116.407 16.276C116.183 16.4253 116.023 16.676 115.927 17.028C115.831 17.3693 115.783 17.8333 115.783 18.42C115.783 19.0173 115.821 19.5027 115.895 19.876C115.981 20.2387 116.135 20.5053 116.359 20.676C116.583 20.836 116.919 20.916 117.367 20.916ZM122.583 22.5V14.468H124.711V14.98C124.882 14.8733 125.09 14.772 125.335 14.676C125.58 14.5693 125.836 14.4787 126.103 14.404C126.38 14.3293 126.647 14.292 126.903 14.292C127.65 14.292 128.226 14.4253 128.631 14.692C129.047 14.948 129.34 15.3747 129.511 15.972C129.682 16.5587 129.767 17.348 129.767 18.34V22.5H127.623V18.452C127.623 17.8973 127.591 17.4547 127.527 17.124C127.463 16.7827 127.34 16.5373 127.159 16.388C126.978 16.2387 126.711 16.164 126.359 16.164C126.167 16.164 125.964 16.1853 125.751 16.228C125.548 16.26 125.351 16.308 125.159 16.372C124.978 16.436 124.828 16.5 124.711 16.564V22.5H122.583ZM134.675 22.676C133.79 22.676 133.086 22.5267 132.563 22.228C132.051 21.9293 131.683 21.476 131.459 20.868C131.235 20.26 131.123 19.4973 131.123 18.58C131.123 17.588 131.262 16.7773 131.539 16.148C131.827 15.5187 132.243 15.0547 132.787 14.756C133.331 14.4467 134.003 14.292 134.803 14.292C135.987 14.292 136.878 14.5907 137.475 15.188C138.083 15.7853 138.387 16.7293 138.387 18.02L138.291 19.204H133.267C133.278 19.8013 133.4 20.2493 133.635 20.548C133.87 20.8467 134.275 20.996 134.851 20.996C135.182 20.996 135.544 20.9907 135.939 20.98C136.334 20.9587 136.723 20.9373 137.107 20.916C137.502 20.8947 137.838 20.8733 138.115 20.852L138.163 22.34C137.896 22.3827 137.56 22.4307 137.155 22.484C136.75 22.5373 136.328 22.58 135.891 22.612C135.464 22.6547 135.059 22.676 134.675 22.676ZM133.267 17.844H136.259C136.259 17.1187 136.142 16.612 135.907 16.324C135.683 16.036 135.315 15.892 134.803 15.892C134.302 15.892 133.918 16.0413 133.651 16.34C133.395 16.6387 133.267 17.14 133.267 17.844Z" fill="#2995E2"/>
</svg>
