<svg width="79" height="48" viewBox="0 0 79 48" fill="none" xmlns="http://www.w3.org/2000/svg">
<g clip-path="url(#clip0_3_1388)">
<path d="M69.9703 0.43573H60.8108V6.81912H69.9703V0.43573Z" fill="#F5EFD9"/>
<path d="M60.8531 46.7653V0" stroke="#56303C" stroke-width="1.79893" stroke-miterlimit="10"/>
<path d="M67.0769 2.86095V4.26211H66.1466V5.19448H64.7488V4.26211H63.8181V2.86095H64.7488V1.92856H66.1466V2.86095H67.0769Z" fill="#FFAFB1"/>
<path d="M63.396 47.0802H35.7355V17.6107H55.4669L63.396 47.0802Z" fill="#EFDFC0"/>
<path d="M43.664 47.0805H0L6.60786 17.611L21.1718 10.9885L35.7356 17.611L43.664 47.0805Z" fill="#F5EFD9"/>
<path d="M35.7356 17.611L21.1718 10.9885H40.9032L55.4669 17.611H35.7356Z" fill="#EFDFC0"/>
<path d="M21.1718 10.9885L35.7356 17.611H55.4669" stroke="#F5EFD9" stroke-width="1.43981" stroke-miterlimit="10"/>
<path d="M29.2327 10.9885L43.7966 17.611" stroke="#F5EFD9" stroke-width="1.43981" stroke-miterlimit="10"/>
<path d="M35.9725 10.9885L50.5363 17.611" stroke="#F5EFD9" stroke-width="1.43981" stroke-miterlimit="10"/>
<path d="M30.0159 26.7845H11.5343V47.0794H30.0159V26.7845Z" fill="#B4702F"/>
<path d="M11.5783 23.3829H29.754V26.7843H11.5783C11.146 26.7843 10.7315 26.6122 10.4258 26.3059C10.1202 25.9996 9.94849 25.5841 9.94849 25.151V25.0154C9.94873 24.5823 10.1205 24.1671 10.4261 23.8609C10.7318 23.5548 11.1462 23.3829 11.5783 23.3829Z" fill="white"/>
<path d="M29.7384 26.7843C30.6028 26.7843 31.3036 26.0229 31.3036 25.0836C31.3036 24.1443 30.6028 23.3829 29.7384 23.3829C28.874 23.3829 28.1732 24.1443 28.1732 25.0836C28.1732 26.0229 28.874 26.7843 29.7384 26.7843Z" fill="#A0D6FF"/>
<path d="M13.5844 26.7845H30.0158V37.2834L13.5844 26.7845Z" fill="#56303C"/>
<path d="M26.9714 26.7845V30.4735" stroke="#F5EFD9" stroke-width="1.26025" stroke-miterlimit="10"/>
<path d="M13.5636 26.7845V28.8634" stroke="#F5EFD9" stroke-width="1.26025" stroke-miterlimit="10"/>
<path d="M48.7197 25.513H68.609L79 47.103H59.1117L48.7197 25.513Z" fill="#F5EFD9"/>
<path d="M38.0148 47.103H59.1118L48.7196 25.513H48.6343L38.0148 47.103Z" fill="#A0D6FF"/>
<path d="M48.7661 25.513L37.8822 47.103" stroke="white" stroke-width="1.43981" stroke-miterlimit="10"/>
<path d="M45.3988 47.1031H52.8683C50.8617 46.0637 49.1415 44.5455 47.859 42.6823C46.5765 40.8191 45.7712 38.6683 45.5142 36.4195L45.3988 35.4094V47.1031Z" fill="#56303C"/>
<path d="M52.6427 47.1029C48.5689 44.992 45.7512 40.2205 45.2344 35.6544" stroke="white" stroke-width="1.79893" stroke-miterlimit="10" stroke-linecap="round"/>
<path d="M52.6426 47.1029V35.916" stroke="#56303C" stroke-width="1.79893" stroke-miterlimit="10"/>
</g>
<defs>
<clipPath id="clip0_3_1388">
<rect width="79" height="48" fill="white"/>
</clipPath>
</defs>
</svg>
