<svg width="260" height="154" viewBox="0 0 260 154" fill="none" xmlns="http://www.w3.org/2000/svg">
<g clip-path="url(#clip0_3_1413)">
<path d="M33.199 153.163C40.1218 153.163 45.7338 145.341 45.7338 135.693C45.7338 126.045 40.1218 118.224 33.199 118.224C26.2762 118.224 20.6642 126.045 20.6642 135.693C20.6642 145.341 26.2762 153.163 33.199 153.163Z" fill="#F5EFD9"/>
<path d="M53.8247 153.213H0C0 146.963 5.12981 141.902 11.4571 141.902C12.7756 141.901 14.0847 142.125 15.3284 142.564C18.7722 135.439 25.5617 130.592 33.3762 130.592C44.6692 130.592 53.8247 140.719 53.8247 153.213Z" fill="#EFDFC0"/>
<path d="M250.994 153.289H199.243C199.243 146.407 204.563 140.591 211.866 138.703C215.229 127.778 222.253 120.26 230.373 120.26C241.761 120.26 250.994 135.048 250.994 153.289Z" fill="#F5EFD9"/>
<path d="M15.3812 133.174V152.475" stroke="#D9AF00" stroke-width="1.26025" stroke-miterlimit="10" stroke-linecap="round"/>
<path d="M12.1409 139.849L15.3811 144.067" stroke="#D9AF00" stroke-width="1.26025" stroke-miterlimit="10" stroke-linecap="round"/>
<path d="M15.3812 152.475L21.2954 146.759" stroke="#D9AF00" stroke-width="1.26025" stroke-miterlimit="10" stroke-linecap="round"/>
<path d="M15.3811 131.942C17.1707 131.942 18.6214 130.485 18.6214 128.689C18.6214 126.892 17.1707 125.436 15.3811 125.436C13.5916 125.436 12.1409 126.892 12.1409 128.689C12.1409 130.485 13.5916 131.942 15.3811 131.942Z" fill="#F5EFD9"/>
<path d="M15.3812 125.436V131.942" stroke="#D9AF00" stroke-width="0.718242" stroke-miterlimit="10" stroke-linecap="round"/>
<path d="M18.6214 128.689H12.1409" stroke="#D9AF00" stroke-width="0.718242" stroke-miterlimit="10" stroke-linecap="round"/>
<path d="M17.6718 126.389L13.0892 130.989" stroke="#D9AF00" stroke-width="0.718242" stroke-miterlimit="10" stroke-linecap="round"/>
<path d="M17.6718 130.989L13.0892 126.389" stroke="#D9AF00" stroke-width="0.718242" stroke-miterlimit="10" stroke-linecap="round"/>
<path d="M15.381 129.892C16.043 129.892 16.5797 129.353 16.5797 128.689C16.5797 128.024 16.043 127.485 15.381 127.485C14.719 127.485 14.1824 128.024 14.1824 128.689C14.1824 129.353 14.719 129.892 15.381 129.892Z" fill="white"/>
<path d="M15.3811 129.339C15.7389 129.339 16.0289 129.048 16.0289 128.689C16.0289 128.33 15.7389 128.038 15.3811 128.038C15.0233 128.038 14.7333 128.33 14.7333 128.689C14.7333 129.048 15.0233 129.339 15.3811 129.339Z" fill="#D9AF00"/>
<path d="M9.40345 140.107C11.193 140.107 12.6437 138.651 12.6437 136.855C12.6437 135.058 11.193 133.602 9.40345 133.602C7.61391 133.602 6.16321 135.058 6.16321 136.855C6.16321 138.651 7.61391 140.107 9.40345 140.107Z" fill="#F5EFD9"/>
<path d="M9.40344 133.602V140.107" stroke="#D9AF00" stroke-width="0.718242" stroke-miterlimit="10" stroke-linecap="round"/>
<path d="M12.6437 136.854H6.16321" stroke="#D9AF00" stroke-width="0.718242" stroke-miterlimit="10" stroke-linecap="round"/>
<path d="M11.6943 134.555L7.11169 139.154" stroke="#D9AF00" stroke-width="0.718242" stroke-miterlimit="10" stroke-linecap="round"/>
<path d="M11.6943 139.154L7.11169 134.555" stroke="#D9AF00" stroke-width="0.718242" stroke-miterlimit="10" stroke-linecap="round"/>
<path d="M9.40346 138.058C10.0655 138.058 10.6021 137.519 10.6021 136.855C10.6021 136.19 10.0655 135.651 9.40346 135.651C8.74147 135.651 8.20483 136.19 8.20483 136.855C8.20483 137.519 8.74147 138.058 9.40346 138.058Z" fill="white"/>
<path d="M9.40345 137.505C9.76122 137.505 10.0513 137.213 10.0513 136.854C10.0513 136.495 9.76122 136.204 9.40345 136.204C9.04568 136.204 8.75562 136.495 8.75562 136.854C8.75562 137.213 9.04568 137.505 9.40345 137.505Z" fill="#D9AF00"/>
<path d="M24.3871 146.872C26.1767 146.872 27.6274 145.415 27.6274 143.619C27.6274 141.822 26.1767 140.366 24.3871 140.366C22.5976 140.366 21.1469 141.822 21.1469 143.619C21.1469 145.415 22.5976 146.872 24.3871 146.872Z" fill="white"/>
<path d="M24.3872 140.366V146.872" stroke="#D9AF00" stroke-width="0.718242" stroke-miterlimit="10" stroke-linecap="round"/>
<path d="M27.6274 143.619H21.1469" stroke="#D9AF00" stroke-width="0.718242" stroke-miterlimit="10" stroke-linecap="round"/>
<path d="M26.6789 141.317L22.0963 145.918" stroke="#D9AF00" stroke-width="0.718242" stroke-miterlimit="10" stroke-linecap="round"/>
<path d="M26.6789 145.918L22.0963 141.317" stroke="#D9AF00" stroke-width="0.718242" stroke-miterlimit="10" stroke-linecap="round"/>
<path d="M24.3871 144.821C25.0491 144.821 25.5857 144.283 25.5857 143.618C25.5857 142.954 25.0491 142.415 24.3871 142.415C23.7251 142.415 23.1885 142.954 23.1885 143.618C23.1885 144.283 23.7251 144.821 24.3871 144.821Z" fill="white"/>
<path d="M24.3871 144.269C24.7449 144.269 25.0349 143.978 25.0349 143.618C25.0349 143.259 24.7449 142.968 24.3871 142.968C24.0293 142.968 23.7393 143.259 23.7393 143.618C23.7393 143.978 24.0293 144.269 24.3871 144.269Z" fill="#D9AF00"/>
<path d="M226.633 140.433V153.027" stroke="#D9AF00" stroke-width="1.26025" stroke-miterlimit="10" stroke-linecap="round"/>
<path d="M229.873 145.448L226.633 149.667" stroke="#D9AF00" stroke-width="1.26025" stroke-miterlimit="10" stroke-linecap="round"/>
<path d="M226.633 139.202C228.423 139.202 229.874 137.746 229.874 135.949C229.874 134.153 228.423 132.697 226.633 132.697C224.843 132.697 223.393 134.153 223.393 135.949C223.393 137.746 224.843 139.202 226.633 139.202Z" fill="white"/>
<path d="M226.633 132.697V139.202" stroke="#D9AF00" stroke-width="0.718242" stroke-miterlimit="10" stroke-linecap="round"/>
<path d="M223.393 135.949H229.874" stroke="#D9AF00" stroke-width="0.718242" stroke-miterlimit="10" stroke-linecap="round"/>
<path d="M224.341 133.649L228.923 138.249" stroke="#D9AF00" stroke-width="0.718242" stroke-miterlimit="10" stroke-linecap="round"/>
<path d="M224.341 138.249L228.923 133.649" stroke="#D9AF00" stroke-width="0.718242" stroke-miterlimit="10" stroke-linecap="round"/>
<path d="M226.633 137.153C227.295 137.153 227.832 136.614 227.832 135.949C227.832 135.285 227.295 134.746 226.633 134.746C225.971 134.746 225.434 135.285 225.434 135.949C225.434 136.614 225.971 137.153 226.633 137.153Z" fill="white"/>
<path d="M226.633 136.599C226.991 136.599 227.281 136.308 227.281 135.949C227.281 135.59 226.991 135.299 226.633 135.299C226.275 135.299 225.985 135.59 225.985 135.949C225.985 136.308 226.275 136.599 226.633 136.599Z" fill="#D9AF00"/>
<path d="M232.611 145.707C234.4 145.707 235.851 144.251 235.851 142.455C235.851 140.658 234.4 139.202 232.611 139.202C230.821 139.202 229.37 140.658 229.37 142.455C229.37 144.251 230.821 145.707 232.611 145.707Z" fill="white"/>
<path d="M232.611 139.202V145.707" stroke="#D9AF00" stroke-width="0.718242" stroke-miterlimit="10" stroke-linecap="round"/>
<path d="M229.37 142.455H235.851" stroke="#D9AF00" stroke-width="0.718242" stroke-miterlimit="10" stroke-linecap="round"/>
<path d="M230.319 140.154L234.901 144.754" stroke="#D9AF00" stroke-width="0.718242" stroke-miterlimit="10" stroke-linecap="round"/>
<path d="M230.319 144.754L234.901 140.154" stroke="#D9AF00" stroke-width="0.718242" stroke-miterlimit="10" stroke-linecap="round"/>
<path d="M232.611 143.658C233.273 143.658 233.809 143.119 233.809 142.455C233.809 141.791 233.273 141.252 232.611 141.252C231.949 141.252 231.412 141.791 231.412 142.455C231.412 143.119 231.949 143.658 232.611 143.658Z" fill="white"/>
<path d="M232.611 143.105C232.968 143.105 233.259 142.814 233.259 142.455C233.259 142.096 232.968 141.804 232.611 141.804C232.253 141.804 231.963 142.096 231.963 142.455C231.963 142.814 232.253 143.105 232.611 143.105Z" fill="#D9AF00"/>
<path d="M259.89 153.289H232.175C232.175 150.223 235.87 147.737 240.43 147.737C241.94 147.725 243.436 148.016 244.833 148.593C245.831 147.136 247.268 146.038 248.932 145.46C250.597 144.881 252.402 144.851 254.084 145.376C255.766 145.901 257.237 146.952 258.282 148.375C259.326 149.799 259.89 151.521 259.89 153.289Z" fill="#EFDFC0"/>
<path d="M171.44 153.214H83.5249C82.2839 153.214 81.0552 152.969 79.9086 152.492C78.762 152.015 77.7202 151.317 76.8426 150.436C75.9651 149.555 75.269 148.509 74.794 147.359C74.3193 146.207 74.0748 144.974 74.0748 143.728V63.1129C74.0752 61.8014 74.4198 60.513 75.0741 59.3779C75.7288 58.2424 76.6698 57.3007 77.8023 56.6471L123.784 30.1246C124.91 29.4754 126.186 29.1338 127.485 29.1338C128.783 29.1338 130.059 29.4754 131.186 30.1246L177.167 56.6471C178.3 57.3003 179.241 58.242 179.896 59.3775C180.55 60.5126 180.894 61.8014 180.893 63.1129V143.728C180.893 144.974 180.649 146.208 180.174 147.359C179.699 148.51 179.002 149.556 178.124 150.437C177.246 151.318 176.204 152.016 175.057 152.493C173.91 152.969 172.681 153.214 171.44 153.214Z" fill="#EFDFC0"/>
<path d="M133.503 58.0855C137.173 54.4018 137.173 48.4294 133.503 44.7457C129.834 41.062 123.885 41.062 120.215 44.7457C116.546 48.4294 116.546 54.4018 120.215 58.0855C123.885 61.7692 129.834 61.7692 133.503 58.0855Z" fill="#F5EFD9"/>
<path d="M126.86 41.9835V60.8495" stroke="#EFDFC0" stroke-width="2.70006" stroke-miterlimit="10"/>
<path d="M117.281 51.4154H136.073" stroke="#EFDFC0" stroke-width="2.70006" stroke-miterlimit="10"/>
<path d="M127.564 71.1845C133.105 71.1845 138.418 73.394 142.335 77.3264C146.253 81.2592 148.454 86.5928 148.454 92.1545V153.17H106.674V92.1556C106.674 89.4021 107.214 86.6752 108.264 84.131C109.314 81.5867 110.853 79.2749 112.792 77.3279C114.732 75.3805 117.035 73.8358 119.569 72.782C122.103 71.7282 124.82 71.1856 127.563 71.1856L127.564 71.1845Z" fill="#F5EFD9"/>
<path d="M133.861 4.64512L128.121 10.409L122.379 4.64512C122.127 4.39287 121.927 4.09311 121.791 3.76306C121.654 3.43303 121.584 3.07919 121.584 2.72183C121.584 2.36448 121.654 2.01063 121.791 1.68059C121.927 1.35055 122.127 1.0508 122.379 0.79853C122.631 0.545565 122.929 0.344864 123.258 0.207926C123.587 0.0709875 123.939 0.000502571 124.295 0.000502571C124.651 0.000502571 125.003 0.0709875 125.332 0.207926C125.661 0.344864 125.96 0.545565 126.211 0.79853L128.127 2.72183L130.043 0.79853C130.294 0.54542 130.593 0.344595 130.922 0.207566C131.25 0.0705378 131.603 0 131.959 0C132.315 0 132.667 0.0705378 132.996 0.207566C133.325 0.344595 133.623 0.54542 133.875 0.79853C134.126 1.05167 134.325 1.35211 134.46 1.68262C134.596 2.01313 134.665 2.36722 134.663 2.72458C134.662 3.08193 134.591 3.43553 134.453 3.76512C134.316 4.09467 134.115 4.39374 133.861 4.64512Z" fill="#FFAFB1"/>
<path d="M158.595 61.2125L133.456 61.1019C130.291 61.0885 128.646 57.3115 130.782 54.9711L132.099 53.5287C132.696 52.5899 132.972 51.4819 132.885 50.3717C132.799 49.2616 132.355 48.2096 131.62 47.3753L130.902 46.5521C129.929 45.4459 129.412 44.0093 129.457 42.5347C129.501 41.0598 130.103 39.6572 131.141 38.6124C131.991 37.7546 132.512 36.6224 132.61 35.4163C132.709 34.2103 132.38 33.0081 131.68 32.0226L131.619 31.936C130.174 29.9007 129.396 27.4636 129.395 24.9641V22.9807C129.395 15.047 136.98 9.34325 144.562 11.561C148.613 12.7519 152.17 15.2289 154.7 18.6207C157.23 22.0124 158.596 26.1361 158.595 30.3734V61.2125Z" fill="#56303C"/>
<path d="M138.538 61.4568C135.743 61.4446 134.289 58.109 136.176 56.0401L137.334 54.7694C137.861 53.9409 138.105 52.9623 138.029 51.9822C137.953 51.0018 137.561 50.0731 136.913 49.3364L136.273 48.6091C135.414 47.6326 134.957 46.3645 134.995 45.062C135.034 43.7595 135.565 42.521 136.481 41.5974" stroke="#F5EFD9" stroke-width="1.08069" stroke-miterlimit="10" stroke-linecap="round"/>
<path d="M139.355 54.7691C139.882 53.9405 140.126 52.9619 140.05 51.9819C139.974 51.0015 139.583 50.0728 138.934 49.3357" stroke="#F5EFD9" stroke-width="1.08069" stroke-miterlimit="10" stroke-linecap="round"/>
<path d="M217.496 129.151V147.489H208.755C208.746 147.425 208.735 147.369 208.723 147.299L205.274 129.155L217.496 129.151Z" fill="#B4702F"/>
<path d="M217.496 147.489V151.589C217.496 151.994 217.337 152.382 217.052 152.668C216.767 152.953 216.381 153.114 215.978 153.115H204.92C204.871 153.114 204.824 153.096 204.788 153.062C204.752 153.028 204.731 152.982 204.727 152.933C204.723 152.884 204.738 152.836 204.768 152.797C204.799 152.759 204.843 152.733 204.891 152.725L206.687 152.451C207.403 152.341 208.048 151.953 208.482 151.37C208.916 150.788 209.106 150.057 209.009 149.337L208.76 147.489H217.496Z" fill="#56303C"/>
<path d="M204.713 153.205H217.496" stroke="#D9AF00" stroke-width="1.97849" stroke-miterlimit="10" stroke-linecap="round"/>
<path d="M208.786 150.013H207.879C207.638 150.013 207.408 149.918 207.238 149.747C207.068 149.576 206.972 149.345 206.972 149.103C206.972 148.984 206.996 148.866 207.041 148.755C207.086 148.644 207.153 148.544 207.238 148.459C207.321 148.375 207.422 148.307 207.532 148.262C207.642 148.216 207.76 148.192 207.879 148.192C208.119 148.192 208.35 148.288 208.521 148.459C208.691 148.63 208.786 148.862 208.786 149.103V150.013Z" stroke="#D9AF00" stroke-width="1.26025" stroke-miterlimit="10"/>
<path d="M208.844 150.013H209.752C209.992 150.013 210.223 149.918 210.393 149.747C210.563 149.576 210.658 149.345 210.658 149.103C210.658 148.984 210.635 148.866 210.59 148.755C210.544 148.644 210.477 148.544 210.393 148.459C210.309 148.375 210.209 148.307 210.099 148.262C209.989 148.216 209.871 148.192 209.752 148.192C209.511 148.192 209.28 148.288 209.11 148.459C208.94 148.63 208.844 148.862 208.844 149.103V150.013Z" stroke="#D9AF00" stroke-width="1.26025" stroke-miterlimit="10"/>
<path d="M205.273 129.151H217.496V132.148L205.273 129.151Z" fill="#56303C"/>
<path d="M198.91 129.151L196.401 147.485H185.911L185.943 129.151H198.91Z" fill="#B4702F"/>
<path d="M196.401 147.489L195.903 151.165C195.828 151.718 195.557 152.225 195.139 152.592C194.72 152.959 194.184 153.162 193.628 153.163H180.316C180.269 153.164 180.224 153.148 180.188 153.117C180.153 153.085 180.131 153.042 180.127 152.995C180.122 152.948 180.136 152.902 180.164 152.865C180.193 152.827 180.235 152.802 180.281 152.795L182.209 152.434C183.206 152.246 184.111 151.726 184.777 150.958C185.443 150.19 185.832 149.219 185.882 148.202L185.916 147.494L196.401 147.489Z" fill="#56303C"/>
<path d="M180.056 153.205H195.79" stroke="#D9AF00" stroke-width="1.97849" stroke-miterlimit="10" stroke-linecap="round"/>
<path d="M184.581 148.197C184.822 148.197 185.053 148.293 185.223 148.464C185.393 148.635 185.489 148.866 185.489 149.108V150.013H184.581C184.341 150.013 184.11 149.917 183.94 149.746C183.77 149.575 183.674 149.343 183.674 149.102C183.675 148.861 183.772 148.631 183.942 148.461C184.112 148.292 184.342 148.197 184.581 148.197Z" stroke="#D9AF00" stroke-width="1.26025" stroke-miterlimit="10"/>
<path d="M185.546 150.013H186.453C186.572 150.014 186.69 149.99 186.8 149.945C186.91 149.899 187.011 149.832 187.095 149.747C187.179 149.663 187.246 149.563 187.291 149.452C187.337 149.342 187.361 149.223 187.361 149.103C187.361 148.862 187.265 148.63 187.095 148.459C186.925 148.288 186.694 148.192 186.453 148.192C186.334 148.192 186.216 148.216 186.106 148.262C185.996 148.307 185.896 148.375 185.811 148.459C185.728 148.544 185.661 148.644 185.615 148.755C185.57 148.866 185.546 148.984 185.546 149.103V150.013Z" stroke="#D9AF00" stroke-width="1.26025" stroke-miterlimit="10"/>
<path d="M185.911 129.151H198.91L198.6 131.415L185.911 129.151Z" fill="#56303C"/>
<path d="M219.576 61.1156V129.152H185.912L185.997 96.4802V55.4779C207.111 56.026 208.184 43.0292 208.184 43.0292L209.228 43.6015C212.361 45.319 214.975 47.852 216.795 50.9335C218.616 54.0153 219.577 57.5323 219.576 61.1156Z" fill="#D9AF00"/>
<path d="M199.244 129.151V68.243" stroke="#56303C" stroke-width="1.83551" stroke-miterlimit="10"/>
<path d="M215.254 56.5794C214.468 56.8733 213.632 57.0089 212.794 56.9785C211.956 56.9482 211.132 56.7522 210.37 56.4019C209.607 56.052 208.92 55.5542 208.349 54.9375C207.779 54.3211 207.334 53.5974 207.042 52.8086" stroke="#56303C" stroke-width="1.83551" stroke-miterlimit="10"/>
<path d="M215.807 58.0482C213.829 58.7875 211.639 58.7076 209.719 57.8263C207.799 56.9449 206.307 55.3341 205.57 53.3483" stroke="#56303C" stroke-width="1.83551" stroke-miterlimit="10"/>
<path d="M203.434 38.7114C205.236 40.0165 207.358 40.8056 209.572 40.9954C211.421 41.1552 212.565 42.6999 212.565 44.288C212.566 44.7522 212.466 45.2109 212.273 45.6328C212.081 46.0546 211.799 46.4295 211.448 46.7317C207.785 49.9495 203.484 52.3517 198.829 53.7807V67.7462H191.511L189.225 55.4768C188.473 55.4971 186.786 55.4971 185.999 55.4768L167.319 44.057C167.154 43.9565 166.97 43.8929 166.779 43.8701C166.588 43.8477 166.394 43.8672 166.211 43.9268C166.028 43.9869 165.86 44.0859 165.719 44.2168C165.578 44.348 165.466 44.5085 165.392 44.6871L152.025 77.0249C151.932 77.2509 151.755 77.4309 151.531 77.527C151.307 77.6232 151.055 77.6275 150.828 77.5393L145.249 75.3757L155.256 30.8175C154.998 28.0948 155.646 25.363 157.098 23.0486C157.803 21.5401 158.805 20.1902 160.042 19.0796C161.28 17.969 162.728 17.1206 164.3 16.5853C165.872 16.0501 167.536 15.8388 169.191 15.9644C170.846 16.0899 172.46 16.5496 173.934 17.3159L203.434 38.7114Z" fill="#FFAFB1"/>
<mask id="mask0_3_1413" style="mask-type:alpha" maskUnits="userSpaceOnUse" x="145" y="15" width="68" height="63">
<path d="M203.434 38.7114C205.236 40.0165 207.358 40.8056 209.572 40.9954C211.421 41.1552 212.565 42.6999 212.565 44.288C212.566 44.7522 212.466 45.2109 212.273 45.6328C212.081 46.0546 211.799 46.4295 211.448 46.7317C207.785 49.9495 203.484 52.3517 198.829 53.7807V67.7462H191.511L189.225 55.4768C188.473 55.4971 186.786 55.4971 185.999 55.4768L167.319 44.057C167.154 43.9565 166.97 43.8929 166.779 43.8701C166.588 43.8477 166.394 43.8672 166.211 43.9268C166.028 43.9869 165.86 44.0859 165.719 44.2171C165.578 44.348 165.466 44.5085 165.392 44.6871L152.025 77.0249C151.932 77.2509 151.755 77.4309 151.531 77.527C151.307 77.6232 151.055 77.6275 150.828 77.5393L145.249 75.3757L155.256 30.8175C154.998 28.0948 155.646 25.363 157.098 23.0486C157.803 21.5401 158.805 20.1902 160.042 19.0796C161.28 17.969 162.728 17.1206 164.3 16.5853C165.872 16.0501 167.536 15.8388 169.191 15.9644C170.846 16.0899 172.46 16.5496 173.934 17.3159L203.434 38.7114Z" fill="#FFAFB1"/>
</mask>
<g mask="url(#mask0_3_1413)">
<path d="M153.303 82.9152V12.729" stroke="#D9AF00" stroke-width="0.901127" stroke-miterlimit="10"/>
<path d="M149.894 82.9152V12.729" stroke="#D9AF00" stroke-width="0.901127" stroke-miterlimit="10"/>
<path d="M156.814 82.9152V12.729" stroke="#D9AF00" stroke-width="0.901127" stroke-miterlimit="10"/>
<path d="M160.326 82.9152V12.729" stroke="#D9AF00" stroke-width="0.901127" stroke-miterlimit="10"/>
<path d="M163.838 82.9152V12.729" stroke="#D9AF00" stroke-width="0.901127" stroke-miterlimit="10"/>
<path d="M167.35 82.9152V12.729" stroke="#D9AF00" stroke-width="0.901127" stroke-miterlimit="10"/>
<path d="M170.862 82.9152V12.729" stroke="#D9AF00" stroke-width="0.901127" stroke-miterlimit="10"/>
<path d="M174.373 82.9152V12.729" stroke="#D9AF00" stroke-width="0.901127" stroke-miterlimit="10"/>
<path d="M146.431 82.9152V12.729" stroke="#D9AF00" stroke-width="0.901127" stroke-miterlimit="10"/>
<path d="M177.786 43.3239H135.84" stroke="#D9AF00" stroke-width="0.901127" stroke-miterlimit="10"/>
<path d="M177.786 39.7981H135.84" stroke="#D9AF00" stroke-width="0.901127" stroke-miterlimit="10"/>
<path d="M177.786 36.2724H135.84" stroke="#D9AF00" stroke-width="0.901127" stroke-miterlimit="10"/>
<path d="M177.786 32.748H135.84" stroke="#D9AF00" stroke-width="0.901127" stroke-miterlimit="10"/>
<path d="M177.786 29.2223H135.84" stroke="#D9AF00" stroke-width="0.901127" stroke-miterlimit="10"/>
<path d="M177.786 25.6966H135.84" stroke="#D9AF00" stroke-width="0.901127" stroke-miterlimit="10"/>
<path d="M177.786 22.1714H135.84" stroke="#D9AF00" stroke-width="0.901127" stroke-miterlimit="10"/>
<path d="M177.786 18.6458H136.038" stroke="#D9AF00" stroke-width="0.901127" stroke-miterlimit="10"/>
<path d="M177.786 71.5489H135.84" stroke="#D9AF00" stroke-width="0.901127" stroke-miterlimit="10"/>
<path d="M177.786 75.11H135.84" stroke="#D9AF00" stroke-width="0.901127" stroke-miterlimit="10"/>
<path d="M177.786 68.0231H135.84" stroke="#D9AF00" stroke-width="0.901127" stroke-miterlimit="10"/>
<path d="M177.786 64.4974H135.84" stroke="#D9AF00" stroke-width="0.901127" stroke-miterlimit="10"/>
<path d="M177.786 60.9717H135.84" stroke="#D9AF00" stroke-width="0.901127" stroke-miterlimit="10"/>
<path d="M177.786 57.4467H135.84" stroke="#D9AF00" stroke-width="0.901127" stroke-miterlimit="10"/>
<path d="M177.786 53.921H135.84" stroke="#D9AF00" stroke-width="0.901127" stroke-miterlimit="10"/>
<path d="M177.786 50.3959H135.84" stroke="#D9AF00" stroke-width="0.901127" stroke-miterlimit="10"/>
<path d="M177.786 46.8702H136.038" stroke="#D9AF00" stroke-width="0.901127" stroke-miterlimit="10"/>
<path d="M191.939 82.9152V12.729" stroke="#D9AF00" stroke-width="0.901127" stroke-miterlimit="10"/>
<path d="M188.532 82.9152V12.729" stroke="#D9AF00" stroke-width="0.901127" stroke-miterlimit="10"/>
<path d="M195.452 82.9152V12.729" stroke="#D9AF00" stroke-width="0.901127" stroke-miterlimit="10"/>
<path d="M198.964 82.9152V12.729" stroke="#D9AF00" stroke-width="0.901127" stroke-miterlimit="10"/>
<path d="M202.476 82.9152V12.729" stroke="#D9AF00" stroke-width="0.901127" stroke-miterlimit="10"/>
<path d="M205.987 82.9152V12.729" stroke="#D9AF00" stroke-width="0.901127" stroke-miterlimit="10"/>
<path d="M209.499 82.9152V12.729" stroke="#D9AF00" stroke-width="0.901127" stroke-miterlimit="10"/>
<path d="M178.045 82.9152V12.729" stroke="#D9AF00" stroke-width="0.901127" stroke-miterlimit="10"/>
<path d="M181.557 82.9152V12.729" stroke="#D9AF00" stroke-width="0.901127" stroke-miterlimit="10"/>
<path d="M185.069 82.9152V12.729" stroke="#D9AF00" stroke-width="0.901127" stroke-miterlimit="10"/>
<path d="M216.424 43.3239H174.477" stroke="#D9AF00" stroke-width="0.901127" stroke-miterlimit="10"/>
<path d="M216.424 39.7981H174.477" stroke="#D9AF00" stroke-width="0.901127" stroke-miterlimit="10"/>
<path d="M216.424 36.2724H174.477" stroke="#D9AF00" stroke-width="0.901127" stroke-miterlimit="10"/>
<path d="M216.424 32.748H174.477" stroke="#D9AF00" stroke-width="0.901127" stroke-miterlimit="10"/>
<path d="M216.424 29.2223H174.477" stroke="#D9AF00" stroke-width="0.901127" stroke-miterlimit="10"/>
<path d="M216.424 25.6966H174.477" stroke="#D9AF00" stroke-width="0.901127" stroke-miterlimit="10"/>
<path d="M216.424 22.1714H174.477" stroke="#D9AF00" stroke-width="0.901127" stroke-miterlimit="10"/>
<path d="M216.423 18.6458H174.675" stroke="#D9AF00" stroke-width="0.901127" stroke-miterlimit="10"/>
<path d="M216.424 71.5489H174.477" stroke="#D9AF00" stroke-width="0.901127" stroke-miterlimit="10"/>
<path d="M216.424 75.11H174.477" stroke="#D9AF00" stroke-width="0.901127" stroke-miterlimit="10"/>
<path d="M216.424 68.0231H174.477" stroke="#D9AF00" stroke-width="0.901127" stroke-miterlimit="10"/>
<path d="M216.424 64.4974H174.477" stroke="#D9AF00" stroke-width="0.901127" stroke-miterlimit="10"/>
<path d="M216.424 60.9717H174.477" stroke="#D9AF00" stroke-width="0.901127" stroke-miterlimit="10"/>
<path d="M216.424 57.4467H174.477" stroke="#D9AF00" stroke-width="0.901127" stroke-miterlimit="10"/>
<path d="M216.424 53.921H174.477" stroke="#D9AF00" stroke-width="0.901127" stroke-miterlimit="10"/>
<path d="M216.424 50.3959H174.477" stroke="#D9AF00" stroke-width="0.901127" stroke-miterlimit="10"/>
<path d="M216.423 46.8702H174.675" stroke="#D9AF00" stroke-width="0.901127" stroke-miterlimit="10"/>
</g>
<path d="M160.055 18.3389V26.4011C160.055 27.0191 159.824 27.6144 159.407 28.0689C158.99 28.5234 158.418 28.8039 157.804 28.8545L155.753 29.0192L154.352 34.8721L151.642 31.8489C151.082 31.2202 150.867 30.0602 151.109 28.8113L154.128 19.6083C154.295 19.1106 154.624 18.6838 155.061 18.3966C155.499 18.1094 156.021 17.9786 156.542 18.0252L160.055 18.3389Z" fill="white"/>
<path d="M151.956 77.1923L145.181 75.4217L146.174 71.2601H154.407L151.956 77.1923Z" fill="white"/>
<path d="M191.51 68.299H198.827V64.3011H190.977L191.51 68.299Z" fill="white"/>
<path d="M199.195 54.8374V42.6674C199.195 41.2655 198.889 39.8806 198.299 38.6096C197.71 37.3385 196.851 36.2121 195.782 35.3097" stroke="#56303C" stroke-width="1.83551" stroke-miterlimit="10" stroke-linecap="round"/>
<path d="M175.245 31.8121L187.07 42.2195L187.686 49.1687" stroke="#56303C" stroke-width="1.83551" stroke-miterlimit="10" stroke-linecap="round"/>
<path d="M153.915 28.993L157.768 29.023C158.089 29.0257 158.406 28.9647 158.703 28.8435C159 28.7223 159.269 28.5434 159.497 28.3169C159.724 28.0905 159.905 27.8211 160.028 27.5243C160.151 27.2275 160.215 26.9092 160.215 26.5876V20.1782" stroke="#56303C" stroke-width="1.62934" stroke-miterlimit="10" stroke-linecap="round"/>
<path d="M169.06 43.5093C166.546 44.8975 163.49 44.1716 162.235 41.8876" stroke="white" stroke-width="1.97849" stroke-miterlimit="10" stroke-linecap="round"/>
<path d="M151.11 28.8096L146.788 27.5306L146.418 28.8168C146.276 29.3101 146.021 29.7631 145.673 30.1395C145.325 30.5159 144.894 30.8052 144.415 30.9842C143.935 31.1633 143.421 31.2271 142.912 31.1705C142.404 31.1139 141.916 30.9385 141.487 30.6584L140.289 29.877L138.03 30.2616C137.955 30.2744 137.877 30.2721 137.803 30.2547C137.728 30.2375 137.657 30.2056 137.595 30.1609C137.533 30.1162 137.48 30.0597 137.44 29.9945C137.399 29.9292 137.372 29.8567 137.359 29.7808L137.015 27.7373L134.894 26.3525C134.04 25.7959 133.334 25.0404 132.834 24.1504C136.612 24.4064 140.525 22.8618 143.531 19.9203L144.979 22.6346C146.881 26.2023 152.114 25.7455 153.375 21.9013L151.11 28.8096Z" fill="#B4702F"/>
<path d="M138.334 27.295C138.455 27.2938 138.574 27.2564 138.675 27.1875C138.775 27.1187 138.853 27.0214 138.899 26.908C138.944 26.7947 138.955 26.6704 138.93 26.5507C138.905 26.4311 138.846 26.3216 138.759 26.2361C138.672 26.1505 138.562 26.0927 138.442 26.07C138.322 26.0474 138.199 26.0608 138.087 26.1087C137.975 26.1565 137.88 26.2367 137.813 26.3389C137.746 26.4412 137.711 26.561 137.712 26.6832C137.713 26.7643 137.73 26.8445 137.761 26.9191C137.793 26.9938 137.839 27.0615 137.897 27.1183C137.954 27.1751 138.023 27.22 138.098 27.2503C138.173 27.2806 138.253 27.2958 138.334 27.295Z" fill="#56303C"/>
<path d="M141.122 29.2876C141.122 29.5745 141.008 29.8497 140.806 30.0526C140.604 30.2554 140.33 30.3694 140.044 30.3694" stroke="#56303C" stroke-width="1.79893" stroke-miterlimit="10" stroke-linecap="round"/>
<path d="M142.597 87.4366C142.574 87.5588 142.588 87.6849 142.637 87.7992C142.687 87.9134 142.77 88.0099 142.874 88.0761C142.979 88.1426 143.102 88.1759 143.225 88.1715C143.349 88.1672 143.469 88.1252 143.569 88.0519L147.264 86.0647C147.899 85.6443 149.146 83.7594 149.447 83.0595L152.535 75.9397L147.199 74.8747C146.604 74.7565 145.987 74.8173 145.426 75.0501C144.865 75.2829 144.386 75.6769 144.048 76.1827L140.977 80.7853C140.927 80.8572 140.901 80.9433 140.903 81.0308C140.906 81.1186 140.936 81.2032 140.989 81.2722C141.042 81.3416 141.117 81.3919 141.201 81.4158C141.284 81.4396 141.374 81.4364 141.456 81.4056L143.107 80.8153C143.185 80.7882 143.269 80.7817 143.35 80.7969C143.432 80.8121 143.508 80.8478 143.572 80.9013C143.635 80.9548 143.684 81.0235 143.713 81.1016C143.742 81.1793 143.75 81.2636 143.737 81.3456L142.597 87.4366Z" fill="#B4702F"/>
<path d="M143.861 87.5732L145.253 83.0881" stroke="#56303C" stroke-width="1.35668" stroke-miterlimit="10" stroke-linecap="round"/>
<path d="M145.408 86.8343L146.394 83.519" stroke="#56303C" stroke-width="1.35668" stroke-miterlimit="10" stroke-linecap="round"/>
<path d="M146.976 86.0416L147.525 83.9561" stroke="#56303C" stroke-width="1.35668" stroke-miterlimit="10" stroke-linecap="round"/>
<path d="M143.391 80.7206L146.824 78.9236" stroke="#56303C" stroke-width="1.35668" stroke-miterlimit="10" stroke-linecap="round"/>
<path d="M194.304 80.0724C194.331 80.1928 194.393 80.3023 194.483 80.3866C194.573 80.4711 194.685 80.5265 194.807 80.5453C194.928 80.5644 195.053 80.5463 195.164 80.4936C195.275 80.4408 195.368 80.3555 195.43 80.2492L198.195 75.5128C198.608 74.8791 198.828 74.138 198.827 73.3803V68.1154H191.51L190.232 74.6499C190.215 74.7345 190.226 74.8223 190.262 74.9004C190.298 74.9788 190.358 75.0435 190.433 75.0858C190.508 75.1278 190.594 75.1448 190.68 75.1343C190.765 75.1238 190.845 75.0862 190.907 75.0273L192.18 73.8372C192.242 73.7826 192.316 73.7447 192.396 73.727C192.477 73.7096 192.56 73.7129 192.638 73.7371C192.717 73.7613 192.788 73.8054 192.845 73.8651C192.902 73.9243 192.942 73.9977 192.962 74.0776L194.304 80.0724Z" fill="#B4702F"/>
<path d="M122.711 113.33C122.742 112.694 123.009 112.094 123.459 111.645C123.908 111.197 124.508 110.933 125.142 110.906L137.736 110.357C138.006 110.346 138.27 110.277 138.512 110.157C138.753 110.036 138.967 109.866 139.138 109.657L144.303 103.371L144.934 99.7226C144.947 99.6463 144.98 99.5751 145.031 99.5169C145.082 99.4587 145.147 99.4157 145.221 99.3929C145.295 99.3705 145.373 99.3687 145.448 99.3882C145.522 99.4077 145.59 99.4478 145.643 99.5039C145.712 99.5729 145.755 99.6647 145.763 99.7623L145.85 101.002C145.854 101.053 145.872 101.101 145.904 101.141C145.935 101.181 145.978 101.211 146.026 101.226C146.074 101.242 146.126 101.243 146.175 101.228C146.224 101.214 146.267 101.185 146.299 101.146L148.401 98.5784C148.453 98.5141 148.518 98.4609 148.591 98.4219C148.664 98.3825 148.744 98.3583 148.827 98.3503C148.909 98.3427 148.992 98.351 149.071 98.3756C149.151 98.3998 149.224 98.44 149.288 98.4931L150.126 99.1926C150.427 99.4431 150.629 99.7927 150.697 100.179C150.766 100.565 150.696 100.963 150.5 101.302L148.803 103.973L143.113 113.969C142.759 114.59 142.248 115.107 141.631 115.465C141.015 115.824 140.315 116.013 139.602 116.013H125.252C124.907 116.013 124.566 115.942 124.249 115.806C123.933 115.67 123.647 115.47 123.41 115.22C123.172 114.969 122.988 114.673 122.867 114.349C122.747 114.025 122.694 113.679 122.711 113.333V113.33Z" fill="#FFAFB1"/>
<path d="M149.245 98.8246L148.039 100.433" stroke="#56303C" stroke-width="1.26025" stroke-miterlimit="10" stroke-linecap="round"/>
<path d="M149.948 99.3167L148.74 100.927" stroke="#56303C" stroke-width="1.26025" stroke-miterlimit="10" stroke-linecap="round"/>
<path d="M150.427 99.9232L149.398 101.296" stroke="#56303C" stroke-width="1.26025" stroke-miterlimit="10" stroke-linecap="round"/>
<path d="M132.216 112.172L144.859 145.229C145.197 146.114 145.315 147.067 145.204 148.008C145.093 148.949 144.755 149.849 144.221 150.63C143.686 151.411 142.97 152.049 142.135 152.491C141.3 152.932 140.37 153.162 139.426 153.163H120.776C113.729 153.163 108.815 146.146 111.196 139.489L120.94 112.293C122.829 107.027 130.219 106.949 132.216 112.172Z" fill="#A0D6FF"/>
<path d="M131.395 110.666C131.058 110.809 130.696 110.882 130.331 110.881C129.114 110.881 128.096 110.093 127.834 109.033C127.571 110.093 126.554 110.881 125.337 110.881C124.855 110.889 124.382 110.761 123.968 110.513C123.555 110.264 123.22 109.904 123.001 109.473C123.681 108.977 124.455 108.626 125.276 108.443C126.097 108.26 126.946 108.249 127.772 108.409L127.898 108.435C129.296 108.725 130.539 109.519 131.395 110.666Z" fill="white"/>
<path d="M98.8328 151.63C98.6891 151.736 98.5825 151.884 98.5278 152.054C98.4731 152.225 98.4738 152.408 98.5292 152.578C98.5843 152.748 98.692 152.896 98.8364 153.001C98.9804 153.106 99.154 153.162 99.3323 153.162L139.596 153.171C140.522 153.171 141.433 152.945 142.252 152.513C143.071 152.08 143.773 151.454 144.298 150.689C144.822 149.923 145.153 149.041 145.262 148.118C145.37 147.195 145.254 146.26 144.922 145.393L144.871 145.258C144.443 144.128 143.683 143.155 142.691 142.468C141.7 141.78 140.524 141.412 139.319 141.411H131.177C126.359 141.411 121.63 142.71 117.483 145.17L110.179 149.498C109.687 149.858 109.399 149.642 109.201 149.06L108.723 147.642C108.62 147.338 108.448 147.063 108.22 146.839C107.992 146.614 107.715 146.447 107.41 146.35C107.106 146.253 106.783 146.23 106.468 146.281C106.153 146.333 105.854 146.458 105.596 146.647L98.8328 151.63Z" fill="#FFAFB1"/>
<path d="M132.737 153.63C136.739 153.63 139.497 149.275 138.062 145.222L138.011 145.075C137.119 142.551 134.917 140.91 132.461 140.91" stroke="white" stroke-width="1.6626" stroke-miterlimit="10" stroke-linecap="round"/>
<path d="M104.608 150.653C104.609 151.119 104.517 151.581 104.339 152.012C104.161 152.442 103.899 152.833 103.57 153.162H99.3323C99.154 153.162 98.9808 153.106 98.8368 153C98.6927 152.896 98.585 152.747 98.5299 152.578C98.4745 152.408 98.4741 152.225 98.5285 152.054C98.5829 151.884 98.6895 151.736 98.8328 151.63L103.569 148.144C103.898 148.472 104.16 148.863 104.339 149.294C104.517 149.725 104.609 150.186 104.608 150.653Z" fill="#A0D6FF"/>
<path d="M97.6509 152.621L106.84 145.889" stroke="#56303C" stroke-width="2.03834" stroke-miterlimit="10" stroke-linecap="round"/>
<path d="M103.753 148.142L109.434 148.886" stroke="#56303C" stroke-width="2.03834" stroke-miterlimit="10" stroke-linecap="round"/>
<path d="M141.722 141.448H121.782C120.393 141.448 119.939 139.721 121.172 139.13L126.441 136.606C126.276 135.939 126.193 135.255 126.194 134.569C126.194 134.419 126.198 134.27 126.205 134.122H122.839C121.596 134.122 121.19 132.578 122.294 132.051L127.042 129.778C125.552 128.648 124.612 126.987 124.612 125.137C124.613 124.222 124.844 123.323 125.282 122.521C124.917 122.408 124.589 122.201 124.329 121.921C124.068 121.642 123.885 121.299 123.797 120.926C123.71 120.553 123.72 120.164 123.828 119.797C123.936 119.43 124.137 119.097 124.413 118.832C124.688 118.567 125.027 118.379 125.397 118.286C125.767 118.193 126.154 118.198 126.521 118.301C126.889 118.405 127.222 118.602 127.49 118.875C127.758 119.148 127.95 119.486 128.048 119.856C129.154 119.289 130.375 118.984 131.617 118.965C132.859 118.946 134.088 119.213 135.211 119.745C135.324 119.394 135.522 119.078 135.788 118.824C136.054 118.57 136.38 118.388 136.734 118.293C137.089 118.198 137.462 118.195 137.819 118.282C138.175 118.37 138.504 118.546 138.775 118.795C139.046 119.044 139.251 119.357 139.37 119.705C139.489 120.054 139.519 120.427 139.457 120.79C139.395 121.153 139.243 121.495 139.015 121.784C138.787 122.073 138.491 122.3 138.153 122.444C138.618 123.265 138.863 124.192 138.864 125.137C138.864 126.989 137.923 128.65 136.43 129.783L141.22 132.051C142.334 132.578 141.925 134.122 140.67 134.122H137.28C137.287 134.27 137.292 134.419 137.292 134.569C137.293 135.258 137.209 135.944 137.042 136.613L142.342 139.125C143.582 139.721 143.123 141.448 141.722 141.448Z" fill="white"/>
<path d="M136.758 120.815C136.862 120.494 137.064 120.215 137.335 120.015C137.606 119.816 137.933 119.708 138.269 119.706C138.541 119.705 138.808 119.776 139.044 119.911" stroke="#56303C" stroke-width="1.32343" stroke-miterlimit="10" stroke-linecap="round"/>
<path d="M126.521 120.815C126.419 120.495 126.22 120.216 125.95 120.017C125.681 119.818 125.356 119.709 125.022 119.706C124.752 119.706 124.486 119.777 124.252 119.911" stroke="#56303C" stroke-width="1.32343" stroke-miterlimit="10" stroke-linecap="round"/>
<path d="M134.715 127.663C134.715 129.13 133.383 130.32 131.738 130.32C130.094 130.32 128.762 129.13 128.762 127.663C128.762 126.197 130.094 125.686 131.738 125.686C133.383 125.686 134.715 126.197 134.715 127.663Z" fill="#EFDFC0"/>
<path d="M134.485 125.945C134.705 125.945 134.883 125.766 134.883 125.545C134.883 125.325 134.705 125.146 134.485 125.146C134.266 125.146 134.088 125.325 134.088 125.545C134.088 125.766 134.266 125.945 134.485 125.945Z" fill="#56303C"/>
<path d="M129.075 125.945C129.295 125.945 129.473 125.766 129.473 125.545C129.473 125.325 129.295 125.146 129.075 125.146C128.856 125.146 128.678 125.325 128.678 125.545C128.678 125.766 128.856 125.945 129.075 125.945Z" fill="#56303C"/>
<path d="M132.784 126.86C132.784 127.132 132.439 127.571 131.978 127.69V128.146C131.978 128.209 131.953 128.27 131.908 128.316C131.863 128.361 131.802 128.386 131.738 128.386C131.675 128.386 131.614 128.361 131.569 128.316C131.524 128.27 131.499 128.209 131.499 128.146V127.689C131.037 127.569 130.692 127.132 130.692 126.86C130.692 126.542 131.16 126.284 131.737 126.284C132.314 126.284 132.784 126.542 132.784 126.86Z" fill="#56303C"/>
<path d="M133.998 141.448H128.236C127.557 141.448 126.9 141.21 126.378 140.776L117.695 133.564C116.712 132.747 116.003 131.645 115.666 130.409C115.33 129.173 115.381 127.863 115.813 126.657L121.082 111.935C121.259 111.436 121.617 111.023 122.084 110.777C122.55 110.531 123.092 110.47 123.602 110.606C124.111 110.742 124.551 111.066 124.835 111.512C125.118 111.958 125.224 112.496 125.131 113.017L122.151 127.321C122.069 127.714 122.071 128.119 122.157 128.511C122.243 128.902 122.41 129.271 122.649 129.593L129.214 138.451H131.959C132.021 138.45 132.083 138.471 132.133 138.508C132.183 138.545 132.219 138.598 132.237 138.658C132.255 138.719 132.252 138.783 132.23 138.842C132.208 138.9 132.168 138.95 132.115 138.984L131.576 139.331C131.543 139.351 131.515 139.379 131.496 139.413C131.476 139.446 131.464 139.484 131.462 139.523C131.46 139.561 131.468 139.6 131.483 139.635C131.5 139.67 131.524 139.702 131.554 139.725L133.998 141.448Z" fill="#FFAFB1"/>
<path d="M131.091 140.714L132.238 141.448" stroke="#56303C" stroke-width="1.26025" stroke-miterlimit="10" stroke-linecap="round"/>
<path d="M130.069 141.001L130.767 141.448" stroke="#56303C" stroke-width="1.26025" stroke-miterlimit="10" stroke-linecap="round"/>
<path d="M133.397 97.071C133.397 98.8174 131.055 100.259 128.024 100.476C126.764 102.676 124.177 104.184 121.188 104.184C121.018 104.184 120.85 104.184 120.682 104.169C120.649 104.949 120.352 105.694 119.839 106.281C119.327 106.869 118.63 107.264 117.865 107.4C117.099 107.536 116.31 107.407 115.627 107.032C114.945 106.658 114.41 106.061 114.111 105.34C113.812 104.62 113.767 103.818 113.983 103.068C114.198 102.319 114.662 101.665 115.298 101.215C115.934 100.766 116.704 100.547 117.48 100.596C118.256 100.644 118.992 100.957 119.568 101.482C119.534 101.157 119.518 100.831 119.519 100.504C119.519 98.2198 120.357 96.2211 122.119 95.1453C123.228 94.235 125.102 93.6367 127.227 93.6367C130.634 93.6353 133.397 95.1738 133.397 97.071Z" fill="#D9AF00"/>
<path d="M113.62 107.687C113.837 106.764 113.268 105.84 112.349 105.622C111.43 105.404 110.509 105.975 110.292 106.898C110.075 107.821 110.644 108.745 111.563 108.963C112.482 109.181 113.403 108.609 113.62 107.687Z" fill="#D9AF00"/>
<path d="M122.514 106.08C123.498 106.561 124.823 106.711 126.449 106.711C130.48 106.711 133.29 105.768 133.29 102.341C133.29 100.644 130.933 96.9614 128.05 95.2316C128.331 95.9351 128.475 96.6863 128.474 97.4444C128.474 99.8823 127.004 102.012 124.802 103.201C124.504 102.471 123.724 101.951 122.812 101.951C121.641 101.951 120.691 102.806 120.691 103.861C120.691 105.034 121.474 105.571 122.514 106.08Z" fill="#FFAFB1"/>
<path d="M130.399 99.9229L131.829 101.252L131.218 101.951" stroke="#56303C" stroke-width="1.22367" stroke-linecap="round" stroke-linejoin="round"/>
<path d="M129.169 101.328C129.412 101.328 129.61 101.13 129.61 100.886C129.61 100.642 129.412 100.444 129.169 100.444C128.925 100.444 128.728 100.642 128.728 100.886C128.728 101.13 128.925 101.328 129.169 101.328Z" fill="#56303C"/>
<path d="M131.666 99.9641C131.848 99.9641 131.996 99.8155 131.996 99.6322C131.996 99.4493 131.848 99.3007 131.666 99.3007C131.483 99.3007 131.335 99.4493 131.335 99.6322C131.335 99.8155 131.483 99.9641 131.666 99.9641Z" fill="#56303C"/>
<path d="M122.36 103.466C123.034 103.38 123.643 103.804 123.719 104.412" stroke="#56303C" stroke-width="1.26025" stroke-miterlimit="10" stroke-linecap="round"/>
<path d="M122.812 104.412L123.223 103.748" stroke="#56303C" stroke-width="1.26025" stroke-miterlimit="10" stroke-linecap="round"/>
<path d="M45.7337 39.5357C43.72 40.8133 42.0609 42.5817 40.9111 44.6766C39.7616 46.7712 39.1588 49.1238 39.1584 51.5152V148.209C39.1588 149.534 39.6835 150.805 40.6169 151.742C41.5503 152.679 42.8165 153.205 44.1363 153.205H75.7965C73.768 153.205 71.8223 152.396 70.3876 150.956C68.9533 149.516 68.1474 147.563 68.1474 145.526V55.4772L45.7337 39.5357Z" fill="#56303C"/>
<path d="M76.0492 153.162H54.959L54.8009 151.028L68.1761 145.769C68.3022 147.665 69.1034 149.453 70.4333 150.806C71.7632 152.158 73.5335 152.986 75.4209 153.138C75.6315 153.153 75.8386 153.162 76.0492 153.162Z" fill="#A0D6FF"/>
<path d="M39.9763 153.162H59.1569C58.0391 153.162 56.9577 152.762 56.1075 152.033C55.2569 151.305 54.693 150.296 54.5169 149.188L54.2392 147.44L40.0314 151.028L39.9763 153.162Z" fill="#A0D6FF"/>
<path d="M52.4728 149.465L54.2474 148.858" stroke="#56303C" stroke-width="2.03834" stroke-miterlimit="10" stroke-linecap="round"/>
<path d="M53.0969 151.134L55.2882 150.319" stroke="#56303C" stroke-width="2.03834" stroke-miterlimit="10" stroke-linecap="round"/>
<path d="M67.0336 148.837L69.2252 148.022" stroke="#56303C" stroke-width="2.03834" stroke-miterlimit="10" stroke-linecap="round"/>
<path d="M67.8657 150.508L70.057 149.691" stroke="#56303C" stroke-width="2.03834" stroke-miterlimit="10" stroke-linecap="round"/>
<path d="M38.7681 53.3278L54.3457 148.221C54.5741 149.613 55.2871 150.878 56.358 151.79C57.429 152.703 58.7881 153.204 60.1929 153.204" stroke="white" stroke-width="1.62934" stroke-miterlimit="10" stroke-linecap="round"/>
<path d="M75.4256 153.162H39.1584" stroke="#56303C" stroke-width="2.03834" stroke-miterlimit="10" stroke-linecap="round"/>
<path d="M66.4602 53.0201H48.7262C46.6498 53.0201 44.9663 54.7101 44.9663 56.7949V74.5974C44.9663 76.6819 46.6498 78.3719 48.7262 78.3719H66.4602C68.537 78.3719 70.2202 76.6819 70.2202 74.5974V56.7949C70.2202 54.7101 68.537 53.0201 66.4602 53.0201Z" fill="#FFAFB1"/>
<mask id="mask1_3_1413" style="mask-type:alpha" maskUnits="userSpaceOnUse" x="44" y="53" width="27" height="26">
<path d="M66.4602 53.0201H48.7262C46.6498 53.0201 44.9663 54.7101 44.9663 56.7949V74.5974C44.9663 76.6819 46.6498 78.3719 48.7262 78.3719H66.4602C68.537 78.3719 70.2202 76.6819 70.2202 74.5974V56.7949C70.2202 54.7101 68.537 53.0201 66.4602 53.0201Z" fill="#FFAFB1"/>
</mask>
<g mask="url(#mask1_3_1413)">
<path d="M50.3921 115.891V45.7054" stroke="#D9AF00" stroke-width="0.901127" stroke-miterlimit="10"/>
<path d="M46.983 115.891V45.7054" stroke="#D9AF00" stroke-width="0.901127" stroke-miterlimit="10"/>
<path d="M53.9039 115.891V45.7054" stroke="#D9AF00" stroke-width="0.901127" stroke-miterlimit="10"/>
<path d="M57.4161 115.891V45.7054" stroke="#D9AF00" stroke-width="0.901127" stroke-miterlimit="10"/>
<path d="M60.9272 115.891V45.7054" stroke="#D9AF00" stroke-width="0.901127" stroke-miterlimit="10"/>
<path d="M64.4393 115.891V45.7054" stroke="#D9AF00" stroke-width="0.901127" stroke-miterlimit="10"/>
<path d="M67.9512 115.891V45.7054" stroke="#D9AF00" stroke-width="0.901127" stroke-miterlimit="10"/>
<path d="M74.8746 76.3005H32.9297" stroke="#D9AF00" stroke-width="0.901127" stroke-miterlimit="10"/>
<path d="M74.8746 72.7747H32.9297" stroke="#D9AF00" stroke-width="0.901127" stroke-miterlimit="10"/>
<path d="M74.8746 69.249H32.9297" stroke="#D9AF00" stroke-width="0.901127" stroke-miterlimit="10"/>
<path d="M74.8746 65.7233H32.9297" stroke="#D9AF00" stroke-width="0.901127" stroke-miterlimit="10"/>
<path d="M74.8746 62.1986H32.9297" stroke="#D9AF00" stroke-width="0.901127" stroke-miterlimit="10"/>
<path d="M74.8746 58.6733H32.9297" stroke="#D9AF00" stroke-width="0.901127" stroke-miterlimit="10"/>
<path d="M74.8746 55.1479H32.9297" stroke="#D9AF00" stroke-width="0.901127" stroke-miterlimit="10"/>
</g>
<path d="M57.1287 65.9084H44.5796" stroke="white" stroke-width="1.97849" stroke-miterlimit="10" stroke-linecap="round"/>
<path d="M57.0329 65.9084H54.8654C54.5809 65.9084 54.2993 65.852 54.0364 65.7428C53.7736 65.6333 53.5344 65.4731 53.3335 65.271C53.1322 65.069 52.9727 64.8293 52.8639 64.565C52.7552 64.3011 52.6993 64.0184 52.6993 63.7325C52.6993 63.1559 52.9277 62.6028 53.3339 62.195C53.7401 61.7872 54.291 61.558 54.8654 61.558C55.4401 61.558 55.9911 61.7872 56.3977 62.195C56.8042 62.6028 57.0326 63.1559 57.0329 63.7325V65.9084Z" stroke="#A0D6FF" stroke-width="1.97849" stroke-miterlimit="10"/>
<path d="M57.1287 65.9084H59.2958C59.5807 65.9084 59.8623 65.852 60.1251 65.7428C60.388 65.6333 60.6268 65.4731 60.8281 65.271C61.0294 65.069 61.1889 64.8293 61.2977 64.565C61.4064 64.3011 61.4622 64.0184 61.4622 63.7325C61.4622 63.1559 61.2339 62.6028 60.8277 62.195C60.4215 61.7872 59.8705 61.558 59.2958 61.558C59.0113 61.558 58.7297 61.6141 58.4665 61.7233C58.2036 61.8324 57.9648 61.9926 57.7635 62.1947C57.5622 62.3964 57.4023 62.6364 57.2936 62.9003C57.1845 63.1642 57.1287 63.4469 57.1287 63.7325V65.9084Z" stroke="#A0D6FF" stroke-width="1.97849" stroke-miterlimit="10"/>
<path d="M55.0502 68.6012L57.1287 65.7233L59.168 70.5808" stroke="#A0D6FF" stroke-width="1.97849" stroke-miterlimit="10" stroke-linecap="round"/>
<path d="M57.416 71.3024V78.98" stroke="white" stroke-width="1.97849" stroke-miterlimit="10" stroke-linecap="round"/>
<path d="M57.416 52.6774V59.9848" stroke="white" stroke-width="1.97849" stroke-miterlimit="10" stroke-linecap="round"/>
<path d="M102.8 27.9585C102.802 30.0718 102.255 32.1491 101.212 33.9849C100.17 35.8208 98.6675 37.3515 96.8547 38.4259L72.0809 52.3473C71.5188 52.6629 71.0506 53.1238 70.7247 53.682C70.3992 54.2398 70.2274 54.8749 70.2274 55.5217V73.9135L61.0252 71.2257L58.9127 51.9395C48.1537 46.4906 45.741 39.5357 45.741 39.5357L64.4905 21.6765C73.0053 13.5698 84.7345 12.3148 93.7499 15.9775L95.0671 16.6422C97.3423 17.526 99.2988 19.0795 100.679 21.0988C102.06 23.1182 102.801 25.5092 102.804 27.9585H102.8Z" fill="#D9AF00"/>
<path d="M65.8305 83.618L62.4346 80.7329C62.1501 80.4899 61.9701 80.1465 61.9308 79.7738C61.8919 79.4007 61.9971 79.0273 62.225 78.7301L62.7591 78.0389C63.1213 77.569 63.3237 76.9949 63.337 76.4006C63.35 75.8067 63.1732 75.2239 62.8322 74.7381L61.5891 72.9602C60.1522 70.917 61.1998 69.6629 63.9302 68.9732C65.0868 68.6811 66.6987 68.6522 68.1906 69.4106C69.7305 70.1943 70.3459 71.0215 70.3459 72.7549L70.608 75.5109C70.6635 76.0908 70.5159 76.6721 70.1903 77.1543L65.8305 83.618Z" fill="#B4702F"/>
<path d="M67.1751 78.579L64.6331 82.4305" stroke="#56303C" stroke-width="1.43981" stroke-miterlimit="10" stroke-linecap="round"/>
<path d="M65.7991 77.4486L63.2571 81.3001" stroke="#56303C" stroke-width="1.43981" stroke-miterlimit="10" stroke-linecap="round"/>
<path d="M87.5004 28.0261L62.3542 44.0979C59.4672 45.9441 58.5223 48.6741 58.6768 52.3824" stroke="#56303C" stroke-width="1.83551" stroke-miterlimit="10" stroke-linecap="round"/>
<path d="M85.0055 27.7169L84.8298 29.6822" stroke="#56303C" stroke-width="1.83551" stroke-miterlimit="10" stroke-linecap="round"/>
<path d="M89.1562 14.4195L99.8328 14.3714C100.611 14.3677 101.363 14.653 101.944 15.1722C102.525 15.6915 102.894 16.4081 102.981 17.1842L104.185 26.7311C104.249 27.2339 104.203 27.7447 104.052 28.2283C103.901 28.7119 103.647 29.157 103.309 29.5331L102.56 30.3637L102.391 28.3923C102.157 25.6528 101.161 23.0344 99.5177 20.8348C97.8742 18.6352 95.6487 16.9427 93.0948 15.9497L89.1562 14.4195Z" fill="#A0D6FF"/>
<path d="M60.9473 66.9705C60.9473 66.9705 65.2257 63.9845 69.8596 67.1541" stroke="#A0D6FF" stroke-width="1.61937" stroke-miterlimit="10" stroke-linecap="round"/>
<path d="M118.067 25.9054L118.106 25.891L113.436 30.6392C113.359 30.7168 113.267 30.7775 113.166 30.8175C113.064 30.8575 112.956 30.876 112.847 30.8717C112.738 30.8674 112.631 30.8404 112.533 30.7925C112.435 30.7447 112.348 30.6769 112.278 30.5935L111.17 29.2712C110.49 29.5377 109.76 29.6518 109.032 29.6056C108.303 29.5594 107.594 29.3539 106.953 29.0035C106.312 28.6531 105.754 28.1664 105.32 27.5772C104.886 26.9881 104.586 26.3109 104.439 25.5929L102.515 16.1254C102.386 15.4874 102.454 14.8249 102.711 14.227C102.968 13.6291 103.401 13.1246 103.952 12.7813L107.256 11.1741C111.567 8.49954 117.066 10.3111 118.53 15.1782L119.835 19.5213C120.172 20.6443 120.184 21.8401 119.871 22.97C119.558 24.0999 118.933 25.1177 118.067 25.9054Z" fill="#B4702F"/>
<path d="M112.992 26.8127C112.86 26.8012 112.736 26.7509 112.634 26.6682C112.531 26.5856 112.456 26.4743 112.416 26.3484C112.377 26.2226 112.376 26.0878 112.413 25.9613C112.45 25.8348 112.524 25.7222 112.625 25.6377C112.726 25.5533 112.849 25.5009 112.98 25.4871C113.111 25.4732 113.243 25.4987 113.358 25.5602C113.475 25.6216 113.57 25.7164 113.633 25.8324C113.695 25.9484 113.722 26.0804 113.71 26.2117C113.694 26.3869 113.609 26.5486 113.474 26.6613C113.34 26.774 113.166 26.8284 112.992 26.8127Z" fill="#56303C"/>
<path d="M115.148 23.8581L116.946 25.2823L116.75 25.5315C116.563 25.7703 116.288 25.9244 115.987 25.9601C115.687 25.9957 115.384 25.9099 115.146 25.7215L113.202 24.1819L113.286 24.0752C113.503 23.7987 113.821 23.6201 114.17 23.5788C114.518 23.5375 114.868 23.6369 115.144 23.8551L115.148 23.8581Z" fill="#56303C"/>
<path d="M106.474 14.3223C106.474 14.3223 106.894 16.2084 105.265 16.7265" stroke="#56303C" stroke-width="2.07159" stroke-miterlimit="10" stroke-linecap="round"/>
<path d="M105.001 14.9787L106.42 15.5749" stroke="#56303C" stroke-width="2.07159" stroke-miterlimit="10" stroke-linecap="round"/>
<path d="M121.642 25.2646C120.509 25.7899 118.144 23.0696 116.361 19.1918C115.98 18.3657 115.643 17.5194 115.354 16.6566L114.779 17.4151C114.161 18.2319 113.314 18.8447 112.346 19.175C111.379 19.5052 110.335 19.5378 109.349 19.2687L108.366 19.0006C107.723 19.4435 107.196 20.0352 106.829 20.7256C106.462 21.416 106.266 22.1849 106.257 22.9675L106.236 24.9064L106.888 25.1949C108.744 26.0188 110.257 27.4632 111.17 29.2819L107.404 31.347C107.101 31.512 106.763 31.5996 106.419 31.6022C106.074 31.6048 105.734 31.5223 105.429 31.362C105.124 31.2016 104.862 30.9684 104.668 30.6828C104.474 30.3972 104.353 30.068 104.315 29.7243L103.201 19.5331L106.777 17.8743C107.437 17.5687 107.955 17.0212 108.225 16.3441C108.496 15.667 108.497 14.9117 108.231 14.2332L108.208 14.1731C107.963 13.5536 107.515 13.0368 106.937 12.7087C106.359 12.3807 105.687 12.2611 105.032 12.37C105.023 12.3448 105.016 12.3232 105.009 12.3063L107.871 10.6992C109.999 9.68824 111.848 9.36007 113.394 9.60651L113.107 8.96578C113.07 8.87605 113.07 8.77588 113.107 8.68612C113.142 8.59636 113.211 8.52402 113.299 8.48415C113.387 8.44428 113.486 8.44001 113.578 8.47218C113.668 8.50436 113.743 8.57051 113.787 8.65687L114.116 9.39134L114.7 8.58472C114.762 8.51542 114.847 8.47157 114.939 8.46174C115.031 8.4519 115.123 8.47677 115.198 8.53154C115.273 8.58627 115.324 8.667 115.343 8.75791C115.362 8.84887 115.346 8.94351 115.299 9.02347L114.63 9.94906C115.762 10.4131 116.45 11.0057 117.397 12.2005C118.38 13.393 119.51 15.2165 120.464 17.2901C122.253 21.1692 122.779 24.7393 121.642 25.2646Z" fill="#56303C"/>
<path d="M109.188 30.3518C109.188 30.3518 108.59 29.2699 108.88 28.0823" stroke="#B4702F" stroke-width="1.2802" stroke-linejoin="round"/>
</g>
<defs>
<clipPath id="clip0_3_1413">
<rect width="260" height="154" fill="white"/>
</clipPath>
</defs>
</svg>
