<svg width="253" height="205" viewBox="0 0 253 205" fill="none" xmlns="http://www.w3.org/2000/svg">
<g clip-path="url(#clip0_3_1206)">
<path d="M240.277 31.7869H208.57C208.57 28.2893 212.799 25.4539 218.015 25.4539C219.742 25.439 221.454 25.7694 223.051 26.4259C224.193 24.7632 225.836 23.5098 227.74 22.8489C229.645 22.1881 231.71 22.1545 233.635 22.753C235.56 23.3516 237.243 24.5509 238.437 26.1756C239.633 27.8002 240.277 29.7651 240.277 31.7828V31.7869Z" fill="#F5EFD9"/>
<path d="M56.3804 39.9583H14.1798C14.1798 36.1884 18.023 33.1323 22.765 33.1323C23.7984 33.1297 24.8265 33.2794 25.8163 33.5766C27.3891 31.255 29.8038 29.7693 32.5097 29.7693C36.5734 29.7693 39.977 33.1198 40.8675 37.6214C42.4291 36.5105 44.9493 35.6386 47.7924 35.6386C52.5358 35.6413 56.3804 38.0768 56.3804 39.9583Z" fill="#F5EFD9"/>
<path d="M49.3394 204.295C62.9694 204.295 74.0186 187.783 74.0186 167.413C74.0186 147.044 62.9694 130.532 49.3394 130.532C35.7092 130.532 24.6599 147.044 24.6599 167.413C24.6599 187.783 35.7092 204.295 49.3394 204.295Z" fill="#F5EFD9"/>
<path d="M241.129 204.297C241.129 181.26 228.215 162.585 212.281 162.585C196.346 162.585 183.432 181.26 183.432 204.297H241.129Z" fill="#EFDFC0"/>
<path d="M52.4267 204.297C52.4267 190.044 40.6917 178.49 26.2133 178.49C11.7349 178.49 0 190.044 0 204.297H52.4267Z" fill="#EFDFC0"/>
<path d="M109.531 204.297H54.983C60.1298 194.879 70.413 188.455 82.2575 188.455C94.102 188.455 104.385 194.879 109.531 204.297Z" fill="#F5EFD9"/>
<path d="M222.16 204.297H173.062C177.694 194.879 186.95 188.455 197.611 188.455C208.273 188.455 217.527 194.879 222.16 204.297Z" fill="#F5EFD9"/>
<path d="M46.9563 182.277V204.297" stroke="#D9AF00" stroke-width="1.24362" stroke-miterlimit="10" stroke-linecap="round"/>
<path d="M50.6636 189.891L46.9563 194.704" stroke="#D9AF00" stroke-width="1.24362" stroke-miterlimit="10" stroke-linecap="round"/>
<path d="M46.9567 204.297L40.191 197.776" stroke="#D9AF00" stroke-width="1.24362" stroke-miterlimit="10" stroke-linecap="round"/>
<path d="M46.9567 180.871C49.0039 180.871 50.664 179.21 50.664 177.16C50.664 175.11 49.0039 173.448 46.9567 173.448C44.909 173.448 43.2493 175.11 43.2493 177.16C43.2493 179.21 44.909 180.871 46.9567 180.871Z" fill="white"/>
<path d="M46.9563 173.449V180.871" stroke="#D9AF00" stroke-width="0.711591" stroke-miterlimit="10" stroke-linecap="round"/>
<path d="M43.2506 177.16H50.664" stroke="#D9AF00" stroke-width="0.711591" stroke-miterlimit="10" stroke-linecap="round"/>
<path d="M44.3351 174.536L49.5779 179.784" stroke="#D9AF00" stroke-width="0.711591" stroke-miterlimit="10" stroke-linecap="round"/>
<path d="M44.3351 179.784L49.5779 174.536" stroke="#D9AF00" stroke-width="0.711591" stroke-miterlimit="10" stroke-linecap="round"/>
<path d="M47.4811 178.429C48.1809 178.139 48.5133 177.336 48.2235 176.635C47.9336 175.934 47.1312 175.602 46.4314 175.892C45.7312 176.182 45.3988 176.985 45.6891 177.686C45.9789 178.386 46.7813 178.719 47.4811 178.429Z" fill="white"/>
<path d="M46.9563 177.902C47.3662 177.902 47.6982 177.57 47.6982 177.16C47.6982 176.749 47.3662 176.417 46.9563 176.417C46.5463 176.417 46.2144 176.749 46.2144 177.16C46.2144 177.57 46.5463 177.902 46.9563 177.902Z" fill="#D9AF00"/>
<path d="M53.7956 190.186C55.8428 190.186 57.5029 188.525 57.5029 186.475C57.5029 184.425 55.8428 182.763 53.7956 182.763C51.7479 182.763 50.0883 184.425 50.0883 186.475C50.0883 188.525 51.7479 190.186 53.7956 190.186Z" fill="white"/>
<path d="M53.7957 182.763V190.186" stroke="#D9AF00" stroke-width="0.711591" stroke-miterlimit="10" stroke-linecap="round"/>
<path d="M50.0883 186.475H57.5016" stroke="#D9AF00" stroke-width="0.711591" stroke-miterlimit="10" stroke-linecap="round"/>
<path d="M51.1744 183.851L56.4155 189.1" stroke="#D9AF00" stroke-width="0.711591" stroke-miterlimit="10" stroke-linecap="round"/>
<path d="M51.1744 189.1L56.4155 183.851" stroke="#D9AF00" stroke-width="0.711591" stroke-miterlimit="10" stroke-linecap="round"/>
<path d="M55.1268 186.78C55.3009 186.042 54.8444 185.302 54.1069 185.128C53.3698 184.954 52.631 185.411 52.4569 186.149C52.2828 186.888 52.7397 187.627 53.4768 187.802C54.2143 187.975 54.9532 187.518 55.1268 186.78Z" fill="white"/>
<path d="M53.7956 187.219C54.2056 187.219 54.5375 186.886 54.5375 186.475C54.5375 186.065 54.2056 185.733 53.7956 185.733C53.3856 185.733 53.0537 186.065 53.0537 186.475C53.0537 186.886 53.3856 187.219 53.7956 187.219Z" fill="#D9AF00"/>
<path d="M36.6529 197.903C38.7004 197.903 40.3602 196.241 40.3602 194.191C40.3602 192.142 38.7004 190.48 36.6529 190.48C34.6054 190.48 32.9456 192.142 32.9456 194.191C32.9456 196.241 34.6054 197.903 36.6529 197.903Z" fill="white"/>
<path d="M36.653 190.481V197.903" stroke="#D9AF00" stroke-width="0.711591" stroke-miterlimit="10" stroke-linecap="round"/>
<path d="M32.9467 194.191H40.3599" stroke="#D9AF00" stroke-width="0.711591" stroke-miterlimit="10" stroke-linecap="round"/>
<path d="M34.0328 191.568L39.2741 196.816" stroke="#D9AF00" stroke-width="0.711591" stroke-miterlimit="10" stroke-linecap="round"/>
<path d="M34.0328 196.816L39.2741 191.568" stroke="#D9AF00" stroke-width="0.711591" stroke-miterlimit="10" stroke-linecap="round"/>
<path d="M37.9854 194.498C38.1595 193.76 37.7028 193.02 36.9655 192.846C36.2283 192.671 35.4895 193.128 35.3154 193.867C35.1414 194.605 35.598 195.344 36.3354 195.519C37.0727 195.693 37.8115 195.236 37.9854 194.498Z" fill="white"/>
<path d="M36.6529 194.934C37.0627 194.934 37.3949 194.601 37.3949 194.191C37.3949 193.781 37.0627 193.448 36.6529 193.448C36.2431 193.448 35.9109 193.781 35.9109 194.191C35.9109 194.601 36.2431 194.934 36.6529 194.934Z" fill="#D9AF00"/>
<path d="M216.214 189.702V203.998" stroke="#D9AF00" stroke-width="1.24362" stroke-miterlimit="10" stroke-linecap="round"/>
<path d="M219.921 195.423L216.214 200.235" stroke="#D9AF00" stroke-width="1.24362" stroke-miterlimit="10" stroke-linecap="round"/>
<path d="M216.214 188.297C218.261 188.297 219.921 186.635 219.921 184.585C219.921 182.536 218.261 180.874 216.214 180.874C214.166 180.874 212.507 182.536 212.507 184.585C212.507 186.635 214.166 188.297 216.214 188.297Z" fill="white"/>
<path d="M216.214 180.874V188.297" stroke="#D9AF00" stroke-width="0.711591" stroke-miterlimit="10" stroke-linecap="round"/>
<path d="M212.508 184.586H219.921" stroke="#D9AF00" stroke-width="0.711591" stroke-miterlimit="10" stroke-linecap="round"/>
<path d="M213.594 181.961L218.835 187.21" stroke="#D9AF00" stroke-width="0.711591" stroke-miterlimit="10" stroke-linecap="round"/>
<path d="M213.594 187.21L218.835 181.961" stroke="#D9AF00" stroke-width="0.711591" stroke-miterlimit="10" stroke-linecap="round"/>
<path d="M217.539 184.889C217.713 184.151 217.256 183.411 216.519 183.237C215.782 183.063 215.043 183.52 214.869 184.258C214.695 184.996 215.151 185.736 215.889 185.91C216.626 186.085 217.365 185.627 217.539 184.889Z" fill="white"/>
<path d="M216.214 185.328C216.624 185.328 216.956 184.995 216.956 184.585C216.956 184.175 216.624 183.842 216.214 183.842C215.804 183.842 215.472 184.175 215.472 184.585C215.472 184.995 215.804 185.328 216.214 185.328Z" fill="#D9AF00"/>
<path d="M226.724 192.613C227.052 190.59 225.679 188.683 223.658 188.355C221.637 188.026 219.733 189.4 219.405 191.424C219.077 193.447 220.449 195.354 222.47 195.682C224.491 196.01 226.396 194.636 226.724 192.613Z" fill="white"/>
<path d="M223.053 188.297V195.719" stroke="#D9AF00" stroke-width="0.711591" stroke-miterlimit="10" stroke-linecap="round"/>
<path d="M219.346 192.007H226.759" stroke="#D9AF00" stroke-width="0.711591" stroke-miterlimit="10" stroke-linecap="round"/>
<path d="M220.431 189.382L225.674 194.631" stroke="#D9AF00" stroke-width="0.711591" stroke-miterlimit="10" stroke-linecap="round"/>
<path d="M220.431 194.631L225.674 189.382" stroke="#D9AF00" stroke-width="0.711591" stroke-miterlimit="10" stroke-linecap="round"/>
<path d="M223.578 193.277C224.278 192.986 224.61 192.183 224.32 191.482C224.03 190.782 223.228 190.449 222.528 190.739C221.828 191.029 221.496 191.833 221.786 192.534C222.076 193.234 222.878 193.567 223.578 193.277Z" fill="white"/>
<path d="M223.053 192.75C223.463 192.75 223.795 192.417 223.795 192.007C223.795 191.597 223.463 191.264 223.053 191.264C222.643 191.264 222.311 191.597 222.311 192.007C222.311 192.417 222.643 192.75 223.053 192.75Z" fill="#D9AF00"/>
<path d="M253 204.297H221.293C221.293 200.799 225.522 197.964 230.737 197.964C232.464 197.949 234.176 198.28 235.774 198.936C236.916 197.274 238.56 196.021 240.464 195.361C242.368 194.701 244.433 194.667 246.358 195.266C248.282 195.865 249.964 197.064 251.159 198.688C252.355 200.312 253 202.277 253 204.294V204.297Z" fill="#F5EFD9"/>
<path d="M132.117 171.997L69.6495 111.633L133.499 45.4099C150.142 28.1397 177.63 27.6537 194.881 44.323C212.131 60.9921 212.617 88.5043 195.965 105.775L132.117 171.997Z" fill="#A0D6FF"/>
<path d="M132.003 171.997L151.589 151.683C174.072 128.356 173.416 91.2101 150.122 68.7022L126.152 45.5377C108.908 28.8684 81.4199 29.3544 64.7697 46.6232C48.1265 63.8924 48.6049 91.4059 65.8558 108.075L132.003 171.997Z" fill="#FFAFB1"/>
<path d="M62.0696 196.648L64.5869 201.902C64.6333 201.998 64.7048 202.081 64.7938 202.14C64.8833 202.199 64.9868 202.234 65.0933 202.239C65.2003 202.245 65.3068 202.221 65.4016 202.171C65.4963 202.121 65.5756 202.046 65.6313 201.954L68.4301 197.35C68.6208 197.036 68.8892 196.777 69.2093 196.597C69.5289 196.417 69.8898 196.322 70.2568 196.322H70.3388L77.2399 170.308L65.0017 169.039L62.3485 195.174C62.298 195.672 62.2051 196.165 62.0696 196.648Z" fill="#B4702F"/>
<path d="M65.0017 169.039L77.24 170.308L76.2845 173.908L64.8907 170.134L65.0017 169.039Z" fill="#56303C"/>
<path d="M55.5105 203.89H65.003C65.2152 203.89 65.4244 203.837 65.6116 203.736C65.7984 203.634 65.9571 203.488 66.0733 203.31L67.8334 200.29C67.918 200.156 68.0386 200.048 68.1815 199.98C68.3249 199.912 68.4845 199.887 68.6415 199.907C68.7985 199.926 68.9467 199.99 69.069 200.091C69.1909 200.192 69.2817 200.326 69.3299 200.477L70.4949 203.89H71.67L72.4812 199.586C72.4812 198.893 72.2786 198.215 71.8985 197.635C71.5188 197.055 70.9777 196.6 70.3428 196.324H70.2608C69.8938 196.324 69.5329 196.419 69.2133 196.599C68.8932 196.778 68.6248 197.038 68.4341 197.352L65.6353 201.955C65.5796 202.046 65.5002 202.121 65.4055 202.171C65.3108 202.221 65.2043 202.245 65.0973 202.239C64.9903 202.234 64.8868 202.2 64.7978 202.14C64.7088 202.081 64.6373 201.999 64.5908 201.902L62.0736 196.648C61.7386 197.85 61.1501 198.966 60.3486 199.922C59.5471 200.877 58.5504 201.65 57.4257 202.188L55.3456 203.181C55.2693 203.218 55.2079 203.28 55.1715 203.356C55.1351 203.432 55.1259 203.519 55.1452 203.601C55.1641 203.684 55.211 203.757 55.2772 203.81C55.3439 203.862 55.4258 203.891 55.5105 203.89Z" fill="#FFAFB1"/>
<path d="M65.7366 203.89H54.9448" stroke="#56303C" stroke-width="1.71912" stroke-miterlimit="10" stroke-linecap="round"/>
<path d="M71.6656 203.89H70.491" stroke="#56303C" stroke-width="1.71912" stroke-miterlimit="10" stroke-linecap="round"/>
<path d="M70.2569 196.118H61.9728" stroke="#56303C" stroke-width="1.71912" stroke-miterlimit="10" stroke-linecap="round"/>
<path d="M111.327 196.648L108.809 201.902C108.763 201.998 108.692 202.081 108.603 202.14C108.513 202.199 108.41 202.234 108.303 202.239C108.196 202.245 108.09 202.221 107.995 202.171C107.9 202.121 107.821 202.046 107.765 201.954L104.966 197.35C104.775 197.036 104.507 196.777 104.187 196.597C103.867 196.417 103.507 196.322 103.14 196.322H103.058L96.1562 170.309L108.395 169.039L111.048 195.174C111.098 195.673 111.192 196.165 111.327 196.648Z" fill="#B4702F"/>
<path d="M108.395 169.039L96.1562 170.309L97.1108 173.908L108.511 170.188L108.395 169.039Z" fill="#56303C"/>
<path d="M117.89 203.89H108.398C108.185 203.89 107.976 203.837 107.789 203.736C107.602 203.634 107.444 203.488 107.327 203.31L105.567 200.29C105.483 200.156 105.362 200.048 105.219 199.98C105.076 199.912 104.917 199.887 104.759 199.907C104.602 199.926 104.454 199.99 104.332 200.091C104.21 200.192 104.119 200.326 104.071 200.477L102.906 203.89H101.731L100.919 199.586C100.919 198.893 101.122 198.215 101.502 197.635C101.882 197.055 102.423 196.6 103.058 196.324H103.14C103.507 196.324 103.868 196.419 104.188 196.599C104.507 196.778 104.776 197.038 104.967 197.352L107.765 201.956C107.821 202.047 107.901 202.122 107.995 202.172C108.09 202.223 108.196 202.246 108.303 202.241C108.41 202.235 108.514 202.201 108.603 202.142C108.692 202.082 108.764 202 108.81 201.904L111.327 196.649C111.663 197.851 112.25 198.967 113.052 199.923C113.854 200.878 114.85 201.651 115.975 202.189L118.055 203.182C118.13 203.22 118.191 203.281 118.227 203.357C118.263 203.434 118.272 203.52 118.253 203.601C118.233 203.684 118.187 203.757 118.122 203.809C118.056 203.861 117.974 203.89 117.89 203.89Z" fill="#FFAFB1"/>
<path d="M107.527 203.89H118.51" stroke="#56303C" stroke-width="1.71912" stroke-miterlimit="10" stroke-linecap="round"/>
<path d="M101.731 203.89H102.906" stroke="#56303C" stroke-width="1.71912" stroke-miterlimit="10" stroke-linecap="round"/>
<path d="M103.058 196.118H111.327" stroke="#56303C" stroke-width="1.71912" stroke-miterlimit="10" stroke-linecap="round"/>
<path d="M113.46 168.192C106.198 169.532 98.8433 170.312 91.4615 170.526L86.1525 127.574L81.3718 170.522C67.9185 170.106 58.8434 168.188 58.8434 168.188L72.7851 84.8213C73.128 82.7616 74.1909 80.8912 75.7834 79.5435C77.3764 78.1954 79.3956 77.458 81.4814 77.4623L92.2205 77.4861C94.3226 77.4909 96.3532 78.2485 97.9453 79.623C99.5374 80.9969 100.585 82.8964 100.9 84.9771L113.46 168.192Z" fill="#D9AF00"/>
<path d="M98.3183 80.1392C96.7692 81.9346 92.3739 83.0553 86.7926 83.0553C81.295 83.0553 76.876 81.8525 75.2352 80.0558" stroke="#56303C" stroke-width="1.3733" stroke-miterlimit="10" stroke-linecap="round"/>
<path d="M100.776 88.9731C99.0677 88.9726 97.4261 88.3102 96.1957 87.1241C94.9654 85.938 94.2419 84.3208 94.177 82.6124" stroke="#56303C" stroke-width="1.3733" stroke-miterlimit="10" stroke-linecap="round"/>
<path d="M72.65 88.9731C74.3583 88.9726 75.9995 88.3102 77.2303 87.1241C78.4607 85.938 79.1842 84.3208 79.2491 82.6124" stroke="#56303C" stroke-width="1.3733" stroke-miterlimit="10" stroke-linecap="round"/>
<path d="M90.9967 166.771C90.9967 166.771 103.063 166 112.892 164.436" stroke="#56303C" stroke-width="1.3733" stroke-miterlimit="10" stroke-linecap="round"/>
<path d="M81.7887 166.568C81.7887 166.568 67.087 166.336 59.5312 164.077" stroke="#56303C" stroke-width="1.3733" stroke-miterlimit="10" stroke-linecap="round"/>
<path d="M73.2428 63.4943C71.014 60.939 69.9349 58.3899 70.2607 55.0129L70.4896 52.7192L58.0597 63.2414L69.674 73.7943C70.8386 74.8219 71.5476 76.271 71.6454 77.8219C71.7428 79.3732 71.221 80.8995 70.1941 82.0654C69.1676 83.2313 67.7202 83.9411 66.1711 84.039C64.6215 84.1365 63.0969 83.6141 61.9323 82.586L47.0058 69.7979C46.1547 69.0692 45.4623 68.1733 44.9721 67.1649C44.4819 66.1571 44.2039 65.0587 44.1561 63.9385C44.1083 62.8182 44.2912 61.7002 44.6937 60.6541C45.0962 59.6076 45.7096 58.6555 46.4954 57.8565L62.8531 42.0414C66.7367 38.0939 71.2192 35.8639 76.7515 35.85L95.359 35.8056C101.563 35.7903 106.732 37.7495 110.539 43.6577L114.766 43.6104C119.101 43.5618 121.375 47.4981 120.561 51.7623L117.882 71.0797C117.634 72.3795 116.951 73.5559 115.945 74.4154C114.94 75.275 113.672 75.7657 112.351 75.807C111.03 75.8482 109.734 75.4378 108.677 74.6433C107.62 73.8483 106.865 72.7171 106.536 71.4348L102.07 59.716C102.031 59.6107 101.957 59.5211 101.862 59.4627C101.766 59.4039 101.653 59.3789 101.541 59.3921C101.429 59.4048 101.325 59.4548 101.245 59.5338C101.165 59.6129 101.114 59.7169 101.1 59.8284L98.9221 76.0089C98.9221 78.6471 93.7902 80.4144 86.793 80.4144C79.7962 80.4144 74.5464 78.4707 74.5464 75.8241L73.2428 63.4943Z" fill="#EFDFC0"/>
<path d="M107.192 61.1475V47.5723C107.192 47.0266 107.301 46.4867 107.514 45.9845C107.726 45.4819 108.038 45.0276 108.429 44.6483C108.82 44.2686 109.284 43.9718 109.792 43.7752C110.3 43.5786 110.843 43.4863 111.387 43.5038" stroke="#56303C" stroke-width="1.3733" stroke-miterlimit="10" stroke-linecap="round"/>
<path d="M95.224 56.066L92.4116 53.2429C92.2332 53.0616 92.0973 52.843 92.0144 52.6025C91.9311 52.3619 91.9026 52.106 91.9306 51.8531C91.9591 51.6003 92.0433 51.3571 92.1775 51.1407C92.3117 50.9247 92.4923 50.7412 92.7063 50.6043C92.9203 50.4669 93.1619 50.3791 93.414 50.347C93.6661 50.3154 93.9222 50.3404 94.1638 50.4203C94.4049 50.5002 94.6255 50.6328 94.8088 50.8088C94.9925 50.9849 95.1341 51.2 95.224 51.4379C95.3674 51.0533 95.6428 50.7329 96.001 50.534C96.361 50.3334 96.781 50.2702 97.184 50.3554C97.5865 50.4405 97.9452 50.6688 98.1934 50.998C98.4415 51.3268 98.5626 51.7346 98.5341 52.1459C98.5056 52.5573 98.3293 52.9444 98.0382 53.2359L95.224 56.066Z" fill="white"/>
<path d="M58.4588 63.2418L56.1511 61.302" stroke="#56303C" stroke-width="1.3733" stroke-miterlimit="10" stroke-linecap="round"/>
<path d="M96.4307 21.7219C99.1777 21.7219 101.404 19.9856 101.404 17.8438C101.404 15.7019 99.1777 13.9657 96.4307 13.9657C93.684 13.9657 91.457 15.7019 91.457 17.8438C91.457 19.9856 93.684 21.7219 96.4307 21.7219Z" fill="#56303C"/>
<path d="M89.0467 29.8476C93.8178 29.8476 97.686 26.2923 97.686 21.9066C97.686 17.521 93.8178 13.9657 89.0467 13.9657C84.2753 13.9657 80.4075 17.521 80.4075 21.9066C80.4075 26.2923 84.2753 29.8476 89.0467 29.8476Z" fill="#56303C"/>
<path d="M81.0117 23.588C82.3131 20.4337 80.8139 16.8204 77.663 15.5175C74.5122 14.2147 70.9031 15.7156 69.6017 18.8699C68.3003 22.0242 69.7994 25.6375 72.9503 26.9404C76.1012 28.2433 79.7103 26.7424 81.0117 23.588Z" fill="#56303C"/>
<path d="M72.0287 23.2144C73.3393 20.0468 71.8366 16.4153 68.6726 15.1032C65.5085 13.7912 61.881 15.2954 60.5704 18.463C59.2598 21.6306 60.7625 25.2622 63.9265 26.5742C67.0906 27.8863 70.7181 26.3821 72.0287 23.2144Z" fill="#56303C"/>
<path d="M59.7628 19.6946L60.9063 20.8394L59.7597 21.9871C59.387 22.3603 58.8814 22.5699 58.3544 22.5699C57.8274 22.5699 57.3218 22.3603 56.9491 21.9871L55.8055 20.8423L56.9521 19.6946C57.3249 19.3214 57.8304 19.1118 58.3575 19.1118C58.8845 19.1118 59.3901 19.3214 59.7628 19.6946Z" fill="#56303C"/>
<path d="M97.7163 22.8912C97.7461 23.2602 97.8789 23.6134 98.0999 23.9104C98.3205 24.2075 98.62 24.4365 98.9646 24.5713C99.0286 24.6094 99.0821 24.6632 99.1198 24.7276C99.1575 24.792 99.1781 24.8649 99.1803 24.9395C99.1821 25.0141 99.165 25.088 99.1308 25.1542C99.0966 25.2205 99.0462 25.2769 98.9839 25.3183L97.7356 26.1515L97.7663 29.3159C97.7698 29.5187 97.7329 29.7201 97.6575 29.9085C97.5825 30.0969 97.4707 30.2684 97.3287 30.413C97.1866 30.5576 97.0173 30.6725 96.8306 30.7509C96.6438 30.8293 96.4429 30.8697 96.2404 30.8697H93.998V37.4596L87.5152 45.291L79.4919 37.4596L85.3473 27.3234C84.8216 27.323 84.3178 27.1136 83.946 26.7413C83.5741 26.369 83.3654 25.8642 83.3654 25.3378V25.0754C83.3646 24.5022 83.5676 23.9474 83.9381 23.5105C84.3086 23.0736 84.8225 22.7832 85.3877 22.6914C85.9529 22.5996 86.5321 22.7124 87.0219 23.0097C87.5112 23.3068 87.8791 23.7689 88.0589 24.313L88.1409 24.5574C88.1409 24.5574 91.2935 23.7451 92.4651 20.7682C92.8531 19.8302 92.9286 18.7921 92.6804 17.8078L93.8454 17.9203C94.8894 18.0217 95.8598 18.5059 96.5688 19.28C97.2778 20.0541 97.6764 21.0633 97.6873 22.1137L97.7163 22.8912Z" fill="#B4702F"/>
<path d="M95.199 24.2131C95.4292 24.2131 95.6151 23.9346 95.6151 23.591C95.6151 23.2475 95.4292 22.969 95.199 22.969C94.9692 22.969 94.7833 23.2475 94.7833 23.591C94.7833 23.9346 94.9692 24.2131 95.199 24.2131Z" fill="#56303C"/>
<path d="M93.9025 22.2401C93.9025 22.2401 94.7899 21.6583 95.6778 21.693" stroke="#56303C" stroke-width="1.32343" stroke-miterlimit="10" stroke-linecap="round"/>
<path d="M86.9316 25.2973C86.9316 25.2973 86.5751 23.9422 85.1689 24.3337" stroke="#56303C" stroke-width="1.32343" stroke-miterlimit="10" stroke-linecap="round"/>
<path d="M85.7056 25.2266L86.237 24.5268" stroke="#56303C" stroke-width="1.32343" stroke-miterlimit="10" stroke-linecap="round"/>
<path d="M97.7304 27.5066C97.7304 27.5066 96.5211 27.5358 96.1672 26.6138" stroke="#56303C" stroke-width="1.32343" stroke-miterlimit="10"/>
<path d="M93.998 30.8668C93.998 30.8668 92.0148 30.6863 90.7542 29.3394L93.998 33.5397V30.8668Z" fill="#56303C"/>
<path d="M80.1567 81.6585L78.3247 83.9262C78.1265 84.1707 77.842 84.3292 77.5302 84.3687C77.2184 84.4082 76.9032 84.3257 76.6506 84.1387L76.0639 83.6971C75.6649 83.4012 75.1817 83.2418 74.6854 83.2418C74.189 83.2418 73.7058 83.4012 73.3068 83.6971L72.6504 84.1817C71.4604 85.1329 68.8462 84.2036 68.3994 82.5281C68.1429 81.5558 68.1653 80.5632 68.7712 79.2981C69.3969 77.9917 70.0766 77.461 71.5244 77.4307L73.8185 77.1709C74.3013 77.1142 74.7889 77.2275 75.1971 77.4918L79.9848 80.5896C80.0703 80.6453 80.1426 80.7182 80.1983 80.8038C80.2536 80.889 80.2908 80.9855 80.3071 81.0861C80.3233 81.1866 80.318 81.2897 80.2922 81.3881C80.2663 81.4868 80.2202 81.579 80.1567 81.6585Z" fill="#B4702F"/>
<path d="M76.4801 80.5374L79.282 82.3924" stroke="#56303C" stroke-width="1.3733" stroke-miterlimit="10" stroke-linecap="round"/>
<path d="M77.2303 79.6094L80.0304 81.4645" stroke="#56303C" stroke-width="1.3733" stroke-miterlimit="10" stroke-linecap="round"/>
<path d="M75.4786 81.5904L78.4024 83.4236" stroke="#56303C" stroke-width="1.3733" stroke-miterlimit="10" stroke-linecap="round"/>
<path d="M81.7558 33.5339C78.3414 33.5339 70.462 35.8055 68.3705 37.6467L69.3413 37.4481C71.0917 37.0898 72.8973 37.0953 74.6455 37.4643C76.3941 37.8333 78.0481 38.558 79.5047 39.5934L87.52 45.2861L82.0014 39.9058C81.2823 39.2044 80.8175 38.2829 80.6807 37.2872C80.5434 36.2915 80.7425 35.2785 81.2454 34.4087L81.7558 33.5339Z" fill="#FFAFB1"/>
<path d="M87.5161 45.2835L92.2512 39.5628C93.3803 38.1987 93.9981 36.4828 93.9985 34.7112V33.5338L105.233 36.8662L104.621 36.7926C101.19 36.3829 97.7357 37.341 95.004 39.46L87.5161 45.2835Z" fill="#FFAFB1"/>
<path d="M69.3444 37.4479C71.0943 37.0899 72.8991 37.0956 74.6468 37.4646C76.3946 37.8337 78.0481 38.5581 79.5051 39.5932L87.52 45.2861" stroke="#56303C" stroke-width="1.3733" stroke-miterlimit="10" stroke-linecap="round"/>
<path d="M101.835 36.7647C99.3518 36.9998 96.9867 37.9369 95.0153 39.4667L87.5261 45.283" stroke="#56303C" stroke-width="1.3733" stroke-miterlimit="10" stroke-linecap="round"/>
<path d="M87.516 48.0565C88.6438 48.0565 89.5576 47.1412 89.5576 46.0126C89.5576 44.8836 88.6438 43.9688 87.516 43.9688C86.3887 43.9688 85.4745 44.8836 85.4745 46.0126C85.4745 47.1412 86.3887 48.0565 87.516 48.0565Z" fill="#D9AF00"/>
<path d="M86.2428 46.1693C86.2446 45.9885 86.2818 45.8103 86.3524 45.6443C86.423 45.478 86.5256 45.3274 86.6545 45.2014C86.7834 45.075 86.9356 44.9753 87.1031 44.9082C87.2706 44.841 87.4495 44.8076 87.6297 44.8098" stroke="white" stroke-width="1.3733" stroke-miterlimit="10" stroke-linecap="round"/>
<path d="M117.844 40.7627L115.327 14.8348" stroke="#56303C" stroke-width="1.88871" stroke-miterlimit="10" stroke-linecap="round"/>
<path d="M126.081 0.237289L102.223 2.55822L103.763 18.432L127.621 16.1111L126.081 0.237289Z" fill="#EFDFC0"/>
<path d="M109.494 9.34866L111.595 11.4453C112.194 11.9396 112.592 12.8533 112.667 13.6267L112.863 15.6442L108.553 16.0608L108.415 14.4876L105.869 11.5633C105.75 11.3682 105.678 11.1477 105.658 10.9196C105.64 10.6915 105.674 10.4621 105.76 10.2498C106.28 8.96127 107.24 6.72295 107.535 5.99119C107.544 5.96858 107.558 5.94825 107.576 5.93162C107.594 5.91498 107.615 5.90243 107.638 5.89488C107.661 5.88733 107.686 5.88495 107.71 5.88794C107.734 5.89088 107.757 5.89913 107.778 5.91204H107.789C107.964 6.01915 108.102 6.17529 108.189 6.36098C108.275 6.54666 108.305 6.75368 108.274 6.95622L107.997 9.26671C107.978 9.39761 108.008 9.53106 108.083 9.64023L108.326 9.9929L108.742 9.39309C108.784 9.33471 108.839 9.28646 108.902 9.25183C108.965 9.21715 109.035 9.197 109.107 9.19274C109.179 9.18848 109.251 9.20029 109.318 9.22725C109.385 9.2542 109.445 9.29568 109.494 9.34866Z" fill="white"/>
<path d="M109.773 12.3549C109.729 12.3546 109.685 12.3426 109.646 12.3199C109.608 12.2972 109.576 12.2647 109.554 12.2257L108.058 9.53614C108.029 9.47824 108.023 9.41121 108.042 9.34918C108.061 9.28711 108.103 9.23483 108.16 9.20322C108.216 9.17166 108.283 9.16323 108.346 9.17974C108.409 9.19624 108.462 9.23641 108.496 9.29177L109.993 11.9813C110.025 12.0396 110.033 12.1082 110.015 12.1722C109.997 12.2363 109.954 12.2905 109.895 12.3229C109.858 12.3435 109.816 12.3545 109.773 12.3549Z" fill="#EFDFC0"/>
<path d="M120.004 8.32669L118.34 10.7899C117.847 11.3898 117.632 12.3631 117.707 13.1366L117.902 15.1541L122.212 14.7375L122.047 13.1601L123.988 9.79993C124.07 9.58584 124.099 9.35569 124.075 9.12799C124.051 8.90034 123.974 8.68151 123.85 8.48916C123.093 7.32557 121.719 5.31363 121.29 4.65267C121.276 4.63222 121.258 4.61488 121.238 4.60197C121.217 4.58906 121.194 4.58086 121.17 4.57792C121.145 4.57502 121.121 4.57748 121.098 4.58511C121.075 4.59275 121.053 4.60539 121.036 4.62212L121.026 4.6291C120.875 4.76764 120.769 4.94749 120.72 5.14621C120.67 5.34493 120.68 5.55384 120.749 5.74685L121.47 7.96151C121.515 8.08574 121.51 8.22235 121.457 8.34337L121.287 8.73634L120.759 8.22951C120.707 8.17815 120.644 8.13934 120.574 8.11599C120.505 8.09263 120.431 8.08535 120.358 8.0947C120.285 8.10409 120.216 8.12981 120.154 8.16998C120.093 8.21015 120.042 8.26374 120.004 8.32669Z" fill="white"/>
<path d="M120.25 11.3355C120.224 11.3353 120.198 11.3311 120.173 11.323C120.11 11.3023 120.057 11.2574 120.027 11.198C119.997 11.1387 119.991 11.0697 120.012 11.0064L120.963 8.07937C120.973 8.04693 120.988 8.01673 121.01 7.99048C121.031 7.96427 121.057 7.94259 121.087 7.92674C121.117 7.9109 121.149 7.90124 121.183 7.89834C121.216 7.8954 121.251 7.89926 121.283 7.90971C121.315 7.92016 121.344 7.93697 121.369 7.95914C121.395 7.98131 121.416 8.00835 121.43 8.03872C121.445 8.06906 121.454 8.10207 121.455 8.13578C121.457 8.16949 121.452 8.20321 121.44 8.2349L120.489 11.1619C120.473 11.2123 120.441 11.2563 120.398 11.2875C120.355 11.3186 120.303 11.3354 120.25 11.3355Z" fill="#EFDFC0"/>
<path d="M115.002 11.494L110.969 8.16159C110.711 7.94768 110.505 7.67873 110.365 7.37447C110.224 7.07022 110.154 6.73836 110.159 6.40325C110.163 6.06818 110.243 5.73838 110.391 5.43808C110.54 5.13778 110.754 4.87466 111.017 4.66795C111.281 4.46123 111.587 4.31626 111.914 4.24363C112.241 4.171 112.58 4.17257 112.906 4.24823C113.232 4.32388 113.537 4.47168 113.798 4.68081C114.06 4.88998 114.271 5.15507 114.417 5.45674C114.554 4.93607 114.873 4.48182 115.316 4.17652C115.761 3.87062 116.301 3.73563 116.837 3.79634C117.373 3.85705 117.87 4.10938 118.235 4.50698C118.6 4.9046 118.81 5.42078 118.825 5.96081C118.841 6.50079 118.662 7.0283 118.32 7.44647L115.002 11.494Z" fill="#FFAFB1"/>
<path d="M120.85 40.3557C120.947 40.9566 120.821 41.5723 120.497 42.0872C120.172 42.6021 119.672 42.9807 119.088 43.1522L117.607 43.584L118.206 45.1281C118.345 46.0333 117.588 47.1013 115.497 47.4108C113.408 47.7202 111.606 47.2374 111.475 46.3318L110.951 39.9239C110.829 39.055 111.024 38.1713 111.5 37.4344C111.976 36.6976 112.701 36.1568 113.542 35.9111L117.395 34.7878C117.7 34.6989 118.02 34.6758 118.335 34.7201C118.649 34.7643 118.95 34.8749 119.219 35.0445C119.488 35.214 119.717 35.4387 119.893 35.7037C120.068 35.9687 120.185 36.268 120.237 36.5817L120.85 40.3557Z" fill="#B4702F"/>
<path d="M113.794 40.6638C113.794 40.6638 115.639 39.7293 114.864 37.7826C114.864 37.7826 117.463 36.5746 117.221 34.9847" stroke="#56303C" stroke-width="1.3733" stroke-miterlimit="10" stroke-linecap="round"/>
<path d="M115.629 37.4272L116.135 40.2195C116.238 40.7821 116.531 41.2919 116.966 41.6624C117.402 42.0329 117.951 42.2414 118.522 42.2523L119.893 42.2787" stroke="#56303C" stroke-width="1.3733" stroke-miterlimit="10" stroke-linecap="round"/>
<path d="M116.578 40.7637L120.066 39.957" stroke="#56303C" stroke-width="1.3733" stroke-miterlimit="10" stroke-linecap="round"/>
<path d="M116.11 39.1599L119.599 38.3518" stroke="#56303C" stroke-width="1.3733" stroke-miterlimit="10" stroke-linecap="round"/>
<path d="M115.644 37.555L119.132 36.7483" stroke="#56303C" stroke-width="1.3733" stroke-miterlimit="10" stroke-linecap="round"/>
<path d="M159.16 203.89H140.17C139.293 203.89 139.115 202.648 139.958 202.4L143.188 201.456C144.546 201.058 145.794 200.352 146.834 199.391C147.873 198.431 148.677 197.242 149.181 195.919L149.403 195.334L149.56 194.918L157.085 195.163L158.181 197.095L160.615 201.381C160.762 201.636 160.838 201.925 160.838 202.219C160.837 202.513 160.759 202.802 160.612 203.056C160.464 203.31 160.253 203.522 159.998 203.668C159.743 203.814 159.454 203.891 159.16 203.89Z" fill="#A0D6FF"/>
<path d="M139.357 203.891H161.393" stroke="#56303C" stroke-width="1.71912" stroke-miterlimit="10" stroke-linecap="round"/>
<path d="M149.921 199.051L149.038 198.156C148.942 198.057 148.826 197.98 148.698 197.93C148.57 197.88 148.432 197.857 148.295 197.865C148.158 197.872 148.023 197.908 147.901 197.971C147.778 198.034 147.671 198.123 147.585 198.23L147.255 198.647C147.192 198.726 147.112 198.79 147.021 198.834C146.93 198.877 146.83 198.9 146.729 198.9C146.628 198.9 146.529 198.877 146.437 198.834C146.347 198.79 146.266 198.726 146.204 198.647" stroke="#56303C" stroke-width="1.71912" stroke-miterlimit="10" stroke-linecap="round"/>
<path d="M158.181 197.102C158.181 197.102 154.144 198.846 149.403 195.334L149.56 194.918L157.085 195.163L158.181 197.102Z" fill="#B4702F"/>
<path d="M208.411 203.89H190.852C190.556 203.89 190.264 203.82 190 203.684C189.736 203.548 189.509 203.351 189.337 203.11C189.164 202.868 189.052 202.589 189.009 202.295C188.966 202.002 188.994 201.702 189.09 201.421L190.649 196.847L191.286 194.979L198.969 194.721C199.098 194.998 199.236 195.261 199.385 195.522C200.902 198.223 203.322 200.304 206.218 201.398L208.695 202.335C208.872 202.401 209.02 202.526 209.114 202.691C209.207 202.855 209.239 203.047 209.206 203.232C209.171 203.418 209.073 203.586 208.928 203.706C208.783 203.827 208.6 203.892 208.411 203.89Z" fill="#A0D6FF"/>
<path d="M188.397 203.891H209.696" stroke="#56303C" stroke-width="1.71912" stroke-miterlimit="10" stroke-linecap="round"/>
<path d="M202.926 199.051L202.043 198.156C201.947 198.057 201.831 197.98 201.703 197.93C201.575 197.88 201.438 197.857 201.3 197.865C201.163 197.872 201.028 197.908 200.906 197.971C200.783 198.034 200.676 198.123 200.59 198.23L200.261 198.647C200.198 198.726 200.118 198.79 200.027 198.834C199.936 198.877 199.836 198.9 199.735 198.9C199.634 198.9 199.534 198.877 199.443 198.834C199.352 198.79 199.272 198.726 199.209 198.647" stroke="#56303C" stroke-width="1.71912" stroke-miterlimit="10" stroke-linecap="round"/>
<path d="M199.391 195.538C199.391 195.538 193.027 198.94 190.654 196.847L191.292 194.979L198.974 194.721L199.39 195.522L199.391 195.538Z" fill="#B4702F"/>
<path d="M200.881 192.656C200.916 192.899 200.899 193.147 200.832 193.384C200.766 193.621 200.651 193.841 200.494 194.03C200.337 194.22 200.142 194.374 199.923 194.484C199.703 194.594 199.462 194.656 199.217 194.667L190.895 195.02C188.431 195.115 186.884 193.38 186.443 190.952L171.305 107.6L161.847 192.095C161.748 192.976 161.321 193.787 160.65 194.367C159.979 194.946 159.115 195.251 158.23 195.22L147.761 194.851C147.435 194.84 147.115 194.761 146.821 194.619C146.527 194.477 146.266 194.276 146.053 194.028C145.841 193.78 145.682 193.491 145.587 193.178C145.492 192.866 145.463 192.537 145.502 192.213L157.965 85.28C158.006 84.924 158.177 84.5956 158.445 84.3573C158.712 84.1189 159.058 83.9872 159.415 83.9872H185.352L200.881 192.656Z" fill="#56303C"/>
<path d="M174.788 128.772L171.027 105.834L169.363 104.902C169.116 104.791 168.895 104.629 168.715 104.428C168.535 104.225 168.399 103.987 168.317 103.729" stroke="white" stroke-width="1.71912" stroke-miterlimit="10" stroke-linecap="round"/>
<path d="M170.539 86.366C170.653 85.8801 170.352 85.3933 169.867 85.2787C169.382 85.1641 168.896 85.4648 168.781 85.9508C168.666 86.4367 168.967 86.9235 169.453 87.0381C169.937 87.1531 170.424 86.852 170.539 86.366Z" stroke="white" stroke-width="1.3733" stroke-miterlimit="10" stroke-linecap="round"/>
<path d="M163.398 89.3098H186.544" stroke="white" stroke-width="1.3733" stroke-miterlimit="10" stroke-linecap="round"/>
<path d="M216.607 70.545C216.604 72.4058 215.971 74.2104 214.812 75.6652C213.653 77.1204 212.037 78.1401 210.226 78.5585C208.415 78.9768 206.516 78.7696 204.837 77.9698C203.159 77.1704 201.801 75.8259 200.982 74.1551L194.206 58.2165C194.016 57.9891 193.766 57.8201 193.484 57.7288C193.203 57.6371 192.901 57.627 192.614 57.6998C192.327 57.7723 192.066 57.9241 191.862 58.1384C191.657 58.3526 191.518 58.6203 191.458 58.9105L188.635 81.349C188.542 82.0781 188.186 82.7484 187.635 83.234C187.085 83.7195 186.376 83.9877 185.642 83.9872H160.503C159.312 83.9864 158.163 83.5513 157.27 82.7638C156.377 81.9763 155.8 80.8898 155.649 79.7081L152.911 58.4259C152.849 58.1673 152.723 57.9285 152.544 57.7319C152.364 57.5352 152.139 57.3873 151.887 57.3017C151.635 57.2161 151.366 57.1959 151.104 57.2424C150.843 57.2894 150.597 57.4018 150.391 57.5694L136.7 68.4415L155.545 86.0759L149.003 92.9085L130.248 80.2257C128.633 79.0159 127.287 77.4834 126.294 75.7258C125.301 73.9677 124.683 72.0226 124.48 70.0134C124.277 68.0047 124.492 65.9749 125.113 64.0535C125.734 62.1321 126.746 60.3604 128.086 58.8508L142.262 42.883C144.133 40.7742 146.418 39.0732 148.974 37.886C151.53 36.6989 154.303 36.0508 157.12 35.9821L184.462 35.3142C189.146 35.1987 193.728 36.689 197.45 39.5381C199.553 41.1614 201.185 43.3188 202.175 45.7866L204.382 51.2237L205.93 37.9413L213.097 40.5975L216.548 69.5538C216.588 69.8826 216.607 70.2136 216.607 70.545Z" fill="#EFDFC0"/>
<path d="M134.894 66.4573L136.644 68.2316L134.553 68.4344" stroke="white" stroke-width="1.71912" stroke-linecap="round" stroke-linejoin="round"/>
<path d="M182.556 56.4821L179.741 53.6595C179.562 53.4782 179.425 53.2592 179.341 53.0182C179.257 52.7772 179.228 52.5204 179.256 52.2667C179.284 52.0129 179.368 51.7684 179.503 51.552C179.637 51.3352 179.819 51.1512 180.033 51.0134C180.248 50.876 180.491 50.7882 180.744 50.757C180.997 50.7254 181.254 50.7513 181.496 50.8321C181.738 50.9129 181.958 51.0468 182.142 51.2241C182.325 51.4019 182.467 51.6179 182.556 51.8571C182.698 51.4726 182.974 51.1517 183.332 50.9533C183.586 50.8115 183.873 50.7377 184.164 50.7395C184.502 50.7395 184.832 50.8396 185.112 51.027C185.393 51.2144 185.612 51.4809 185.741 51.7926C185.871 52.1047 185.905 52.448 185.841 52.7794C185.776 53.1108 185.614 53.4154 185.377 53.6551L182.556 56.4821Z" fill="white"/>
<path d="M154.846 85.3107L151.858 82.6251L148.467 92.556L154.846 85.3107Z" fill="#A0D6FF"/>
<path d="M204.172 49.9076L202.408 65.4828" stroke="white" stroke-width="1.80225" stroke-linecap="round" stroke-linejoin="round"/>
<path d="M214.088 41.1554L215.749 15.0165" stroke="#56303C" stroke-width="1.88871" stroke-miterlimit="10" stroke-linecap="round"/>
<path d="M229.452 2.12102L204.791 0L203.341 16.8902L228.003 19.0112L229.452 2.12102Z" fill="#EFDFC0"/>
<path d="M219.314 11.0531C221.235 9.43425 221.481 6.56298 219.864 4.63984C218.247 2.71673 215.379 2.47006 213.458 4.0889C211.537 5.70773 211.291 8.57905 212.908 10.5022C214.525 12.4253 217.393 12.6719 219.314 11.0531Z" fill="#A0D6FF"/>
<path d="M215.955 4.96785L215.471 4.92619C215.394 4.91943 215.317 4.94112 215.255 4.98717C215.193 5.03321 215.15 5.10042 215.134 5.1761L214.94 6.09395C214.919 6.19043 214.87 6.27849 214.799 6.34662C214.727 6.41475 214.637 6.45974 214.54 6.47576L213.521 6.64657C213.427 6.66198 213.342 6.70702 213.276 6.77506C213.211 6.84314 213.169 6.9305 213.157 7.02426L213.119 7.3311C213.108 7.4221 213.13 7.5138 213.181 7.59001C213.232 7.66626 213.308 7.72205 213.396 7.74764L213.673 7.82679C213.725 7.84145 213.772 7.86827 213.81 7.90501C213.85 7.94176 213.879 7.98732 213.896 8.03785L213.973 8.25308L214.024 8.40167L213.925 8.28086L213.787 8.11282C213.737 8.0504 213.666 8.00844 213.587 7.99483L212.842 7.85598C212.791 7.84654 212.743 7.82547 212.702 7.79439C212.66 7.76336 212.626 7.7231 212.603 7.67684L211.977 6.46049C212.16 5.73539 212.519 5.06653 213.021 4.51299C213.523 3.9594 214.154 3.53814 214.858 3.28635L214.497 3.91951C214.482 3.94721 214.474 3.97832 214.473 4.00996C214.473 4.04159 214.482 4.07273 214.497 4.10045C214.512 4.12817 214.534 4.15157 214.561 4.16849C214.587 4.18541 214.618 4.1953 214.65 4.19721L215.446 4.24026C215.519 4.24421 215.589 4.27365 215.644 4.32357L216.06 4.70956C216.094 4.72356 216.122 4.7506 216.136 4.78471C216.15 4.81882 216.15 4.85723 216.136 4.89147C216.123 4.92571 216.095 4.95301 216.061 4.96732C216.027 4.98163 215.989 4.98185 215.955 4.96785Z" fill="#A0D6FF"/>
<path d="M216.674 9.55005L216.632 10.0416C216.626 10.1188 216.592 10.191 216.536 10.2443L215.961 10.7567C215.924 10.7898 215.879 10.8119 215.83 10.8205C215.78 10.829 215.73 10.8238 215.684 10.8053L215.47 10.7192C215.455 10.7128 215.438 10.7102 215.422 10.7114C215.405 10.7125 215.389 10.7176 215.375 10.7261C215.361 10.7346 215.349 10.7463 215.339 10.7603C215.331 10.7743 215.325 10.7902 215.323 10.8067L215.246 11.4815C215.24 11.5321 215.246 11.5834 215.263 11.6314C215.279 11.6796 215.306 11.7232 215.343 11.7592L215.652 12.0675C215.351 12.018 215.055 11.9385 214.77 11.83L214.316 11.3663C214.268 11.3146 214.239 11.2471 214.236 11.1761L214.215 10.4401L213.415 9.94996C213.345 9.90703 213.288 9.84526 213.251 9.77165C213.214 9.69803 213.198 9.6155 213.205 9.53342L213.264 8.85858C213.269 8.79586 213.289 8.73528 213.322 8.68207C213.356 8.62887 213.402 8.58462 213.457 8.5531L213.927 8.27541L213.974 8.24762L214.454 7.96993C214.501 7.94328 214.555 7.93117 214.61 7.93512C214.664 7.93907 214.716 7.95891 214.759 7.99214L215.381 8.49481C215.45 8.5506 215.494 8.6315 215.504 8.71974L215.53 8.98773C215.534 9.02311 215.55 9.05608 215.575 9.08127C215.6 9.10647 215.633 9.12245 215.669 9.12658L216.38 9.18768C216.424 9.19128 216.466 9.20362 216.504 9.22398C216.543 9.24431 216.577 9.27227 216.604 9.30612C216.632 9.33996 216.652 9.37903 216.664 9.42095C216.676 9.46287 216.679 9.50682 216.674 9.55005Z" fill="#A0D6FF"/>
<path d="M218.763 3.69175L218.452 3.76117C218.417 3.76973 218.38 3.77208 218.344 3.76812L217.696 3.71258C217.635 3.70713 217.574 3.72071 217.522 3.75146L216.774 4.17634C216.747 4.19193 216.716 4.20175 216.685 4.20522C216.653 4.20868 216.622 4.20571 216.591 4.19649C216.561 4.18727 216.533 4.17199 216.509 4.15157C216.485 4.13116 216.465 4.10605 216.451 4.07776L216.312 3.80005C216.289 3.75394 216.279 3.70244 216.282 3.65091C216.285 3.59938 216.302 3.54972 216.332 3.50708L216.398 3.40849C216.41 3.39129 216.418 3.37188 216.422 3.35141C216.426 3.33094 216.426 3.30984 216.422 3.28936C216.419 3.26889 216.41 3.24946 216.398 3.23223C216.387 3.21501 216.371 3.20034 216.354 3.18911L216.105 3.02387C216.329 3.01072 216.554 3.01351 216.777 3.0322C217.481 3.09401 218.161 3.31987 218.763 3.69175Z" fill="#A0D6FF"/>
<path d="M220.918 7.963C220.861 8.62492 220.66 9.26639 220.329 9.84215C219.998 10.4179 219.545 10.914 219.001 11.2954L219.254 10.4929L219.276 9.94439C219.28 9.85023 219.247 9.75822 219.185 9.68759C219.123 9.61691 219.036 9.57315 218.942 9.56533L218.365 9.51533C218.313 9.51068 218.263 9.49519 218.217 9.46986C218.172 9.44448 218.132 9.40985 218.101 9.36815L217.786 8.95161C217.732 8.87874 217.706 8.78835 217.713 8.69749L217.784 7.87828C217.793 7.76678 217.838 7.66116 217.911 7.5764C217.983 7.49163 218.082 7.43206 218.19 7.40616L219.577 7.07294C219.674 7.04954 219.776 7.06447 219.863 7.1146L220.747 7.62696C220.805 7.66037 220.853 7.70954 220.884 7.76875C220.915 7.82797 220.929 7.89483 220.924 7.96159L220.918 7.963Z" fill="#A0D6FF"/>
<path d="M210.935 9.40282L212.62 11.848C213.121 12.4423 213.346 13.4129 213.281 14.1863L213.107 16.2052L208.792 15.8344L208.939 14.2612L206.966 10.9288C206.885 10.7145 206.855 10.4841 206.879 10.2562C206.903 10.0283 206.98 9.80923 207.104 9.61665C207.849 8.44472 209.2 6.42304 209.622 5.75242C209.635 5.73179 209.652 5.71432 209.673 5.70115C209.694 5.68798 209.716 5.67946 209.74 5.67613C209.765 5.67283 209.79 5.67485 209.813 5.68201C209.836 5.68921 209.858 5.70137 209.875 5.7177L209.884 5.72463C210.036 5.8612 210.143 6.03916 210.195 6.23656C210.246 6.43397 210.239 6.64217 210.174 6.83545L209.48 9.05709C209.437 9.18185 209.443 9.31837 209.497 9.43891L209.672 9.82911L210.193 9.31674C210.245 9.2674 210.307 9.23009 210.374 9.20739C210.442 9.1847 210.513 9.17715 210.585 9.1854C210.655 9.19361 210.724 9.21736 210.784 9.25494C210.845 9.29251 210.896 9.34299 210.935 9.40282Z" fill="white"/>
<path d="M210.71 12.4144C210.658 12.414 210.607 12.3974 210.565 12.3669C210.522 12.3363 210.49 12.2932 210.473 12.2436L209.49 9.32771C209.48 9.29655 209.475 9.26358 209.477 9.23079C209.48 9.19795 209.488 9.16591 209.503 9.13645C209.518 9.10696 209.538 9.08066 209.563 9.05906C209.588 9.03742 209.616 9.02092 209.648 9.01043C209.679 8.99993 209.712 8.99572 209.744 8.99796C209.777 9.0002 209.809 9.00889 209.838 9.02351C209.868 9.03817 209.894 9.05845 209.916 9.08325C209.937 9.10805 209.954 9.13685 209.964 9.16802L210.949 12.0839C210.96 12.1152 210.964 12.1482 210.962 12.1812C210.96 12.2142 210.951 12.2464 210.936 12.2759C210.921 12.3055 210.901 12.3319 210.876 12.3535C210.851 12.3751 210.822 12.3916 210.791 12.4019C210.765 12.4108 210.738 12.4151 210.71 12.4144Z" fill="#EFDFC0"/>
<path d="M221.45 10.3079L219.369 12.4281C218.777 12.928 218.389 13.8458 218.322 14.6206L218.148 16.6395L222.463 17.0103L222.585 15.4357L225.099 12.4837C225.216 12.2869 225.286 12.0654 225.302 11.8368C225.319 11.6081 225.281 11.3789 225.193 11.1674C224.659 9.88575 223.674 7.65717 223.371 6.92957C223.361 6.90706 223.347 6.88682 223.329 6.87036C223.311 6.85385 223.289 6.84147 223.266 6.83405C223.243 6.82668 223.218 6.8244 223.194 6.82747C223.17 6.83054 223.147 6.83888 223.126 6.85183H223.117C222.943 6.96101 222.806 7.11895 222.721 7.30586C222.637 7.49282 222.609 7.70045 222.642 7.90295L222.949 10.2107C222.97 10.3409 222.941 10.4743 222.869 10.5842L222.628 10.9396L222.202 10.3439C222.16 10.2857 222.105 10.2377 222.041 10.2035C221.977 10.1693 221.907 10.1497 221.835 10.1463C221.763 10.1429 221.69 10.1555 221.624 10.1835C221.557 10.2115 221.498 10.2539 221.45 10.3079Z" fill="white"/>
<path d="M221.198 13.3155C221.157 13.3154 221.116 13.3054 221.079 13.2863C221.021 13.2543 220.977 13.2004 220.958 13.1364C220.939 13.0724 220.946 13.0035 220.978 12.9448L222.445 10.2441C222.46 10.2133 222.481 10.1859 222.506 10.1634C222.532 10.1409 222.562 10.1239 222.594 10.1133C222.626 10.1028 222.661 10.0989 222.694 10.102C222.729 10.1051 222.761 10.115 222.791 10.1312C222.821 10.1475 222.847 10.1696 222.869 10.1963C222.89 10.223 222.905 10.2538 222.914 10.2867C222.923 10.3195 222.925 10.3539 222.921 10.3876C222.916 10.4214 222.904 10.4538 222.886 10.4829L221.419 13.1891C221.397 13.2279 221.364 13.2601 221.326 13.2823C221.287 13.3045 221.243 13.316 221.198 13.3155Z" fill="#EFDFC0"/>
<path d="M217.425 37.419C217.389 38.1174 217.099 38.7785 216.609 39.2774C216.119 39.7763 215.464 40.0784 214.767 40.1266L213.103 40.2433L213.201 41.4832C213.131 42.5315 211.178 43.137 208.763 42.9731C206.349 42.8093 205.46 41.8345 205.46 41.8345L206.43 34.5198C206.505 33.5152 206.938 32.5711 207.652 31.8606C208.365 31.1501 209.31 30.7208 210.314 30.6514L214.91 30.332C215.272 30.3091 215.635 30.363 215.976 30.4903C216.315 30.6177 216.625 30.8155 216.883 31.0709C217.141 31.3264 217.343 31.6335 217.474 31.9723C217.605 32.3111 217.664 32.6739 217.645 33.0369L217.425 37.419Z" fill="#B4702F"/>
<path d="M209.436 36.0429C209.436 36.0429 211.732 35.4458 211.337 33.0729C211.337 33.0729 214.546 32.3522 214.666 30.511" stroke="#56303C" stroke-width="1.57614" stroke-miterlimit="10" stroke-linecap="round"/>
<path d="M212.282 32.8619L212.171 36.1152C212.148 36.7711 212.353 37.4147 212.75 37.9366C213.148 38.4586 213.714 38.8266 214.351 38.9783L215.877 39.3421" stroke="#56303C" stroke-width="1.57614" stroke-miterlimit="10" stroke-linecap="round"/>
<path d="M212.533 36.8346L216.643 36.7804" stroke="#56303C" stroke-width="1.57614" stroke-miterlimit="10" stroke-linecap="round"/>
<path d="M212.4 34.9208L216.509 34.8667" stroke="#56303C" stroke-width="1.57614" stroke-miterlimit="10" stroke-linecap="round"/>
<path d="M212.267 33.0077L216.376 32.9535" stroke="#56303C" stroke-width="1.57614" stroke-miterlimit="10" stroke-linecap="round"/>
<path d="M162.117 18.3962L159.679 15.8635C159.031 15.18 158.669 14.2734 158.669 13.3308C158.669 12.3883 159.031 11.4817 159.679 10.7982C159.993 10.4669 160.371 10.2032 160.791 10.0229C161.21 9.84268 161.661 9.74971 162.117 9.74971C162.573 9.74971 163.025 9.84268 163.444 10.0229C163.863 10.2032 164.241 10.4669 164.555 10.7982L165.231 11.5008L165.912 10.7996C166.226 10.4684 166.604 10.2046 167.023 10.0244C167.442 9.84418 167.893 9.7512 168.349 9.7512C168.805 9.7512 169.257 9.84418 169.676 10.0244C170.095 10.2046 170.473 10.4684 170.787 10.7996L171.463 11.5022L172.138 10.801C172.452 10.4696 172.83 10.2057 173.249 10.0253C173.668 9.84497 174.119 9.75199 174.575 9.75199C175.032 9.75199 175.483 9.84497 175.902 10.0253C176.321 10.2057 176.699 10.4696 177.013 10.801C177.73 11.5569 178.205 12.5101 178.376 13.5382C178.547 14.5662 178.408 15.6221 177.976 16.5703L174.37 24.4682L162.117 18.3962Z" fill="#D9AF00"/>
<path d="M180.422 35.3845C173.21 36.8425 172.474 42.9117 172.474 42.9117C169.742 35.6456 163.773 35.7928 163.773 35.7928V27.2034L163.441 27.1854C163.046 27.163 162.661 27.0614 162.308 26.8864C161.954 26.7115 161.639 26.4669 161.382 26.1673C161.125 25.8677 160.931 25.5193 160.812 25.1428C160.692 24.7663 160.65 24.3697 160.687 23.9765L161.411 16.4049C161.472 15.7652 161.768 15.171 162.243 14.7385C162.718 14.3061 163.337 14.0665 163.979 14.0666H165.829C166.467 14.0668 167.098 14.1994 167.682 14.4561C168.266 14.7128 168.791 15.088 169.223 15.5579L169.908 19.0681C170.007 19.5765 170.28 20.0345 170.679 20.3638C171.079 20.6931 171.581 20.8731 172.098 20.8731L172.134 20.7343C172.298 20.0883 172.672 19.5154 173.198 19.1063C173.723 18.6971 174.37 18.4751 175.035 18.4752H175.16C175.954 18.4752 176.715 18.7909 177.277 19.3528C177.838 19.9147 178.153 20.6769 178.153 21.4716C178.153 22.2663 177.838 23.0284 177.277 23.5904C176.715 24.1523 175.954 24.468 175.16 24.468H174.755L180.422 35.3845Z" fill="#B4702F"/>
<path d="M163.773 27.2037C163.773 27.2037 167.456 27.294 169.642 26.2942L163.773 31.1277V27.2037Z" fill="#56303C"/>
<path d="M166.908 20.7027C166.908 21.0374 166.707 21.3095 166.457 21.3095C166.207 21.3095 166.005 21.0318 166.005 20.7027C166.005 20.3737 166.207 20.0959 166.457 20.0959C166.707 20.0959 166.908 20.3681 166.908 20.7027Z" fill="#56303C"/>
<path d="M162.389 20.7025C162.389 20.9996 162.21 21.2398 161.988 21.2398C161.767 21.2398 161.589 20.9996 161.589 20.7025C161.589 20.4054 161.768 20.1651 161.988 20.1651C162.209 20.1651 162.389 20.4054 162.389 20.7025Z" fill="#56303C"/>
<path d="M163.33 19.1433V21.8772C163.33 22.0113 163.374 22.1416 163.455 22.2482C163.536 22.3548 163.65 22.4318 163.779 22.4674L164.068 22.5465" stroke="#56303C" stroke-width="1.3733" stroke-miterlimit="10" stroke-linecap="round"/>
<path d="M163.532 24.0116C163.532 24.0116 164.919 24.1893 165.578 23.2854" stroke="#56303C" stroke-width="1.3733" stroke-miterlimit="10" stroke-linecap="round"/>
<path d="M165.026 17.7866H167.056C167.36 17.7866 167.651 17.9074 167.866 18.1225C168.081 18.3376 168.202 18.6293 168.202 18.9335V19.1431H166.051C165.779 19.1431 165.519 19.0353 165.328 18.8434C165.136 18.6515 165.028 18.3912 165.028 18.1198V17.7866H165.026Z" fill="#D9AF00"/>
<path d="M163.614 19.1431H161.682C161.553 19.1431 161.426 19.1178 161.307 19.0685C161.188 19.0193 161.08 18.947 160.99 18.856C160.899 18.765 160.826 18.6569 160.777 18.538C160.728 18.419 160.703 18.2916 160.703 18.1629V17.7866H162.259C162.618 17.7866 162.963 17.9295 163.217 18.1839C163.471 18.4383 163.614 18.7834 163.614 19.1431Z" fill="#D9AF00"/>
<path d="M175.685 20.5484C175.685 20.5484 174.239 20.4206 174.127 21.9369" stroke="#56303C" stroke-width="1.3733" stroke-miterlimit="10" stroke-linecap="round"/>
<path d="M175.497 21.9342L174.69 20.9566" stroke="#56303C" stroke-width="1.3733" stroke-miterlimit="10" stroke-linecap="round"/>
<path d="M171.721 41.1152L172.068 42.9106L170.501 41.429C167.24 38.341 162.155 36.1526 157.495 35.9458L163.773 32.1426L168.095 35.3501C169.981 36.7503 171.275 38.8072 171.721 41.1152Z" fill="#A0D6FF"/>
<path d="M170.501 41.4289C167.239 38.3408 161.951 35.9443 157.292 35.736" stroke="#56303C" stroke-width="1.3733" stroke-miterlimit="10" stroke-linecap="round"/>
<path d="M172.115 41.1082L171.917 42.9133L173.483 41.4317C176.744 38.3439 180.958 36.4591 185.431 36.0873L189.939 36.0512L180.83 32.8159C180.182 32.5861 179.484 32.5333 178.809 32.6632C178.134 32.793 177.506 33.1007 176.99 33.5546L175.253 35.082C173.493 36.6285 172.374 38.7779 172.115 41.1082Z" fill="#A0D6FF"/>
<path d="M173.483 41.4289C176.745 38.3411 180.959 36.4563 185.432 36.0845" stroke="#56303C" stroke-width="1.3733" stroke-miterlimit="10" stroke-linecap="round"/>
<path d="M173.887 43.6913C174.068 42.5771 173.312 41.5272 172.199 41.3464C171.086 41.1655 170.038 41.9222 169.857 43.0364C169.676 44.1505 170.432 45.2005 171.545 45.3814C172.658 45.5622 173.707 44.8055 173.887 43.6913Z" fill="#D9AF00"/>
<path d="M170.589 43.516C170.59 43.3355 170.628 43.1571 170.698 42.991C170.769 42.8249 170.871 42.6744 171 42.5481C171.129 42.4218 171.282 42.3222 171.449 42.2551C171.616 42.1879 171.795 42.1544 171.976 42.1566" stroke="white" stroke-width="1.3733" stroke-miterlimit="10" stroke-linecap="round"/>
<path d="M148.467 92.5555L154.847 85.3103C155.312 84.7673 155.958 84.4113 156.665 84.3094C157.372 84.2072 158.093 84.3656 158.692 84.755L162.201 87.0293C162.308 87.0991 162.399 87.1908 162.468 87.2988C162.537 87.4068 162.582 87.5284 162.6 87.6553C162.618 87.7821 162.608 87.9112 162.572 88.0341C162.536 88.157 162.474 88.2707 162.39 88.3677L159.829 91.3339L155.875 91.1947L155.291 92.1947C154.657 93.6108 151.849 94.4497 150.528 93.6358L148.467 92.5555Z" fill="#B4702F"/>
<path d="M160.558 90.6675L156.322 88.9151" stroke="#56303C" stroke-width="1.3733" stroke-miterlimit="10" stroke-linecap="round"/>
<path d="M161.535 89.5148L157.134 87.6943" stroke="#56303C" stroke-width="1.3733" stroke-miterlimit="10" stroke-linecap="round"/>
<path d="M162.471 88.4301L157.744 86.4753" stroke="#56303C" stroke-width="1.3733" stroke-miterlimit="10" stroke-linecap="round"/>
</g>
<defs>
<clipPath id="clip0_3_1206">
<rect width="253" height="205" fill="white"/>
</clipPath>
</defs>
</svg>
