<svg width="95" height="35" viewBox="0 0 95 35" fill="none" xmlns="http://www.w3.org/2000/svg">
<g clip-path="url(#clip0_3_1384)">
<path d="M53.1762 33.5316C62.3843 33.5316 69.8492 26.0253 69.8492 16.7658C69.8492 7.50631 62.3843 0 53.1762 0C43.9682 0 36.5033 7.50631 36.5033 16.7658C36.5033 26.0253 43.9682 33.5316 53.1762 33.5316Z" fill="#F5EFD9"/>
<path d="M94.9611 16.5947H60.1039C60.1039 13.4866 63.2794 10.9673 67.1953 10.9673C68.0483 10.9657 68.8967 11.0888 69.7144 11.3329C71.0133 9.416 73.0067 8.1947 75.2425 8.1947C78.5986 8.1947 81.4105 10.9564 82.1455 14.6683C83.435 13.755 85.5172 13.0334 87.8644 13.0334C91.786 13.0334 94.9611 15.0407 94.9611 16.5947Z" fill="#EFDFC0"/>
<path d="M36.1371 34.8297H0C0 30.4702 4.79832 26.9363 10.7158 26.9363C14.5774 26.9363 17.9623 28.4424 19.8496 30.6975C21.6505 30.1209 23.5298 29.8294 25.4199 29.8335C31.3374 29.8349 36.1371 32.6513 36.1371 34.8297Z" fill="#EFDFC0"/>
</g>
<defs>
<clipPath id="clip0_3_1384">
<rect width="95" height="35" fill="white"/>
</clipPath>
</defs>
</svg>
