<svg width="268" height="163" viewBox="0 0 268 163" fill="none" xmlns="http://www.w3.org/2000/svg">
<g clip-path="url(#clip0_3_1842)">
<path d="M267.982 142.194V162.065L0.708544 152.66C-0.283904 152.566 -0.211435 151.095 0.785928 151.097L200.565 151.682C206.736 151.701 209.076 143.626 203.854 140.34L183.755 127.694C181.445 126.686 181.847 123.671 184.329 123.232L221.161 117.213H226.882L196.757 124.402C195.842 124.578 195.835 125.886 196.749 126.07L267.982 142.194Z" fill="#F5EFD9"/>
<path d="M255.106 51.1224H242.046V60.2044H255.106V51.1224Z" fill="#F5EFD9"/>
<path d="M242.106 117.037V50.5026" stroke="#56303C" stroke-width="0.711082" stroke-miterlimit="10"/>
<path d="M250.981 54.5733V56.5667H249.654V57.8932H247.66V56.5667H246.334V54.5733H247.66V53.2467H249.654V54.5733H250.981Z" fill="#FFAFB1"/>
<path d="M245.732 117.485H206.291V75.5582H234.426L245.732 117.485Z" fill="#EFDFC0"/>
<path d="M217.596 117.486H155.336L164.758 75.5586L185.525 66.1364L206.291 75.5586L217.596 117.486Z" fill="#F5EFD9"/>
<path d="M206.291 75.5586L185.525 66.1364H213.66L234.426 75.5586H206.291Z" fill="#EFDFC0"/>
<path d="M185.525 66.1364L206.291 75.5586H234.426" stroke="#F5EFD9" stroke-width="0.569128" stroke-miterlimit="10"/>
<path d="M197.019 66.1364L217.785 75.5586" stroke="#F5EFD9" stroke-width="0.569128" stroke-miterlimit="10"/>
<path d="M206.629 66.1364L227.396 75.5586" stroke="#F5EFD9" stroke-width="0.569128" stroke-miterlimit="10"/>
<path d="M198.135 88.61H171.783V117.484H198.135V88.61Z" fill="#B4702F"/>
<path d="M171.846 83.7701H197.762V88.6096H171.846C171.229 88.6096 170.638 88.3649 170.202 87.9289C169.767 87.4933 169.521 86.9019 169.521 86.2857V86.0928C169.522 85.4766 169.767 84.886 170.203 84.4504C170.639 84.0148 171.229 83.7701 171.846 83.7701Z" fill="white"/>
<path d="M197.74 88.6096C198.973 88.6096 199.971 87.5261 199.971 86.1901C199.971 84.8536 198.973 83.7701 197.74 83.7701C196.507 83.7701 195.508 84.8536 195.508 86.1901C195.508 87.5261 196.507 88.6096 197.74 88.6096Z" fill="#A0D6FF"/>
<path d="M174.706 88.61H198.135V103.547L174.706 88.61Z" fill="#56303C"/>
<path d="M193.794 88.61V93.8581" stroke="#F5EFD9" stroke-width="0.498152" stroke-miterlimit="10"/>
<path d="M174.676 88.61V91.5675" stroke="#F5EFD9" stroke-width="0.498152" stroke-miterlimit="10"/>
<path d="M224.805 86.8008H253.165L267.982 117.518H239.623L224.805 86.8008Z" fill="#F5EFD9"/>
<path d="M209.541 117.518H239.623L224.805 86.8008H224.683L209.541 117.518Z" fill="#A0D6FF"/>
<path d="M224.871 86.8008L209.352 117.518" stroke="white" stroke-width="0.569128" stroke-miterlimit="10"/>
<path d="M220.07 117.518H230.72C227.86 116.039 225.407 113.879 223.578 111.228C221.749 108.578 220.601 105.517 220.235 102.318L220.07 100.881V117.518Z" fill="#56303C"/>
<path d="M230.399 117.518C224.59 114.514 220.572 107.726 219.836 101.229" stroke="white" stroke-width="0.711082" stroke-miterlimit="10" stroke-linecap="round"/>
<path d="M230.399 117.518V101.602" stroke="#56303C" stroke-width="0.711082" stroke-miterlimit="10"/>
<path d="M129.363 30.0805C137.67 30.0805 144.403 23.3468 144.403 15.0403C144.403 6.73376 137.67 0 129.363 0C121.056 0 114.323 6.73376 114.323 15.0403C114.323 23.3468 121.056 30.0805 129.363 30.0805Z" fill="#F5EFD9"/>
<path d="M167.057 14.8868H135.613C135.613 12.0986 138.477 9.83858 142.01 9.83858C142.779 9.83708 143.544 9.94756 144.282 10.1665C145.454 8.44692 147.252 7.35132 149.269 7.35132C152.296 7.35132 154.833 9.82874 155.496 13.1586C156.659 12.3393 158.537 11.692 160.655 11.692C164.192 11.692 167.057 13.4927 167.057 14.8868Z" fill="#EFDFC0"/>
<path d="M113.993 31.245H81.3942C81.3942 27.3341 85.7225 24.1639 91.0607 24.1639C94.544 24.1639 97.5975 25.515 99.3 27.538C100.925 27.0208 102.62 26.7593 104.325 26.763C109.663 26.7642 113.993 29.2908 113.993 31.245Z" fill="#EFDFC0"/>
<path d="M26.3266 148.474C26.3264 149.542 25.9737 150.58 25.3232 151.427C24.6728 152.274 23.7608 152.883 22.729 153.159" stroke="#D9AF00" stroke-width="0.711082" stroke-miterlimit="10" stroke-linecap="round"/>
<path d="M120.716 92.1335L106.156 137.736C105.877 138.609 105.328 139.372 104.588 139.913C103.847 140.454 102.954 140.745 102.037 140.745H6.08105" stroke="#56303C" stroke-width="0.711082" stroke-miterlimit="10" stroke-linecap="round"/>
<path d="M113.702 92.3229H126.803" stroke="#D9AF00" stroke-width="1.42216" stroke-linecap="round" stroke-linejoin="round"/>
<path d="M20.056 152.461C22.7335 152.461 24.904 150.29 24.904 147.613C24.904 144.935 22.7335 142.765 20.056 142.765C17.3786 142.765 15.208 144.935 15.208 147.613C15.208 150.29 17.3786 152.461 20.056 152.461Z" fill="#A0D6FF"/>
<path d="M20.0563 150.936C21.8919 150.936 23.38 149.448 23.38 147.612C23.38 145.777 21.8919 144.289 20.0563 144.289C18.2206 144.289 16.7325 145.777 16.7325 147.612C16.7325 149.448 18.2206 150.936 20.0563 150.936Z" stroke="white" stroke-width="0.711082" stroke-miterlimit="10"/>
<path d="M89.9651 152.461C92.6423 152.461 94.8132 150.29 94.8132 147.613C94.8132 144.935 92.6423 142.765 89.9651 142.765C87.2874 142.765 85.1169 144.935 85.1169 147.613C85.1169 150.29 87.2874 152.461 89.9651 152.461Z" fill="#A0D6FF"/>
<path d="M89.9646 150.936C91.8003 150.936 93.2885 149.448 93.2885 147.612C93.2885 145.777 91.8003 144.289 89.9646 144.289C88.1293 144.289 86.6411 145.777 86.6411 147.612C86.6411 149.448 88.1293 150.936 89.9646 150.936Z" stroke="#56303C" stroke-width="0.711082" stroke-miterlimit="10" stroke-linecap="round"/>
<path d="M62.4567 58.375H15.2124V138.836H62.4567V58.375Z" fill="#EFDFC0"/>
<path d="M33.3799 138.886V58.5371" stroke="#F5EFD9" stroke-width="0.427175" stroke-miterlimit="10"/>
<path d="M29.8484 138.886V58.5371" stroke="#F5EFD9" stroke-width="0.427175" stroke-miterlimit="10"/>
<path d="M37.0179 138.886V58.5371" stroke="#F5EFD9" stroke-width="0.427175" stroke-miterlimit="10"/>
<path d="M40.6561 138.886V58.5371" stroke="#F5EFD9" stroke-width="0.427175" stroke-miterlimit="10"/>
<path d="M44.2943 138.886V58.5371" stroke="#F5EFD9" stroke-width="0.427175" stroke-miterlimit="10"/>
<path d="M47.9325 138.886V58.5371" stroke="#F5EFD9" stroke-width="0.427175" stroke-miterlimit="10"/>
<path d="M51.5706 138.886V58.5371" stroke="#F5EFD9" stroke-width="0.427175" stroke-miterlimit="10"/>
<path d="M55.2087 138.886V58.5371" stroke="#F5EFD9" stroke-width="0.427175" stroke-miterlimit="10"/>
<path d="M18.9832 138.886V58.5371" stroke="#F5EFD9" stroke-width="0.427175" stroke-miterlimit="10"/>
<path d="M22.6226 138.886V58.5371" stroke="#F5EFD9" stroke-width="0.427175" stroke-miterlimit="10"/>
<path d="M26.2607 138.886V58.5371" stroke="#F5EFD9" stroke-width="0.427175" stroke-miterlimit="10"/>
<path d="M62.3242 90.1124H15.2874" stroke="#F5EFD9" stroke-width="0.427175" stroke-miterlimit="10"/>
<path d="M62.3242 86.4727H15.2874" stroke="#F5EFD9" stroke-width="0.427175" stroke-miterlimit="10"/>
<path d="M62.3242 82.8345H15.2874" stroke="#F5EFD9" stroke-width="0.427175" stroke-miterlimit="10"/>
<path d="M62.3242 79.1964H15.2874" stroke="#F5EFD9" stroke-width="0.427175" stroke-miterlimit="10"/>
<path d="M62.3242 75.5586H15.2874" stroke="#F5EFD9" stroke-width="0.427175" stroke-miterlimit="10"/>
<path d="M62.3242 71.9204H15.2874" stroke="#F5EFD9" stroke-width="0.427175" stroke-miterlimit="10"/>
<path d="M62.3242 68.282H15.2874" stroke="#F5EFD9" stroke-width="0.427175" stroke-miterlimit="10"/>
<path d="M62.3242 64.6442H15.4924" stroke="#F5EFD9" stroke-width="0.427175" stroke-miterlimit="10"/>
<path d="M62.3242 61.0044H15.2874" stroke="#F5EFD9" stroke-width="0.427175" stroke-miterlimit="10"/>
<path d="M62.3242 119.24H15.2874" stroke="#F5EFD9" stroke-width="0.427175" stroke-miterlimit="10"/>
<path d="M62.3242 122.916H15.2874" stroke="#F5EFD9" stroke-width="0.427175" stroke-miterlimit="10"/>
<path d="M62.3242 115.602H15.2874" stroke="#F5EFD9" stroke-width="0.427175" stroke-miterlimit="10"/>
<path d="M62.3242 111.963H15.2874" stroke="#F5EFD9" stroke-width="0.427175" stroke-miterlimit="10"/>
<path d="M62.3242 133.372L15.2874 133.562" stroke="#F5EFD9" stroke-width="0.427175" stroke-miterlimit="10"/>
<path d="M62.3242 137.238H15.2874" stroke="#F5EFD9" stroke-width="0.427175" stroke-miterlimit="10"/>
<path d="M62.3242 129.924H15.2874" stroke="#F5EFD9" stroke-width="0.427175" stroke-miterlimit="10"/>
<path d="M62.3242 126.284H15.2874" stroke="#F5EFD9" stroke-width="0.427175" stroke-miterlimit="10"/>
<path d="M62.3242 108.325H15.2874" stroke="#F5EFD9" stroke-width="0.427175" stroke-miterlimit="10"/>
<path d="M62.3242 104.687H15.2874" stroke="#F5EFD9" stroke-width="0.427175" stroke-miterlimit="10"/>
<path d="M62.3242 101.048H15.2874" stroke="#F5EFD9" stroke-width="0.427175" stroke-miterlimit="10"/>
<path d="M62.3242 97.4104H15.2874" stroke="#F5EFD9" stroke-width="0.427175" stroke-miterlimit="10"/>
<path d="M62.3242 93.7711H15.4924" stroke="#F5EFD9" stroke-width="0.427175" stroke-miterlimit="10"/>
<path d="M59.0126 138.886V58.5371" stroke="#F5EFD9" stroke-width="0.427175" stroke-miterlimit="10"/>
<path d="M50.0021 77.6871C50.6354 77.6871 51.1492 76.4234 51.1492 74.8648C51.1492 73.3058 50.6354 72.0421 50.0021 72.0421C49.3685 72.0421 48.8546 73.3058 48.8546 74.8648C48.8546 76.4234 49.3685 77.6871 50.0021 77.6871Z" fill="#D9AF00"/>
<path d="M53.3261 80.3743C54.1605 79.0577 54.4032 77.7153 53.868 77.3761C53.3328 77.037 52.2225 77.8295 51.388 79.1462C50.5536 80.4633 50.3113 81.8056 50.8465 82.1448C51.3817 82.4839 52.4917 81.6914 53.3261 80.3743Z" fill="#D9AF00"/>
<path d="M49.1575 82.1471C49.6927 81.808 49.45 80.4656 48.6155 79.1485C47.7811 77.8318 46.6712 77.0393 46.1359 77.3785C45.6007 77.7176 45.843 79.06 46.6775 80.3767C47.5119 81.6933 48.6223 82.4859 49.1575 82.1471Z" fill="#D9AF00"/>
<path d="M53.3268 86.5932C54.1613 85.2765 54.404 83.9342 53.8688 83.595C53.3336 83.2559 52.2232 84.0484 51.3888 85.3655C50.5543 86.6821 50.312 88.0245 50.8472 88.3637C51.3825 88.7028 52.4928 87.9103 53.3268 86.5932Z" fill="#D9AF00"/>
<path d="M49.157 88.3652C49.6922 88.0261 49.4495 86.6837 48.6151 85.367C47.781 84.0503 46.6707 83.2578 46.1355 83.597C45.6003 83.9361 45.843 85.2785 46.677 86.5952C47.5114 87.9118 48.6218 88.7044 49.157 88.3652Z" fill="#D9AF00"/>
<path d="M50.0017 76.5448V93.264" stroke="#D9AF00" stroke-width="0.569128" stroke-miterlimit="10" stroke-linecap="round"/>
<path d="M50.0017 70.9844V70.1504" stroke="#D9AF00" stroke-width="0.569128" stroke-miterlimit="10" stroke-linecap="round"/>
<path d="M27.8194 81.8475C28.453 81.8475 28.9666 80.5838 28.9666 79.0248C28.9666 77.4659 28.453 76.2021 27.8194 76.2021C27.1859 76.2021 26.6722 77.4659 26.6722 79.0248C26.6722 80.5838 27.1859 81.8475 27.8194 81.8475Z" fill="#D9AF00"/>
<path d="M30.879 84.6453C31.7208 83.3357 31.9718 81.9969 31.4395 81.655C30.9073 81.3127 29.7934 82.0969 28.9517 83.4065C28.1099 84.7156 27.8589 86.0544 28.3912 86.3967C28.9234 86.7391 30.0372 85.9548 30.879 84.6453Z" fill="#D9AF00"/>
<path d="M27.281 84.7097C27.8133 84.3678 27.5623 83.029 26.7205 81.7194C25.8788 80.4099 24.7649 79.6256 24.2327 79.968C23.7005 80.3103 23.9514 81.6491 24.7932 82.9582C25.635 84.2678 26.7488 85.052 27.281 84.7097Z" fill="#D9AF00"/>
<path d="M31.1446 89.4352C31.979 88.1186 32.2215 86.7762 31.6863 86.437C31.1511 86.0979 30.0409 86.8904 29.2065 88.2071C28.3721 89.5242 28.1296 90.8666 28.6648 91.2057C29.2 91.5449 30.3102 90.7523 31.1446 89.4352Z" fill="#D9AF00"/>
<path d="M26.9748 91.2073C27.5099 90.8681 27.2674 89.5258 26.4331 88.2091C25.5987 86.8924 24.4884 86.0999 23.9532 86.439C23.4181 86.7782 23.6606 88.1205 24.4949 89.4372C25.3293 90.7539 26.4396 91.5464 26.9748 91.2073Z" fill="#D9AF00"/>
<path d="M27.8193 80.7059V93.2798" stroke="#D9AF00" stroke-width="0.569128" stroke-miterlimit="10" stroke-linecap="round"/>
<path d="M27.8193 75.1456V74.3115" stroke="#D9AF00" stroke-width="0.569128" stroke-miterlimit="10" stroke-linecap="round"/>
<path d="M39.6601 72.6568C40.2938 72.6568 40.8072 71.3931 40.8072 69.8341C40.8072 68.2756 40.2938 67.0118 39.6601 67.0118C39.0265 67.0118 38.5129 68.2756 38.5129 69.8341C38.5129 71.3931 39.0265 72.6568 39.6601 72.6568Z" fill="#D9AF00"/>
<path d="M42.9843 74.591C43.8188 73.2743 44.0615 71.932 43.5263 71.5928C42.9911 71.2537 41.8807 72.0462 41.0463 73.3633C40.2122 74.6799 39.9695 76.0223 40.5047 76.3615C41.0399 76.7006 42.1503 75.9081 42.9843 74.591Z" fill="#D9AF00"/>
<path d="M42.9836 80.2438C43.818 78.9268 44.0607 77.5844 43.5255 77.2452C42.9903 76.9065 41.88 77.699 41.0455 79.0157C40.2111 80.3324 39.9688 81.6748 40.504 82.0139C41.0392 82.3531 42.1491 81.5605 42.9836 80.2438Z" fill="#D9AF00"/>
<path d="M38.8148 76.365C39.35 76.0259 39.1075 74.6835 38.2731 73.3664C37.4388 72.0497 36.3285 71.2572 35.7933 71.5964C35.2581 71.9355 35.5007 73.2779 36.335 74.5945C37.1694 75.9112 38.2797 76.7038 38.8148 76.365Z" fill="#D9AF00"/>
<path d="M38.814 82.0175C39.3492 81.6783 39.1067 80.336 38.2723 79.0193C37.4379 77.7022 36.3277 76.9097 35.7925 77.2488C35.2573 77.588 35.4998 78.9303 36.3342 80.247C37.1685 81.5641 38.2788 82.3566 38.814 82.0175Z" fill="#D9AF00"/>
<path d="M42.9843 86.4628C43.8188 85.1458 44.0615 83.8034 43.5263 83.4642C42.9911 83.1255 41.8807 83.918 41.0463 85.2347C40.2122 86.5514 39.9695 87.8938 40.5047 88.2329C41.0399 88.5721 42.1503 87.7795 42.9843 86.4628Z" fill="#D9AF00"/>
<path d="M38.8151 88.236C39.3503 87.8968 39.1078 86.5545 38.2734 85.2374C37.439 83.9207 36.3288 83.1282 35.7936 83.4673C35.2584 83.8065 35.5009 85.1488 36.3353 86.4655C37.1697 87.7822 38.2799 88.5747 38.8151 88.236Z" fill="#D9AF00"/>
<path d="M39.66 71.5161V93.1336" stroke="#D9AF00" stroke-width="0.569128" stroke-miterlimit="10" stroke-linecap="round"/>
<path d="M46.5273 58.3588H31.7192V64.8429H46.5273V58.3588Z" fill="white"/>
<path d="M46.5273 132.352H31.7192V138.837H46.5273V132.352Z" fill="white"/>
<path d="M73.0089 58.3757H62.4565V138.837H73.0089V58.3757Z" fill="#D9AF00"/>
<path d="M52.1821 93.8257H25.676C24.4082 93.8257 23.3804 94.8534 23.3804 96.1215V103.127C23.3804 104.395 24.4082 105.423 25.676 105.423H52.1821C53.4502 105.423 54.4779 104.395 54.4779 103.127V96.1215C54.4779 94.8534 53.4502 93.8257 52.1821 93.8257Z" fill="white"/>
<path d="M50.2441 97.5176H27.7418V101.772H50.2441V97.5176Z" fill="#A0D6FF"/>
<path d="M33.6855 99.9767L34.2997 99.3624C34.4487 99.2138 34.6505 99.1304 34.861 99.1304C35.0715 99.1304 35.2734 99.2138 35.4223 99.3624L35.9358 99.8759C36.0402 99.9798 36.1815 100.038 36.3288 100.038C36.4761 100.038 36.6174 99.9798 36.7219 99.8759L37.2341 99.3624C37.383 99.2138 37.5849 99.1304 37.7954 99.1304C38.0058 99.1304 38.2077 99.2138 38.3567 99.3624L38.9119 99.9178C38.9636 99.9692 39.0249 100.01 39.0925 100.038C39.16 100.066 39.2324 100.081 39.3055 100.081C39.3787 100.081 39.4511 100.066 39.5186 100.038C39.5861 100.01 39.6477 99.9692 39.6991 99.9178L40.2533 99.3624C40.4023 99.2138 40.6039 99.1304 40.8146 99.1304C41.0249 99.1304 41.2269 99.2138 41.3759 99.3624L41.8894 99.8759C41.9937 99.9798 42.1348 100.038 42.2823 100.038C42.4297 100.038 42.5708 99.9798 42.6752 99.8759L43.1875 99.3624C43.3365 99.2138 43.5385 99.1304 43.7488 99.1304C43.9594 99.1304 44.161 99.2138 44.31 99.3624L45.0472 100.107" stroke="#B4702F" stroke-width="0.569128" stroke-miterlimit="10"/>
<path d="M73.009 58.3757C73.009 60.6529 70.6469 62.5005 67.7273 62.5005C64.8078 62.5005 62.4519 60.6581 62.4519 58.3757" stroke="white" stroke-width="0.711082" stroke-miterlimit="10"/>
<path d="M15.2126 61.2514L37.7982 58.3588L15.2126 65.7224V61.2514Z" fill="#56303C"/>
<path d="M33.6855 61.7242L34.2997 61.1103C34.3733 61.0364 34.4608 60.9775 34.5571 60.9376C34.6534 60.8976 34.7567 60.8771 34.861 60.8771C34.9653 60.8771 35.0686 60.8976 35.1649 60.9376C35.2613 60.9775 35.3487 61.0364 35.4223 61.1103L35.9358 61.6226C35.9873 61.674 36.0486 61.7151 36.116 61.7431C36.1835 61.7712 36.2558 61.7854 36.3288 61.7854C36.4018 61.7854 36.4741 61.7712 36.5416 61.7431C36.609 61.7151 36.6703 61.674 36.7219 61.6226L37.2341 61.1103C37.3077 61.0364 37.3951 60.9775 37.4915 60.9376C37.5878 60.8976 37.6911 60.8771 37.7954 60.8771C37.8997 60.8771 38.003 60.8976 38.0993 60.9376C38.1956 60.9775 38.2831 61.0364 38.3567 61.1103L38.9119 61.6653C38.9636 61.717 39.0249 61.7582 39.0925 61.7862C39.16 61.8143 39.2324 61.8285 39.3055 61.8285C39.3787 61.8285 39.4511 61.8143 39.5186 61.7862C39.5861 61.7582 39.6477 61.717 39.6991 61.6653L40.2533 61.1103C40.3268 61.0364 40.4142 60.9775 40.5106 60.9376C40.6071 60.8976 40.7102 60.8771 40.8146 60.8771C40.9189 60.8771 41.0221 60.8976 41.1186 60.9376C41.2146 60.9775 41.3024 61.0364 41.3759 61.1103L41.8894 61.6226C41.9407 61.674 42.002 61.7151 42.0696 61.7431C42.1368 61.7712 42.2091 61.7854 42.2823 61.7854C42.3554 61.7854 42.4277 61.7712 42.4949 61.7431C42.5625 61.7151 42.6238 61.674 42.6752 61.6226L43.1875 61.1103C43.261 61.0364 43.3487 60.9775 43.4448 60.9376C43.5412 60.8976 43.6444 60.8771 43.7488 60.8771C43.8531 60.8771 43.9563 60.8976 44.0527 60.9376C44.1492 60.9775 44.2365 61.0364 44.31 61.1103L45.0472 61.8534" stroke="#B4702F" stroke-width="0.569128" stroke-miterlimit="10"/>
<path d="M39.66 66.4007V65.973" stroke="#D9AF00" stroke-width="0.569128" stroke-miterlimit="10" stroke-linecap="round"/>
<path d="M102.068 58.1743V67.223C102.068 68.0266 101.837 68.8128 101.403 69.4892C100.97 70.1655 100.351 70.7031 99.6201 71.0379C99.3884 71.1442 99.1948 71.3185 99.0647 71.5375C98.9343 71.7565 98.8742 72.0099 98.8912 72.2644C98.9086 72.5186 99.003 72.7613 99.1615 72.9609C99.3204 73.1601 99.5359 73.3064 99.7798 73.3803L99.9667 73.4368C100.573 73.6202 101.105 73.9938 101.483 74.5025C101.862 75.0112 102.067 75.6279 102.068 76.2619V76.3196C102.068 76.9517 101.864 77.5671 101.489 78.0754C101.113 78.5838 100.584 78.9585 99.9802 79.1447C99.6695 79.2403 99.3932 79.4237 99.1845 79.6728C98.9758 79.9218 98.8433 80.2258 98.803 80.5483C98.7631 80.8709 98.8169 81.1982 98.958 81.4907C99.0991 81.7832 99.322 82.029 99.5991 82.1982L99.7221 82.2729C100.438 82.7101 101.029 83.324 101.439 84.0552C101.849 84.7865 102.064 85.6107 102.064 86.4491V134.049C102.064 134.078 102.064 134.106 102.064 134.134C102.017 135.443 100.888 136.489 99.5011 136.489C98.9517 136.497 98.4145 136.328 97.969 136.006C97.5239 135.684 97.1942 135.227 97.0298 134.703C96.9136 134.287 96.682 133.913 96.3614 133.624L96.2622 133.536C95.8606 133.181 95.3431 132.983 94.8067 132.981C94.2703 132.978 93.7509 133.171 93.3462 133.523L93.2379 133.617C92.9173 133.889 92.6809 134.248 92.5564 134.649C92.2137 135.81 90.8947 136.675 89.3199 136.675C87.7451 136.675 86.4272 135.815 86.0833 134.649C85.9592 134.246 85.7232 133.887 85.403 133.613L85.2493 133.478C84.8575 133.134 84.3571 132.94 83.8361 132.93C83.3152 132.919 82.8072 133.093 82.4021 133.421L82.1748 133.605C81.8198 133.887 81.5593 134.27 81.4281 134.703C81.2648 135.227 80.9371 135.684 80.4936 136.007C80.0497 136.329 79.5141 136.5 78.9655 136.494C77.5788 136.494 76.4499 135.448 76.4021 134.14C76.4021 134.111 76.4021 134.083 76.4021 134.053V86.6704C76.4021 85.849 76.6088 85.0415 77.0029 84.3209C77.397 83.6007 77.9658 82.9912 78.6572 82.548L79.1865 82.2093C79.4517 82.0397 79.664 81.7998 79.7999 81.516C79.9355 81.2322 79.9893 80.9163 79.9553 80.6037C79.9209 80.291 79.7999 79.9941 79.6059 79.7463C79.4122 79.4989 79.1529 79.3103 78.8572 79.2024L78.3429 79.0131C77.7737 78.8047 77.2828 78.4265 76.9357 77.93C76.5887 77.4331 76.4021 76.8418 76.4021 76.2362C76.4021 75.635 76.5855 75.048 76.9274 74.5535C77.2697 74.059 77.7544 73.6807 78.3168 73.4689L78.6165 73.3558C78.8394 73.2716 79.0335 73.1257 79.1766 72.9352C79.3193 72.7447 79.4054 72.5178 79.4244 72.2806C79.4434 72.0431 79.3944 71.8051 79.2833 71.5948C79.1722 71.3841 79.0038 71.2094 78.7971 71.0908L78.5161 70.9312C77.8741 70.5639 77.3405 70.0335 76.9693 69.3939C76.5982 68.7539 76.4025 68.0278 76.4021 67.2883V58.1743L78.048 57.1252C78.5279 56.8181 79.0861 56.6548 79.6557 56.6548C80.2256 56.6548 80.7834 56.8181 81.2637 57.1252L81.7621 57.4458C82.0783 57.6482 82.4459 57.7553 82.8211 57.7553C83.1962 57.7553 83.5638 57.6482 83.8796 57.4458L84.371 57.1252C84.8512 56.8181 85.4094 56.6552 85.9797 56.6552C86.5497 56.6552 87.1079 56.8181 87.5881 57.1252L88.1799 57.5035C88.4949 57.7031 88.8598 57.8094 89.2325 57.8094C89.6053 57.8094 89.9705 57.7031 90.2851 57.5035L90.8784 57.1252C91.3587 56.8181 91.9165 56.6548 92.4865 56.6548C93.0561 56.6548 93.6142 56.8181 94.0941 57.1252L94.5929 57.4458C94.9091 57.6482 95.2763 57.7553 95.6515 57.7553C96.027 57.7553 96.3942 57.6482 96.7104 57.4458L97.2093 57.1252C97.6891 56.8181 98.2469 56.6544 98.8169 56.6544C99.3869 56.6544 99.9446 56.8181 100.425 57.1252L102.068 58.1743Z" fill="#A0D6FF"/>
<path d="M78.0405 60.1395C78.5208 59.8323 79.0785 59.6691 79.6485 59.6691C80.2181 59.6691 80.7763 59.8323 81.2561 60.1395L81.755 60.46C82.0712 60.662 82.4384 60.7695 82.8135 60.7695C83.1891 60.7695 83.5563 60.662 83.8725 60.46L84.3638 60.1395C84.8441 59.8323 85.4022 59.6691 85.9722 59.6691C86.5422 59.6691 87.1003 59.8323 87.5806 60.1395L88.1727 60.5177C88.4874 60.7174 88.8526 60.8233 89.2254 60.8233C89.5981 60.8233 89.9634 60.7174 90.278 60.5177L90.88 60.1395C91.3599 59.8323 91.9176 59.6691 92.4876 59.6691C93.0576 59.6691 93.6154 59.8323 94.0956 60.1395L94.5941 60.46C94.9103 60.662 95.2775 60.7695 95.653 60.7695C96.0282 60.7695 96.3954 60.662 96.7116 60.46L97.2104 60.1395C97.6903 59.8323 98.2484 59.6691 98.818 59.6691C99.388 59.6691 99.9458 59.8323 100.426 60.1395" stroke="white" stroke-width="0.711082" stroke-miterlimit="10" stroke-linecap="round"/>
<path d="M78.0405 63.1535C78.5212 62.8476 79.0793 62.6855 79.6493 62.6863C80.2193 62.6875 80.7767 62.8519 81.2561 63.1598L81.755 63.4804C82.0712 63.6824 82.4384 63.7899 82.8135 63.7899C83.1891 63.7899 83.5563 63.6824 83.8725 63.4804L84.3638 63.1598C84.8433 62.8519 85.4014 62.6875 85.9714 62.6867C86.5414 62.6855 87.1 62.8476 87.5806 63.1535L88.1727 63.5318C88.4874 63.7318 88.8526 63.8377 89.2254 63.8377C89.5981 63.8377 89.9634 63.7318 90.278 63.5318L90.8713 63.1535C91.352 62.8476 91.9101 62.6855 92.4801 62.6863C93.0497 62.6875 93.6075 62.8519 94.0869 63.1598L94.5854 63.4804C94.9016 63.6824 95.2692 63.7899 95.6443 63.7899C96.0195 63.7899 96.3871 63.6824 96.7029 63.4804L97.2017 63.1598C97.6816 62.8523 98.2397 62.689 98.8097 62.689C99.3793 62.689 99.9375 62.8523 100.417 63.1598" stroke="white" stroke-width="0.711082" stroke-miterlimit="10" stroke-linecap="round"/>
<path d="M103.777 86.4629V134.781C103.78 135.771 103.421 136.727 102.768 137.471C102.114 138.214 101.211 138.692 100.229 138.816C99.2469 138.939 98.254 138.699 97.4365 138.141C96.6195 137.582 96.0349 136.744 95.793 135.784C95.523 134.724 94.017 134.724 93.7466 135.784C93.5244 136.658 93.0173 137.432 92.3054 137.985C91.5935 138.538 90.7176 138.838 89.8163 138.838H88.9147C88.0134 138.838 87.1375 138.538 86.4256 137.985C85.7137 137.432 85.2066 136.658 84.9844 135.784L84.9757 135.749C84.7053 134.689 83.1997 134.689 82.9294 135.749L82.9207 135.784C82.6791 136.744 82.0945 137.582 81.2771 138.141C80.46 138.699 79.4667 138.939 78.4848 138.816C77.5026 138.692 76.5997 138.214 75.9463 137.471C75.2925 136.727 74.9336 135.771 74.9368 134.781V86.4629C74.9368 84.8403 75.5815 83.284 76.729 82.1365C77.8761 80.9894 79.4323 80.3447 81.0549 80.3447H97.6674C99.2884 80.3471 100.843 80.9926 101.988 82.1397C103.133 83.2868 103.777 84.8418 103.777 86.4629Z" stroke="#FFAFB1" stroke-width="0.711082" stroke-miterlimit="10"/>
<path d="M100.083 72.4921H78.6204C76.5807 72.4921 74.9269 74.1455 74.9269 76.1856V76.6512C74.9269 78.6909 76.5807 80.3443 78.6204 80.3443H100.083C102.123 80.3443 103.777 78.6909 103.777 76.6512V76.1856C103.777 74.1455 102.123 72.4921 100.083 72.4921Z" stroke="#FFAFB1" stroke-width="0.711082" stroke-miterlimit="10"/>
<path d="M86.7197 47.3052H91.9852C95.1127 47.3052 98.1116 48.5471 100.323 50.7587C102.534 52.9699 103.777 55.9693 103.777 59.0964V67.5459C103.777 68.8578 103.255 70.1164 102.328 71.0441C101.4 71.9718 100.141 72.4932 98.8291 72.4932H79.8746C78.5623 72.4932 77.3037 71.9718 76.376 71.0441C75.4483 70.1164 74.9269 68.8578 74.9269 67.5459V59.0964C74.9269 57.5481 75.232 56.0144 75.8246 54.5839C76.4175 53.153 77.2859 51.8533 78.3808 50.7583C79.4762 49.6634 80.7762 48.7946 82.2068 48.2021C83.6377 47.6095 85.171 47.3048 86.7197 47.3052Z" stroke="#FFAFB1" stroke-width="0.711082" stroke-miterlimit="10"/>
<path d="M84.6758 42.4839V48.5135C84.6758 50.2199 86.764 51.6014 89.3519 51.6014C91.9398 51.6014 94.0281 50.2199 94.0281 48.5135V42.4839H84.6758Z" fill="white" stroke="#FFAFB1" stroke-width="0.711082" stroke-miterlimit="10"/>
<path d="M89.3519 45.5718C91.9343 45.5718 94.0281 44.1895 94.0281 42.4839C94.0281 40.7787 91.9343 39.3961 89.3519 39.3961C86.7696 39.3961 84.6758 40.7787 84.6758 42.4839C84.6758 44.1895 86.7696 45.5718 89.3519 45.5718Z" fill="white" stroke="#FFAFB1" stroke-width="0.711082" stroke-miterlimit="10"/>
<path d="M94.0281 42.4839V44.5575C94.0281 46.2624 91.9339 47.6455 89.3519 47.6455C86.77 47.6455 84.6758 46.2596 84.6758 44.5575V42.4839" stroke="#A0D6FF" stroke-width="0.711082" stroke-miterlimit="10"/>
<path d="M89.3519 45.5718C91.9343 45.5718 94.0281 44.1895 94.0281 42.4839C94.0281 40.7787 91.9343 39.3961 89.3519 39.3961C86.7696 39.3961 84.6758 40.7787 84.6758 42.4839C84.6758 44.1895 86.7696 45.5718 89.3519 45.5718Z" fill="white" stroke="#A0D6FF" stroke-width="0.711082" stroke-miterlimit="10"/>
<path d="M95.0476 69.0667H83.0425C81.7073 69.0667 80.625 70.1489 80.625 71.4838V82.122C80.625 83.4572 81.7073 84.5391 83.0425 84.5391H95.0476C96.3825 84.5391 97.4647 83.4572 97.4647 82.122V71.4838C97.4647 70.1489 96.3825 69.0667 95.0476 69.0667Z" fill="white"/>
<path d="M91.4746 77.3489C91.4817 77.6726 91.4244 77.9944 91.3054 78.2956C91.1864 78.5968 91.0086 78.8711 90.7825 79.1027C90.556 79.3344 90.2856 79.5182 89.9872 79.6439C89.6887 79.7696 89.3682 79.834 89.0444 79.834C88.7207 79.834 88.4001 79.7696 88.1017 79.6439C87.8032 79.5182 87.5329 79.3344 87.3064 79.1027C87.0799 78.8711 86.902 78.5968 86.7834 78.2956C86.6644 77.9944 86.6071 77.6726 86.6142 77.3489C86.6142 76.0061 89.0448 72.8372 89.0448 72.8372C89.0448 72.8372 91.4746 76.0061 91.4746 77.3489Z" fill="#A0D6FF"/>
<path d="M90.4587 77.2346C90.4587 77.4354 90.4191 77.6342 90.3421 77.8196C90.2654 78.0054 90.1527 78.1738 90.0108 78.3161C89.8685 78.458 89.7001 78.5707 89.5147 78.6474C89.329 78.7244 89.1301 78.764 88.9293 78.764" stroke="white" stroke-width="0.711082" stroke-miterlimit="10" stroke-linecap="round"/>
<path d="M55.3112 88.3891V133.208C55.3112 136.314 48.0827 138.832 39.1666 138.832C30.2505 138.832 23.0209 136.314 23.0209 133.208V88.3891C23.0209 85.2829 30.2493 82.765 39.1666 82.765C48.0839 82.765 55.3112 85.2877 55.3112 88.3891Z" fill="#A0D6FF"/>
<path d="M38.9772 96.6567C30.0612 96.6567 22.8328 94.1383 22.8328 91.0322" stroke="white" stroke-width="0.711082" stroke-miterlimit="10" stroke-linecap="round"/>
<path d="M38.9772 111.921C30.0612 111.921 22.8328 109.401 22.8328 106.295" stroke="white" stroke-width="0.711082" stroke-miterlimit="10" stroke-linecap="round"/>
<path d="M38.9772 127.183C30.0612 127.183 22.8328 124.665 22.8328 121.559" stroke="white" stroke-width="0.711082" stroke-miterlimit="10" stroke-linecap="round"/>
<path d="M34.2951 99.0545C27.6624 98.3552 22.8328 96.2097 22.8328 93.6708" stroke="white" stroke-width="0.711082" stroke-miterlimit="10" stroke-linecap="round"/>
<path d="M38.9769 99.2949C38.0324 99.2949 37.1075 99.2664 36.2072 99.2126" stroke="white" stroke-width="0.711082" stroke-miterlimit="10" stroke-linecap="round"/>
<path d="M26.273 101.097C24.1199 100.141 22.8339 98.9366 22.8339 97.6282" stroke="white" stroke-width="0.711082" stroke-miterlimit="10" stroke-linecap="round"/>
<path d="M38.9774 103.252C34.6108 103.252 30.6496 102.647 27.7435 101.666" stroke="white" stroke-width="0.711082" stroke-miterlimit="10" stroke-linecap="round"/>
<path d="M26.273 122.013C24.1199 121.058 22.8339 119.853 22.8339 118.543" stroke="white" stroke-width="0.711082" stroke-miterlimit="10" stroke-linecap="round"/>
<path d="M38.9774 124.168C34.6108 124.168 30.6496 123.565 27.7435 122.583" stroke="white" stroke-width="0.711082" stroke-miterlimit="10" stroke-linecap="round"/>
<path d="M55.3112 88.3891C55.3112 91.4956 48.0827 94.0135 39.1666 94.0135C30.2505 94.0135 23.0209 91.4956 23.0209 88.3891C23.0209 85.283 30.2493 82.7698 39.1702 82.7698C48.0914 82.7698 55.3112 85.2877 55.3112 88.3891Z" fill="white"/>
<path d="M53.8897 88.3894C53.8897 90.9789 47.2976 93.0766 39.1664 93.0766C31.0352 93.0766 24.4418 90.9836 24.4418 88.3894C24.4418 85.7956 31.0339 83.7085 39.17 83.7085C47.3063 83.7085 53.8897 85.8102 53.8897 88.3894Z" stroke="#D9AF00" stroke-width="0.569128" stroke-miterlimit="10" stroke-linecap="round"/>
<path d="M51.3375 88.0748C51.3375 88.0748 46.0225 90.626 44.6138 90.626C43.937 90.626 43.2884 90.3572 42.8097 89.8789C42.3314 89.4002 42.0626 88.7515 42.0626 88.0748C42.0626 87.3981 42.3314 86.7494 42.8097 86.2708C43.2884 85.7925 43.937 85.5237 44.6138 85.5237C46.0225 85.5237 51.3375 88.0748 51.3375 88.0748Z" fill="#D9AF00"/>
<path d="M45.3107 89.7752C46.2495 89.3863 46.6953 88.3099 46.3064 87.3712C45.9174 86.4324 44.8411 85.9865 43.9023 86.3754C42.9635 86.764 42.5176 87.8404 42.9066 88.7791C43.2955 89.7183 44.3719 90.1638 45.3107 89.7752Z" fill="white"/>
<path d="M51.3374 86.9399V89.1373" stroke="#A0D6FF" stroke-width="0.640105" stroke-miterlimit="10" stroke-linecap="round"/>
<path d="M55.3108 102.121V118.703C55.3108 121.144 50.8461 123.222 44.6066 124.001V107.419C50.8461 106.64 55.3108 104.562 55.3108 102.121Z" fill="#D9AF00"/>
<path d="M60.6044 86.2335L63.0523 93.8442" stroke="#56303C" stroke-width="1.42216" stroke-miterlimit="10" stroke-linecap="round"/>
<path d="M64.767 138.836C76.9512 138.836 86.828 128.643 86.828 116.069C86.828 103.495 76.9512 93.3015 64.767 93.3015C52.5829 93.3015 42.7061 103.495 42.7061 116.069C42.7061 128.643 52.5829 138.836 64.767 138.836Z" fill="#FFAFB1"/>
<path d="M87.3549 107.206C88.7664 110.669 89.3293 114.419 88.9957 118.144C88.6625 121.868 87.443 125.46 85.439 128.617" stroke="white" stroke-width="0.711082" stroke-miterlimit="10" stroke-linecap="round"/>
<path d="M45.3525 104.369C47.6033 100.389 51.0169 97.1919 55.1361 95.2064" stroke="white" stroke-width="0.711082" stroke-miterlimit="10" stroke-linecap="round"/>
<path d="M72.9474 99.9822C77.9588 102.827 81.355 108.328 81.355 114.648" stroke="#A0D6FF" stroke-width="1.77836" stroke-miterlimit="10" stroke-linecap="round"/>
<path d="M67.7322 98.0785C68.1745 98.1398 68.6105 98.2216 69.0406 98.324" stroke="#A0D6FF" stroke-width="1.77836" stroke-miterlimit="10" stroke-linecap="round"/>
<path d="M71.6453 134.121C71.6449 134.341 71.5572 134.552 71.4014 134.708C71.2453 134.864 71.0342 134.951 70.8136 134.951H69.508V135.708C69.5124 135.82 69.4942 135.931 69.4543 136.036C69.4143 136.14 69.3539 136.236 69.2764 136.316C69.1985 136.397 69.1056 136.461 69.0029 136.505C68.8997 136.549 68.789 136.571 68.6771 136.571C68.5653 136.571 68.4546 136.549 68.3514 136.505C68.2487 136.461 68.1554 136.397 68.0779 136.316C68.0004 136.236 67.9399 136.14 67.9 136.036C67.8601 135.931 67.8419 135.82 67.8463 135.708V134.951H66.5395C66.4276 134.955 66.3161 134.937 66.2114 134.897C66.1066 134.857 66.0114 134.797 65.9307 134.719C65.8501 134.642 65.7861 134.549 65.7422 134.446C65.6983 134.343 65.6758 134.232 65.6758 134.12C65.6758 134.008 65.6983 133.898 65.7422 133.795C65.7861 133.692 65.8501 133.598 65.9307 133.521C66.0114 133.443 66.1066 133.383 66.2114 133.343C66.3161 133.303 66.4276 133.285 66.5395 133.289H67.8451V132.191C67.8534 131.976 67.9443 131.773 68.0992 131.624C68.2542 131.475 68.4609 131.392 68.676 131.392C68.891 131.392 69.0977 131.475 69.2523 131.624C69.4072 131.773 69.4985 131.976 69.5068 132.191V133.289H70.8136C71.0342 133.289 71.2457 133.377 71.4018 133.533C71.5576 133.689 71.6453 133.9 71.6453 134.121Z" fill="#B4702F"/>
<path d="M70.3125 86.8811C69.0918 90.3845 64.741 92.0534 64.741 92.0534C64.741 92.0534 62.3693 88.0433 63.5891 84.5403C64.8086 81.0373 69.1594 79.368 69.1594 79.368C69.1594 79.368 71.5323 83.3782 70.3125 86.8811Z" fill="#B4702F"/>
<path d="M69.1594 79.368C69.1594 79.368 71.5322 83.3782 70.3128 86.8811C69.093 90.3845 64.7413 92.0534 64.7413 92.0534L69.1594 79.368Z" fill="#56303C"/>
<path d="M42.5045 104.972H15.5522C14.3217 104.972 13.3241 105.969 13.3241 107.2V108.576C13.3241 109.806 14.3217 110.804 15.5522 110.804H42.5045C43.735 110.804 44.7323 109.806 44.7323 108.576V107.2C44.7323 105.969 43.735 104.972 42.5045 104.972Z" fill="#56303C"/>
<path d="M46.0408 110.804H12.0149C8.73773 110.804 6.08105 113.461 6.08105 116.737V132.885C6.08105 136.161 8.73773 138.818 12.0149 138.818H46.0408C49.3176 138.818 51.9743 136.161 51.9743 132.885V116.737C51.9743 113.461 49.3176 110.804 46.0408 110.804Z" fill="white" stroke="#B4702F" stroke-width="0.711082" stroke-miterlimit="10"/>
<path d="M45.7125 137.042H12.3428C11.1559 137.042 10.0178 136.57 9.17868 135.731C8.33954 134.891 7.86816 133.753 7.86816 132.566V117.054C7.86816 114.583 9.87148 113.145 12.3428 113.145H45.7125C48.1838 113.145 50.1871 114.583 50.1871 117.054V132.566C50.1871 133.753 49.7159 134.891 48.8768 135.731C48.0376 136.57 46.8996 137.042 45.7125 137.042Z" fill="#D9AF00"/>
<path d="M43.0769 132.435C43.7559 132.435 44.3062 131.885 44.3062 131.205C44.3062 130.526 43.7559 129.976 43.0769 129.976C42.3978 129.976 41.8475 130.526 41.8475 131.205C41.8475 131.885 42.3978 132.435 43.0769 132.435Z" fill="white"/>
<path d="M41.1225 133.445C41.3976 133.445 41.6209 133.221 41.6209 132.946C41.6209 132.67 41.3976 132.447 41.1225 132.447C40.847 132.447 40.6237 132.67 40.6237 132.946C40.6237 133.221 40.847 133.445 41.1225 133.445Z" fill="white"/>
<path d="M38.3318 119.615C38.791 119.615 39.1633 119.243 39.1633 118.783C39.1633 118.324 38.791 117.952 38.3318 117.952C37.8726 117.952 37.5002 118.324 37.5002 118.783C37.5002 119.243 37.8726 119.615 38.3318 119.615Z" fill="white"/>
<path d="M16.8419 130.423C17.3928 130.423 17.8393 129.977 17.8393 129.426C17.8393 128.875 17.3928 128.428 16.8419 128.428C16.2911 128.428 15.8446 128.875 15.8446 129.426C15.8446 129.977 16.2911 130.423 16.8419 130.423Z" fill="white"/>
<path d="M13.8218 128.136C14.0972 128.136 14.3205 127.912 14.3205 127.637C14.3205 127.361 14.0972 127.138 13.8218 127.138C13.5464 127.138 13.3231 127.361 13.3231 127.637C13.3231 127.912 13.5464 128.136 13.8218 128.136Z" fill="white"/>
<path d="M34.9272 104.782V127.175L33.4176 125.665L31.9498 127.132L30.4833 125.665L28.9737 127.175L27.4642 125.665L25.9964 127.132L24.5298 125.665L23.0203 127.175V104.782H34.9272Z" fill="#FFAFB1"/>
<path d="M31.6807 114.09H29.39L28.244 116.074L29.39 118.058H31.6807L32.8267 116.074L31.6807 114.09Z" fill="white"/>
<path d="M27.5415 116.55H25.2507L24.1047 118.535L25.2507 120.519H27.5415L28.6874 118.535L27.5415 116.55Z" fill="white"/>
<path d="M31.6807 118.972H29.39L28.244 120.957L29.39 122.94H31.6807L32.8267 120.957L31.6807 118.972Z" fill="white"/>
<path d="M23.0203 127.176L24.2363 125.959C24.3141 125.881 24.4197 125.838 24.5298 125.838C24.6399 125.838 24.7455 125.881 24.8234 125.959L25.9964 127.132L27.1706 125.959C27.2485 125.881 27.3541 125.838 27.4642 125.838C27.5743 125.838 27.6799 125.881 27.7577 125.959L28.9737 127.176L30.1897 125.959C30.2676 125.881 30.3732 125.838 30.4833 125.838C30.5934 125.838 30.699 125.881 30.7768 125.959L31.9498 127.132L33.1241 125.959C33.2019 125.881 33.3075 125.838 33.4176 125.838C33.5277 125.838 33.6333 125.881 33.7112 125.959L34.9272 127.176" stroke="white" stroke-width="0.498152" stroke-linejoin="round"/>
<path d="M54.4775 56.2223L15.1359 61.2582L13.6313 61.4499L6.74312 62.3341H6.71122L4.11218 62.667L1.00586 38.3853L50.5176 32.0437C50.7421 32.0157 50.9686 32.0775 51.1481 32.2154C51.3275 32.3534 51.4453 32.5565 51.4758 32.7807L54.4775 56.2223Z" fill="#D9AF00"/>
<path d="M51.4077 31.5525L37.8176 33.3371L41.0008 57.5781L54.5909 55.7934L51.4077 31.5525Z" fill="#B4702F"/>
<path d="M37.7487 33.6586C38.1073 36.4566 30.1715 39.779 20.0247 41.0787C9.87785 42.378 1.36098 41.1633 1.00232 38.3641L37.7487 33.6586Z" fill="#A0D6FF"/>
<path d="M28.1962 52.4161C27.0195 54.9329 24.0778 56.1598 22.9699 56.5432L25.4915 51.1508C25.5238 51.0718 25.5245 50.9836 25.4935 50.9042C25.4625 50.8247 25.4021 50.7599 25.3248 50.7239C25.2476 50.6876 25.1593 50.6824 25.0784 50.7093C24.9974 50.7362 24.9298 50.7931 24.8897 50.8686L22.368 56.2618C21.9529 55.1661 21.0083 52.1224 22.185 49.6045C23.6491 46.4723 27.8425 45.3386 27.8425 45.3386C27.8425 45.3386 29.6603 49.2839 28.1962 52.4161Z" fill="white"/>
<path d="M17.4674 52.8202L20.6229 55.531C19.7004 55.5986 17.5694 55.5998 16.1335 54.3689C14.2579 52.7597 14.28 49.6548 14.28 49.6548C14.28 49.6548 17.3507 49.1634 19.2226 50.7675C20.6573 51.996 20.9815 54.1025 21.0552 55.0262L17.8948 52.3154C17.8621 52.2838 17.8234 52.2597 17.781 52.2435C17.7386 52.2276 17.6934 52.2205 17.6481 52.2229C17.6028 52.2253 17.5585 52.2367 17.5179 52.2565C17.4772 52.2763 17.441 52.3043 17.4116 52.3387C17.3821 52.3731 17.3599 52.4134 17.3465 52.4565C17.3331 52.5 17.3286 52.5455 17.3333 52.5905C17.3381 52.6356 17.352 52.6791 17.3743 52.7186C17.3964 52.7581 17.4265 52.7925 17.4625 52.8202H17.4674Z" fill="white"/>
<path d="M17.9021 48.2197C18.5113 48.2197 19.0051 47.726 19.0051 47.1169C19.0051 46.5078 18.5113 46.0137 17.9021 46.0137C17.2929 46.0137 16.7991 46.5078 16.7991 47.1169C16.7991 47.726 17.2929 48.2197 17.9021 48.2197Z" stroke="#56303C" stroke-width="0.711082" stroke-miterlimit="10" stroke-linecap="round"/>
<path d="M22.2326 47.4945C22.7944 47.2589 23.059 46.6126 22.8235 46.0509C22.5881 45.4892 21.9417 45.2244 21.3799 45.4599C20.8181 45.6955 20.5536 46.3418 20.789 46.9035C21.0245 47.4656 21.6708 47.73 22.2326 47.4945Z" stroke="#56303C" stroke-width="0.711082" stroke-miterlimit="10" stroke-linecap="round"/>
<path d="M19.4474 45.0928C20.0565 45.0928 20.5503 44.5987 20.5503 43.9896C20.5503 43.3804 20.0565 42.8867 19.4474 42.8867C18.8382 42.8867 18.3444 43.3804 18.3444 43.9896C18.3444 44.5987 18.8382 45.0928 19.4474 45.0928Z" stroke="#56303C" stroke-width="0.711082" stroke-miterlimit="10" stroke-linecap="round"/>
<path d="M41.2863 57.599L47.0921 52.5841L54.1341 55.8637" stroke="#56303C" stroke-width="0.711082" stroke-miterlimit="10" stroke-linecap="round"/>
<path d="M38.1257 33.8467L45.2655 38.3286L47.0921 52.5841" stroke="#56303C" stroke-width="0.711082" stroke-miterlimit="10" stroke-linecap="round"/>
<path d="M51.0829 32.2318L45.266 38.329" stroke="#56303C" stroke-width="0.711082" stroke-miterlimit="10" stroke-linecap="round"/>
<path d="M181.986 143.492L181.79 147.252L178.027 147.21L174.551 144.798L179.429 140.744L180.207 141.941C180.645 142.613 181.26 143.15 181.986 143.492Z" fill="#B4702F"/>
<path d="M179.429 140.745L174.55 144.8L176.048 145.839L179.429 140.745Z" fill="#56303C"/>
<path d="M192.029 143.087L180.594 152.164C180.402 152.318 180.171 152.417 179.926 152.451C179.681 152.484 179.432 152.45 179.205 152.353C178.978 152.256 178.782 152.099 178.637 151.899C178.492 151.698 178.405 151.463 178.384 151.217L178.024 147.211L181.786 147.253L181.982 143.493C182.859 143.908 183.851 144.015 184.796 143.798L191.616 142.237C191.723 142.211 191.835 142.223 191.935 142.27C192.035 142.318 192.115 142.397 192.163 142.496C192.211 142.595 192.224 142.708 192.199 142.815C192.175 142.923 192.115 143.018 192.029 143.087Z" fill="#D9AF00"/>
<path d="M179.738 152.838L192.594 142.61" stroke="#56303C" stroke-width="0.711082" stroke-miterlimit="10" stroke-linecap="round"/>
<path d="M184.788 142.968L184.014 143.625L183.358 142.851C183.272 142.75 183.206 142.632 183.165 142.505C183.125 142.378 183.109 142.245 183.12 142.112C183.131 141.979 183.168 141.85 183.229 141.731C183.289 141.613 183.373 141.508 183.475 141.421C183.576 141.335 183.694 141.27 183.821 141.23C183.948 141.19 184.082 141.175 184.215 141.186C184.348 141.198 184.477 141.235 184.595 141.297C184.714 141.358 184.819 141.442 184.905 141.544C185.077 141.749 185.161 142.014 185.139 142.28C185.117 142.547 184.991 142.794 184.788 142.968Z" stroke="#56303C" stroke-width="0.711082" stroke-miterlimit="10" stroke-linecap="round"/>
<path d="M129.229 143.303L128.213 146.131H124.145L123.492 142.61L123.573 142.534L125.48 140.745L129.229 143.303Z" fill="#B4702F"/>
<path d="M125.479 140.745L129.229 143.303L128.534 145.239L125.479 140.745Z" fill="#56303C"/>
<path d="M123.492 142.61L124.145 146.132H128.198L128.103 146.393C127.909 148.091 128.683 150.275 130.271 150.911L132.247 151.628C132.339 151.666 132.416 151.735 132.464 151.823C132.512 151.911 132.527 152.012 132.508 152.111C132.489 152.209 132.437 152.297 132.36 152.362C132.283 152.425 132.186 152.46 132.086 152.461H125.864L119.786 145.675C119.249 145.074 119.5 143.932 120.262 143.674L123.492 142.61Z" fill="#D9AF00"/>
<path d="M119.05 144.937L125.866 152.462H132.614" stroke="#56303C" stroke-width="0.711082" stroke-miterlimit="10" stroke-linecap="round"/>
<path d="M129.294 148.5L128.359 148.111L128.748 147.174C128.799 147.051 128.874 146.939 128.968 146.845C129.063 146.751 129.174 146.676 129.298 146.625C129.421 146.574 129.553 146.549 129.686 146.549C129.819 146.549 129.951 146.576 130.074 146.627C130.197 146.678 130.309 146.753 130.403 146.848C130.497 146.942 130.572 147.054 130.623 147.177C130.674 147.301 130.699 147.433 130.699 147.566C130.699 147.699 130.672 147.831 130.621 147.954C130.518 148.202 130.32 148.399 130.071 148.502C129.822 148.604 129.543 148.604 129.294 148.5Z" stroke="#56303C" stroke-width="0.711082" stroke-miterlimit="10" stroke-linecap="round"/>
<path d="M179.429 140.746L171.6 147.256L149.784 109.18L146.88 121.34L130.718 144.085L123.146 139.159L135.895 112.52L138.891 87.7645C139.034 86.5861 139.604 85.5011 140.492 84.7137C141.38 83.9263 142.526 83.4915 143.713 83.4911H155.577C155.641 83.4915 155.703 83.5101 155.756 83.5456C155.809 83.5812 155.85 83.6314 155.874 83.6903L179.429 140.746Z" fill="#EFDFC0"/>
<mask id="mask0_3_1842" style="mask-type:alpha" maskUnits="userSpaceOnUse" x="123" y="83" width="57" height="65">
<path d="M179.429 140.746L171.6 147.256L149.784 109.18L146.88 121.34L130.718 144.085L123.146 139.159L135.895 112.52L138.891 87.7645C139.034 86.5861 139.604 85.5011 140.492 84.7137C141.38 83.9263 142.526 83.4915 143.713 83.4911H155.577C155.641 83.4915 155.703 83.5101 155.756 83.5456C155.809 83.5812 155.85 83.6314 155.874 83.6903L179.429 140.746Z" fill="#EDE0C4"/>
</mask>
<g mask="url(#mask0_3_1842)">
<path d="M146.337 121.859V83.3424" stroke="#F5EFD9" stroke-width="0.427175" stroke-miterlimit="10"/>
<path d="M142.805 127.511V83.3424" stroke="#F5EFD9" stroke-width="0.427175" stroke-miterlimit="10"/>
<path d="M149.975 109.045V83.3424" stroke="#F5EFD9" stroke-width="0.427175" stroke-miterlimit="10"/>
<path d="M153.613 114.698V83.3424" stroke="#F5EFD9" stroke-width="0.427175" stroke-miterlimit="10"/>
<path d="M157.252 121.858V85.6034" stroke="#F5EFD9" stroke-width="0.427175" stroke-miterlimit="10"/>
<path d="M160.891 128.642V94.4594" stroke="#F5EFD9" stroke-width="0.427175" stroke-miterlimit="10"/>
<path d="M164.529 136.367V103.882" stroke="#F5EFD9" stroke-width="0.427175" stroke-miterlimit="10"/>
<path d="M168.167 141.644V113.302" stroke="#F5EFD9" stroke-width="0.427175" stroke-miterlimit="10"/>
<path d="M131.941 142.774V120.463" stroke="#F5EFD9" stroke-width="0.427175" stroke-miterlimit="10"/>
<path d="M135.58 136.367V112.925" stroke="#F5EFD9" stroke-width="0.427175" stroke-miterlimit="10"/>
<path d="M128.231 142.586V129.131" stroke="#F5EFD9" stroke-width="0.427175" stroke-miterlimit="10"/>
<path d="M139.217 132.599V85.6034" stroke="#F5EFD9" stroke-width="0.427175" stroke-miterlimit="10"/>
<path d="M167.179 110.959H135.971" stroke="#F5EFD9" stroke-width="0.427175" stroke-miterlimit="10"/>
<path d="M165.86 107.321H136.536" stroke="#F5EFD9" stroke-width="0.427175" stroke-miterlimit="10"/>
<path d="M164.541 103.683H136.536" stroke="#F5EFD9" stroke-width="0.427175" stroke-miterlimit="10"/>
<path d="M162.657 100.044H137.29" stroke="#F5EFD9" stroke-width="0.427175" stroke-miterlimit="10"/>
<path d="M160.961 96.4065H137.666" stroke="#F5EFD9" stroke-width="0.427175" stroke-miterlimit="10"/>
<path d="M159.643 92.7683H138.043" stroke="#F5EFD9" stroke-width="0.427175" stroke-miterlimit="10"/>
<path d="M158.134 89.1301H138.798" stroke="#F5EFD9" stroke-width="0.427175" stroke-miterlimit="10"/>
<path d="M156.627 85.4908H139.568" stroke="#F5EFD9" stroke-width="0.427175" stroke-miterlimit="10"/>
<path d="M179.051 140.088H122.593" stroke="#F5EFD9" stroke-width="0.427175" stroke-miterlimit="10"/>
<path d="M180.935 143.763H122.593" stroke="#F5EFD9" stroke-width="0.427175" stroke-miterlimit="10"/>
<path d="M178.109 136.449H124.288" stroke="#F5EFD9" stroke-width="0.427175" stroke-miterlimit="10"/>
<path d="M176.79 132.811H125.607" stroke="#F5EFD9" stroke-width="0.427175" stroke-miterlimit="10"/>
<path d="M175.282 129.173H127.491" stroke="#F5EFD9" stroke-width="0.427175" stroke-miterlimit="10"/>
<path d="M173.209 125.535H129.376" stroke="#F5EFD9" stroke-width="0.427175" stroke-miterlimit="10"/>
<path d="M171.514 121.896H131.26" stroke="#F5EFD9" stroke-width="0.427175" stroke-miterlimit="10"/>
<path d="M170.195 118.257H133.145" stroke="#F5EFD9" stroke-width="0.427175" stroke-miterlimit="10"/>
<path d="M168.31 114.619H134.857" stroke="#F5EFD9" stroke-width="0.427175" stroke-miterlimit="10"/>
<path d="M171.969 146.543V121.971" stroke="#F5EFD9" stroke-width="0.427175" stroke-miterlimit="10"/>
<path d="M175.739 143.528V132.9" stroke="#F5EFD9" stroke-width="0.427175" stroke-miterlimit="10"/>
</g>
<path d="M149.784 109.181L141.8 94.6637C140.913 93.0545 140.449 91.2473 140.449 89.4104" stroke="#56303C" stroke-width="0.711082" stroke-miterlimit="10" stroke-linecap="round"/>
<path d="M171.6 147.253L179.429 140.746" stroke="#56303C" stroke-width="0.711082" stroke-miterlimit="10" stroke-linecap="round"/>
<path d="M123.146 139.157L130.718 144.082" stroke="#56303C" stroke-width="0.711082" stroke-miterlimit="10" stroke-linecap="round"/>
<path d="M155.415 84.1481L151.192 90.501" stroke="#56303C" stroke-width="0.711082" stroke-miterlimit="10" stroke-linecap="round"/>
<path d="M155.257 42.3294L150.907 40.9131C150.907 40.9131 149.698 37.6531 150.36 36.5956C151.022 35.5381 158.25 34.4916 158.25 34.4916C160.328 34.0862 162.134 34.51 162.375 35.5C162.633 36.5551 161.024 37.8546 158.773 38.4024L155.257 42.3294Z" fill="#56303C"/>
<path d="M161.786 42.112H161.172C161.135 42.1112 161.098 42.1187 161.065 42.1341C161.031 42.1495 161.002 42.172 160.978 42.2005C160.954 42.229 160.937 42.2626 160.928 42.2985C160.92 42.3341 160.919 42.3717 160.926 42.408L161.365 44.5967C161.394 44.7445 161.39 44.8975 161.354 45.0438C161.317 45.19 161.249 45.3264 161.153 45.4434C161.057 45.56 160.937 45.6537 160.8 45.7185C160.664 45.7829 160.515 45.8165 160.364 45.8165H159.564C159.264 45.8165 158.977 45.9363 158.764 46.1486C158.552 46.3608 158.433 46.6486 158.433 46.949V50.0516H146.809C147.409 50.0523 148 49.8927 148.518 49.5887C149.036 49.2847 149.464 48.8479 149.757 48.3234L151.649 44.0884C151.249 43.9899 150.893 43.7607 150.638 43.4365C150.384 43.112 150.246 42.712 150.245 42.2997V42.2886C150.245 42.0455 150.293 41.8044 150.386 41.5795C150.479 41.3546 150.616 41.1502 150.787 40.9783C150.959 40.8059 151.164 40.6696 151.388 40.5763C151.613 40.4834 151.854 40.4352 152.097 40.4352H152.311C152.683 40.4356 153.046 40.5419 153.359 40.7423L154.115 41.2336C156.145 40.3506 155.362 37.8166 155.362 37.8166C159.332 38.2575 160.603 36.0061 160.603 36.0061L162.066 41.7629C162.076 41.8052 162.077 41.8487 162.067 41.891C162.058 41.9333 162.039 41.9724 162.012 42.0064C161.985 42.04 161.951 42.0669 161.911 42.0855C161.872 42.1037 161.829 42.1127 161.786 42.112Z" fill="#B4702F"/>
<path d="M159.563 45.8161C159.266 45.8165 158.98 45.9347 158.769 46.145C158.559 46.3548 158.44 46.6398 158.439 46.9375L158.432 48.7799L155.361 45.1283C155.562 45.3449 155.805 45.5176 156.076 45.6358C156.346 45.754 156.638 45.8149 156.933 45.8149L159.563 45.8161Z" fill="#56303C"/>
<path d="M158.462 38.9612L159.944 38.5999L160.008 38.8636C160.049 39.0285 160.021 39.2026 159.933 39.3476C159.845 39.4926 159.703 39.5968 159.538 39.6367L158.069 39.9948L158.002 39.7193C157.963 39.5577 157.989 39.3873 158.075 39.2451C158.161 39.103 158.3 39.0009 158.462 38.9612Z" fill="#56303C"/>
<path d="M159.645 40.5792C159.639 40.6369 159.616 40.691 159.579 40.7357C159.543 40.7808 159.494 40.814 159.439 40.8314C159.384 40.8491 159.325 40.8503 159.269 40.8353C159.213 40.8203 159.163 40.7891 159.124 40.746C159.086 40.7029 159.06 40.6499 159.052 40.5926C159.043 40.5357 159.05 40.4768 159.074 40.4242C159.097 40.3712 159.136 40.3266 159.184 40.295C159.233 40.2633 159.289 40.2463 159.347 40.2463C159.431 40.2511 159.509 40.2886 159.565 40.3511C159.621 40.4135 159.65 40.4954 159.645 40.5792Z" fill="#56303C"/>
<path d="M151.833 41.5918C151.976 41.5918 152.118 41.6203 152.25 41.6752C152.382 41.7301 152.503 41.8104 152.604 41.912C152.705 42.0132 152.786 42.1337 152.841 42.2661C152.895 42.3986 152.923 42.5405 152.923 42.684" stroke="#56303C" stroke-width="0.569128" stroke-miterlimit="10" stroke-linecap="round"/>
<path d="M152.62 41.9249L151.959 42.5416" stroke="#56303C" stroke-width="0.569128" stroke-miterlimit="10" stroke-linecap="round"/>
<path d="M161.062 43.0836C160.636 43.1698 159.944 42.7828 159.944 42.4694" stroke="#56303C" stroke-width="0.569128" stroke-miterlimit="10"/>
<path d="M160.413 34.2584L150.294 39.0486L150.216 38.674C149.942 37.379 150.139 36.0291 150.769 34.8651C151.398 33.7012 152.421 32.7987 153.655 32.3189L156.8 31.098C157.197 30.9436 157.635 30.9352 158.037 31.0742C158.439 31.2132 158.779 31.4907 158.995 31.8571L160.413 34.2584Z" fill="#A0D6FF"/>
<path d="M150.294 39.0543L162.966 33.2052" stroke="#D9AF00" stroke-width="0.711082" stroke-miterlimit="10" stroke-linecap="round"/>
<path d="M159.096 32.0293L157.173 32.8387L157.702 34.1456L159.79 33.2047L159.096 32.0293Z" fill="#D9AF00"/>
<path d="M141.624 83.4878H154.937C155.303 83.4878 155.657 83.3629 155.943 83.1341C156.228 82.9052 156.427 82.5858 156.506 82.2289L160.136 65.8927C160.814 62.8435 160.781 59.6797 160.041 56.6451L158.435 50.0503H145.944C144.158 50.0503 142.404 50.5151 140.853 51.3994C139.302 52.284 138.009 53.5572 137.1 55.0937L120.806 82.8111C120.595 83.1688 120.462 83.5665 120.413 83.9788C120.365 84.3907 120.403 84.8085 120.525 85.2053C120.647 85.6018 120.85 85.969 121.122 86.2829C121.394 86.5963 121.728 86.8501 122.103 87.028L124.838 88.3225C125.475 88.6237 126.198 88.6905 126.879 88.5107C127.56 88.3308 128.156 87.9162 128.561 87.3398L140.353 70.6045L139.391 81.03C139.362 81.3411 139.398 81.6549 139.497 81.9514C139.596 82.2474 139.755 82.5202 139.966 82.7514C140.175 82.9827 140.432 83.1673 140.717 83.2942C141.003 83.421 141.311 83.487 141.624 83.4878Z" fill="#A0D6FF"/>
<path d="M156.53 52.1608H157.581" stroke="#56303C" stroke-width="0.711082" stroke-miterlimit="10" stroke-linecap="round"/>
<path d="M157.58 52.6928C157.874 52.6928 158.113 52.4545 158.113 52.1608C158.113 51.8671 157.874 51.6292 157.58 51.6292C157.287 51.6292 157.049 51.8671 157.049 52.1608C157.049 52.4545 157.287 52.6928 157.58 52.6928Z" fill="#D9AF00"/>
<path d="M156.719 54.6115H157.769" stroke="#56303C" stroke-width="0.711082" stroke-miterlimit="10" stroke-linecap="round"/>
<path d="M157.769 55.1393C158.063 55.1393 158.301 54.9013 158.301 54.6076C158.301 54.3139 158.063 54.0756 157.769 54.0756C157.476 54.0756 157.238 54.3139 157.238 54.6076C157.238 54.9013 157.476 55.1393 157.769 55.1393Z" fill="#D9AF00"/>
<path d="M144.955 61.8719L144.578 64.6259" stroke="white" stroke-width="0.640105" stroke-miterlimit="10" stroke-linecap="round"/>
<path d="M140.347 70.6073L146.521 62.1384" stroke="#56303C" stroke-width="0.711082" stroke-miterlimit="10" stroke-linecap="round"/>
<path d="M160.734 64.9644H157.262C156.844 64.9644 156.505 65.3031 156.505 65.7209V67.6886C156.505 68.1064 156.844 68.4452 157.262 68.4452H160.734C161.152 68.4452 161.491 68.1064 161.491 67.6886V65.7209C161.491 65.3031 161.152 64.9644 160.734 64.9644Z" fill="#F5EFD9"/>
<path d="M146.133 50.0503L152.54 53.2121C154.282 54.0703 155.782 55.3506 156.903 56.9365C158.024 58.5219 158.731 60.3628 158.96 62.2913L159.296 65.1326L159.38 52.4062" stroke="white" stroke-width="0.356198" stroke-miterlimit="10" stroke-linecap="round"/>
<path d="M159.245 64.1624V65.1328" stroke="#56303C" stroke-width="0.711082" stroke-miterlimit="10" stroke-linecap="round"/>
<path d="M157.238 68.4456H159.569L159.42 69.1152L157.238 68.4456Z" fill="#56303C"/>
<path d="M160.474 66.3584H157.808V66.9679H160.474V66.3584Z" fill="#D9AF00"/>
<path d="M157.617 49.9143L158.433 49.1851V48.0206L159.556 49.6171C159.683 49.7989 159.761 50.0104 159.782 50.2314C159.804 50.4519 159.768 50.6745 159.678 50.8772L159.002 52.4054L158.435 50.0507H156.065L154.952 51.9781L145.944 50.0507L148.626 46.6952C148.808 46.4683 149.059 46.3078 149.342 46.239C149.624 46.1706 149.921 46.1975 150.186 46.3157L157.617 49.9143Z" fill="#D9AF00"/>
<path d="M154.952 51.7901L156.318 49.6382" stroke="white" stroke-width="0.640105" stroke-miterlimit="10" stroke-linecap="round"/>
<path d="M120.951 91.8284L123.083 91.7782C125.033 91.6197 126.864 89.8536 125.908 87.8661C125.503 87.0246 124.131 86.4585 122.928 85.9403C121.685 85.4047 120.565 85.2893 119.526 86.1549L117.279 87.6977C116.904 87.9543 116.629 88.3341 116.504 88.7713L115.227 92.9376C115.179 93.0937 115.168 93.2581 115.194 93.419C115.221 93.5799 115.284 93.7325 115.379 93.8649C115.474 93.9973 115.599 94.1056 115.743 94.1819C115.887 94.2582 116.046 94.3005 116.21 94.3048L120.026 94.3918C120.264 94.3973 120.5 94.3353 120.705 94.2127C120.91 94.0906 121.076 93.9131 121.185 93.7004L121.292 93.4917C121.322 93.4332 121.337 93.368 121.335 93.3024C121.332 93.2368 121.314 93.1727 121.28 93.1162C121.247 93.0601 121.199 93.0131 121.142 92.9802C121.085 92.947 121.021 92.9293 120.955 92.9277C120.867 92.9261 120.781 92.9028 120.703 92.8605C120.626 92.8178 120.56 92.7573 120.511 92.6842C120.462 92.6107 120.431 92.5265 120.421 92.4387C120.412 92.351 120.424 92.262 120.456 92.1798C120.494 92.079 120.562 91.992 120.65 91.9296C120.738 91.8671 120.843 91.832 120.951 91.8284Z" fill="#B4702F"/>
<path d="M117.459 91.2979L116.873 93.2632C116.845 93.3565 116.839 93.4545 116.856 93.5506C116.873 93.6462 116.912 93.7367 116.97 93.8146C117.027 93.8929 117.103 93.9561 117.19 94C117.277 94.0435 117.373 94.0664 117.47 94.0664H117.931L119.037 94.1083H118.901C118.803 94.1083 118.708 94.0854 118.621 94.0415C118.534 93.998 118.459 93.9344 118.401 93.8565C118.343 93.7782 118.304 93.6877 118.287 93.5921C118.27 93.4964 118.276 93.398 118.304 93.3051L118.89 91.4022" stroke="#56303C" stroke-width="0.569128" stroke-linecap="round" stroke-linejoin="round"/>
<path d="M123.348 89.8226L121.463 90.6235C121.242 90.7179 121.053 90.8749 120.92 91.0757C120.787 91.2765 120.716 91.5117 120.716 91.7524" stroke="#56303C" stroke-width="0.569128" stroke-miterlimit="10" stroke-linecap="round"/>
</g>
<defs>
<clipPath id="clip0_3_1842">
<rect width="268" height="162.065" fill="white"/>
</clipPath>
</defs>
</svg>
