<svg width="226" height="164" viewBox="0 0 226 164" fill="none" xmlns="http://www.w3.org/2000/svg">
<g clip-path="url(#clip0_3_1643)">
<path d="M150.509 163.204H6.89825C5.99221 163.204 5.09508 163.026 4.25804 162.678C3.42103 162.331 2.66053 161.823 2.01997 161.182C1.3794 160.541 0.871327 159.78 0.52474 158.943C0.178153 158.105 -0.000153872 157.208 9.96335e-08 156.302V32.0643C-9.72607e-07 30.6331 0.444783 29.2374 1.27277 28.0702C2.10077 26.903 3.27101 26.0222 4.62151 25.5497L76.4271 0.442137C77.9012 -0.0738927 79.5069 -0.0738927 80.9806 0.442137L152.787 25.5555C154.137 26.028 155.307 26.9089 156.135 28.076C156.963 29.2432 157.408 30.639 157.408 32.0702V156.302C157.408 157.208 157.23 158.106 156.883 158.943C156.537 159.78 156.028 160.542 155.387 161.182C154.747 161.824 153.986 162.332 153.149 162.679C152.312 163.026 151.415 163.204 150.509 163.204Z" fill="#F5EFD9"/>
<path d="M222.404 27.3474H163.467C161.615 27.3474 160.115 28.8486 160.115 30.7003V159.13C160.115 160.982 161.615 162.483 163.467 162.483H222.404C224.256 162.483 225.756 160.982 225.756 159.13V30.7003C225.756 28.8486 224.256 27.3474 222.404 27.3474Z" fill="#A0D6FF"/>
<path d="M157.247 24.8225L146.377 20.9793C145.995 20.844 145.585 20.8025 145.183 20.8583C144.781 20.9141 144.399 21.0656 144.067 21.3C143.736 21.5343 143.466 21.8448 143.279 22.2054C143.093 22.5658 142.996 22.9658 142.996 23.3717V160.127" stroke="#D9AF00" stroke-width="1.43981" stroke-miterlimit="10" stroke-linecap="round"/>
<path d="M148.162 87.193H145.662" stroke="#D9AF00" stroke-width="1.43981" stroke-miterlimit="10" stroke-linecap="round"/>
<path d="M150.281 89.1575C151.61 89.1575 152.688 87.4836 152.688 85.4187C152.688 83.3537 151.61 81.6798 150.281 81.6798C148.952 81.6798 147.875 83.3537 147.875 85.4187C147.875 87.4836 148.952 89.1575 150.281 89.1575Z" stroke="#D9AF00" stroke-width="1.43981" stroke-miterlimit="10" stroke-linecap="round"/>
<path d="M215.058 52.4137L214.141 62.6811H204.839L202.907 79.2885C202.907 79.2885 191.923 82.0529 185.562 79.2885L182.68 62.6811L174.122 58.329L177.873 50.6323C178.574 49.3545 179.605 48.2886 180.858 47.5459C182.111 46.8031 183.541 46.4109 184.998 46.4102H188.972C189.227 46.4106 189.479 46.3605 189.715 46.2632C189.95 46.1655 190.164 46.0226 190.344 45.8428C190.524 45.6625 190.667 45.4484 190.765 45.2132C190.862 44.9776 190.913 44.7254 190.913 44.4704V43.7446C190.913 43.6088 190.967 43.479 191.063 43.3831C191.159 43.2872 191.289 43.2332 191.425 43.2332H200.964C201.085 43.2336 201.203 43.2625 201.31 43.3179C201.416 43.3736 201.508 43.454 201.578 43.5524L202.673 45.1215C202.95 45.5197 203.32 45.8452 203.751 46.0699C204.181 46.2942 204.659 46.4116 205.145 46.4116H209.568C210.333 46.4113 211.09 46.5707 211.79 46.879C212.49 47.1876 213.118 47.6383 213.635 48.2029C214.151 48.7676 214.544 49.4335 214.789 50.1586C215.034 50.8834 215.126 51.6515 215.058 52.4137Z" fill="white"/>
<path d="M182.68 62.6812L185.198 57.1331" stroke="#A0D6FF" stroke-width="1.43981" stroke-miterlimit="10"/>
<path d="M205.061 62.6811V57.6782" stroke="#A0D6FF" stroke-width="1.43981" stroke-miterlimit="10"/>
<path d="M167.949 157.853L168.441 161.701C168.469 161.915 168.443 162.134 168.368 162.337C168.292 162.54 168.168 162.721 168.006 162.865C167.844 163.009 167.65 163.112 167.44 163.164C167.23 163.216 167.01 163.216 166.8 163.164L150.043 159.03L150.077 158.877C150.139 158.593 150.299 158.34 150.529 158.162C150.758 157.984 151.043 157.892 151.333 157.902C153.855 157.99 160.262 158.019 162.041 156.115L167.949 157.853Z" fill="#56303C"/>
<path d="M150.041 159.252L167.645 163.685" stroke="#D9AF00" stroke-width="1.43981" stroke-miterlimit="10" stroke-linecap="round"/>
<path d="M160.923 158.265L159.688 157.018" stroke="#D9AF00" stroke-width="1.43981" stroke-miterlimit="10" stroke-linecap="round"/>
<path d="M159.148 158.709L157.913 157.462" stroke="#D9AF00" stroke-width="1.43981" stroke-miterlimit="10" stroke-linecap="round"/>
<path d="M185.562 79.2896L160.121 155.549L170.716 158.667L193.976 105.99L200.24 124.027C200.425 124.561 200.724 125.049 201.115 125.458C201.506 125.866 201.981 126.185 202.507 126.394L225.758 135.599V125.631L210.2 116.933C209.816 116.718 209.495 116.404 209.273 116.024C209.049 115.645 208.932 115.212 208.932 114.771V90.0028C208.932 87.693 208.115 85.4581 206.626 83.6932L202.908 79.2896H185.562Z" fill="#D9AF00"/>
<path d="M193.975 106.878L190.807 94.069" stroke="white" stroke-width="1.55286" stroke-miterlimit="10" stroke-linecap="round"/>
<path d="M202.907 79.2886L205.582 81.5885C207.831 83.5247 209.067 86.1621 208.935 89.1282V89.3508L191.115 86.3603L202.907 79.2886Z" fill="#56303C"/>
<path d="M209.543 116.158L207.82 115.383" stroke="white" stroke-width="1.55286" stroke-miterlimit="10" stroke-linecap="round"/>
<path d="M225.756 125.627V135.601L223.646 134.766L225.179 125.304L225.756 125.627Z" fill="#56303C"/>
<path d="M144.827 82.291C144.677 81.8752 144.615 81.4325 144.645 80.9913C144.676 80.5505 144.799 80.1205 145.006 79.7298C145.512 78.7556 146.346 77.9924 147.361 77.5755L168.165 69.0553L174.125 58.3293L182.683 62.6815L174.106 75.1244C173.229 76.3958 171.891 77.2747 170.376 77.5741L149.371 81.6787L147.612 85.1573H147.008C146.669 85.1573 146.338 85.0522 146.061 84.8561C145.783 84.6603 145.574 84.3831 145.46 84.0629L144.827 82.291Z" fill="#B4702F"/>
<path d="M149.367 80.1014L148.429 81.0022C148.179 81.2427 148.002 81.5496 147.919 81.8867C147.836 82.2236 147.851 82.5773 147.96 82.9067L147.976 82.9561" stroke="#56303C" stroke-width="1.43981" stroke-miterlimit="10" stroke-linecap="round"/>
<path d="M195.826 62.6705C195.826 58.676 197.154 55.4369 198.792 55.4369C200.43 55.4369 201.758 58.676 201.758 62.6705H195.826Z" fill="#D9AF00"/>
<path d="M198.759 60.765C199.589 60.1355 200.092 59.3998 199.881 59.1215C199.67 58.8432 198.826 59.1278 197.996 59.7574C197.165 60.3869 196.663 61.1226 196.874 61.4009C197.085 61.6792 197.929 61.3946 198.759 60.765Z" fill="white"/>
<path d="M186.198 62.6705L190.072 59.1909L194.257 62.6811L186.198 62.6705Z" fill="#A0D6FF"/>
<path d="M202.088 86.3603H186.673L182.68 62.6812H204.839L202.088 86.3603Z" fill="#FFAFB1"/>
<path d="M186.895 86.3603V62.6812" stroke="white" stroke-width="0.901127" stroke-miterlimit="10"/>
<path d="M184.455 86.3603V62.6812" stroke="white" stroke-width="0.901127" stroke-miterlimit="10"/>
<path d="M189.408 86.3603V62.6812" stroke="white" stroke-width="0.901127" stroke-miterlimit="10"/>
<path d="M191.923 86.3603V62.6812" stroke="white" stroke-width="0.901127" stroke-miterlimit="10"/>
<path d="M194.437 86.3603V62.6812" stroke="white" stroke-width="0.901127" stroke-miterlimit="10"/>
<path d="M196.951 86.3603V62.6812" stroke="white" stroke-width="0.901127" stroke-miterlimit="10"/>
<path d="M199.464 86.3603V62.6812" stroke="white" stroke-width="0.901127" stroke-miterlimit="10"/>
<path d="M201.979 86.3603V62.6812" stroke="white" stroke-width="0.901127" stroke-miterlimit="10"/>
<path d="M202.274 84.5059H186.458" stroke="white" stroke-width="0.901127" stroke-miterlimit="10"/>
<path d="M202.273 81.9919H185.919" stroke="white" stroke-width="0.901127" stroke-miterlimit="10"/>
<path d="M202.094 79.4762H185.38" stroke="white" stroke-width="0.901127" stroke-miterlimit="10"/>
<path d="M201.914 76.9615H185.02" stroke="white" stroke-width="0.901127" stroke-miterlimit="10"/>
<path d="M202.094 74.4458H184.66" stroke="white" stroke-width="0.901127" stroke-miterlimit="10"/>
<path d="M201.914 71.9318H184.121" stroke="white" stroke-width="0.901127" stroke-miterlimit="10"/>
<path d="M201.913 69.4175H183.76" stroke="white" stroke-width="0.901127" stroke-miterlimit="10"/>
<path d="M202.092 66.9017H183.401" stroke="white" stroke-width="0.901127" stroke-miterlimit="10"/>
<path d="M201.914 64.3871H182.861" stroke="white" stroke-width="0.901127" stroke-miterlimit="10"/>
<path d="M201.867 86.3603L201.758 62.6812H208.459L203.673 86.3603H201.867Z" fill="#56303C"/>
<path d="M204.031 86.3603L205.041 81.192" stroke="white" stroke-width="1.26025" stroke-miterlimit="10" stroke-linecap="round"/>
<path d="M180.403 78.8371C181.193 77.3875 182.486 76.2765 184.038 75.714L204.164 68.443L204.833 62.6836H214.141L212.589 72.0538C212.423 73.06 211.957 73.9922 211.251 74.7286C210.546 75.465 209.635 75.9711 208.637 76.181L184.937 81.1616L184.116 83.6245C183.936 84.1634 183.592 84.6321 183.131 84.964C182.67 85.2958 182.116 85.4743 181.548 85.474L180.403 78.8371Z" fill="#B4702F"/>
<path d="M203.82 68.3362L205.227 67.8463" stroke="#56303C" stroke-width="1.43981" stroke-miterlimit="10" stroke-linecap="round"/>
<path d="M185.36 80.0803L185.079 81.3726" stroke="#56303C" stroke-width="1.43981" stroke-miterlimit="10" stroke-linecap="round"/>
<path d="M205.429 31.1682C205.74 31.8554 205.772 32.5942 205.454 33.2311C205.103 33.9347 204.386 34.3745 203.539 34.4941C203.645 35.0621 203.604 35.6476 203.421 36.1957C203.238 36.7437 202.918 37.2357 202.492 37.6258C202.066 38.0159 201.548 38.291 200.986 38.4253C200.424 38.5594 199.837 38.5481 199.281 38.3922L197.733 34.1493H196.942C195.662 33.9969 194.678 33.0939 194.678 32.0067C194.678 31.9129 194.686 31.8191 194.7 31.7264C194.451 31.796 194.193 31.8311 193.934 31.8308C193.431 31.8393 192.936 31.7052 192.506 31.4441C192.077 31.183 191.73 30.8056 191.506 30.3555C191.365 30.4092 191.219 30.4485 191.069 30.4728C190.764 31.5282 189.723 32.3069 188.49 32.3069C187.013 32.3069 185.816 31.1963 185.816 29.8266C185.816 28.7898 186.501 27.9032 187.473 27.5315C187.322 27.4008 187.208 27.2323 187.143 27.0432C187.079 26.8541 187.066 26.6513 187.105 26.4555C187.145 26.2597 187.236 26.0779 187.369 25.9288C187.502 25.7797 187.672 25.6687 187.862 25.607C187.766 25.3439 187.717 25.066 187.716 24.786C187.716 23.4151 188.863 22.3057 190.277 22.3057C190.768 22.3042 191.25 22.4416 191.666 22.702C191.936 22.345 192.285 22.0554 192.686 21.8557C193.086 21.6561 193.528 21.5519 193.975 21.5513C194.422 21.5508 194.864 21.6538 195.265 21.8524C195.666 22.0511 196.016 22.3398 196.286 22.6962C196.541 22.3427 196.893 22.07 197.298 21.9105C197.703 21.7511 198.146 21.7116 198.573 21.7969C199.001 21.8822 199.394 22.0887 199.707 22.3916C200.021 22.6945 200.24 23.0812 200.34 23.5054C200.651 23.392 200.979 23.3345 201.31 23.3353C202.772 23.3353 203.959 24.4377 203.959 25.7981C203.958 26.2253 203.84 26.644 203.618 27.0084C205.032 27.0577 206.164 28.1413 206.164 29.4712C206.162 29.7889 206.095 30.103 205.969 30.3945C205.843 30.6861 205.659 30.9492 205.429 31.1682Z" fill="#56303C"/>
<path d="M191.162 29.8276C191.162 31.1974 189.965 32.308 188.488 32.308C187.011 32.308 185.814 31.1974 185.814 29.8276C185.814 28.4578 187.011 27.3472 188.488 27.3472" stroke="white" stroke-width="1.11061" stroke-miterlimit="10" stroke-linecap="round"/>
<path d="M196.992 31.3509C196.579 31.3506 196.184 31.1864 195.892 30.8944C195.6 30.6023 195.436 30.2064 195.436 29.7935" stroke="white" stroke-width="1.11061" stroke-miterlimit="10" stroke-linecap="round"/>
<path d="M194.881 31.4624C194.748 31.5034 194.379 31.6547 194.113 31.6547C192.524 31.6547 191.398 30.6414 191.464 29.1919" stroke="white" stroke-width="1.11061" stroke-miterlimit="10" stroke-linecap="round"/>
<path d="M200.882 43.2382H191.574V40.9771H190.828C190.513 40.9771 190.202 40.9133 189.913 40.7895C189.624 40.6657 189.363 40.4844 189.146 40.2569C188.929 40.0294 188.761 39.76 188.651 39.4651C188.541 39.1706 188.492 38.8567 188.507 38.5425L188.789 32.5614C188.825 31.802 189.081 31.0696 189.527 30.4542C189.974 29.8389 190.59 29.3676 191.3 29.0982C191.289 29.1876 191.284 29.2778 191.284 29.3679C191.284 30.7295 192.471 31.8307 193.934 31.8307C194.193 31.831 194.451 31.796 194.7 31.7263C194.686 31.8191 194.678 31.9128 194.678 32.0066C194.678 33.0961 195.662 34.0003 196.942 34.1493H197.733C197.892 33.9627 198.09 33.8128 198.313 33.7102C198.536 33.6075 198.778 33.5545 199.023 33.5547H199.167C199.617 33.5547 200.048 33.7333 200.366 34.0514C200.684 34.3694 200.862 34.8007 200.862 35.2505C200.862 35.7002 200.684 36.1315 200.366 36.4496C200.048 36.7678 199.617 36.9462 199.167 36.9462H198.753L200.882 43.2382Z" fill="#B4702F"/>
<path d="M191.575 40.9771C191.575 40.9771 194.416 40.9771 195.844 39.6273L192.21 43.2381H191.576L191.575 40.9771Z" fill="#56303C"/>
<path d="M190.562 32.8826L189.639 35.7417C189.628 35.7851 189.626 35.8299 189.634 35.874C189.641 35.9177 189.657 35.9597 189.681 35.9971C189.705 36.0345 189.737 36.0669 189.773 36.092C189.81 36.117 189.852 36.1343 189.895 36.1427L190.706 36.299" stroke="#56303C" stroke-width="1.43981" stroke-miterlimit="10" stroke-linecap="round"/>
<path d="M192.67 34.0999C192.67 34.4306 192.496 34.6979 192.278 34.6979C192.062 34.6979 191.888 34.4306 191.888 34.0999C191.888 33.7691 192.063 33.5029 192.278 33.5029C192.494 33.5029 192.67 33.7727 192.67 34.0999Z" fill="#56303C"/>
<path d="M189.257 34.0998C189.257 34.4036 189.14 34.6487 188.984 34.6487C188.828 34.6487 188.71 34.4036 188.71 34.0998C188.71 33.7961 188.833 33.5522 188.984 33.5522C189.136 33.5522 189.257 33.7996 189.257 34.0998Z" fill="#56303C"/>
<path d="M190.646 37.7098C190.646 37.7098 191.575 37.8692 192.279 36.9346" stroke="#56303C" stroke-width="1.43981" stroke-miterlimit="10" stroke-linecap="round"/>
<path d="M199.603 34.5937C199.603 34.5937 198.43 34.3591 198.43 35.601" stroke="#56303C" stroke-width="1.43981" stroke-miterlimit="10" stroke-linecap="round"/>
<path d="M199.255 35.5626L198.703 34.9785" stroke="#56303C" stroke-width="1.43981" stroke-miterlimit="10" stroke-linecap="round"/>
<path d="M219.033 158.831V162.482H217.423L216.711 159.359C216.711 159.359 211.593 159.797 210.85 156.253C209.459 157.852 208.166 159.975 207.954 162.482H206.754V159.659C206.754 159.659 204.99 156.908 205.395 154.335L200.504 155.222L202.3 162.4C202.307 162.428 202.315 162.455 202.323 162.482H200.413L195.833 155.465H194.591C194.219 155.465 193.857 155.59 193.564 155.819C193.271 156.049 193.063 156.37 192.973 156.732L191.677 162.478H190.085L189.146 151.936C188.549 150.998 188.083 149.825 187.857 148.33L187.886 148.273C187.801 148.273 187.715 148.273 187.628 148.273H185.552C184.145 148.273 183.578 146.818 184.166 145.545L187.285 138.79C187.216 138.939 187.108 139.066 186.972 139.159C186.836 139.251 186.678 139.305 186.513 139.314C186.35 139.323 186.186 139.288 186.041 139.211C185.895 139.135 185.773 139.021 185.688 138.88L184.296 136.583C184.237 136.484 184.204 136.371 184.202 136.255C184.2 136.139 184.228 136.025 184.285 135.924C184.342 135.823 184.424 135.739 184.524 135.681C184.624 135.622 184.738 135.592 184.854 135.592H186.326C186.576 135.592 186.821 135.655 187.04 135.776C187.258 135.896 187.443 136.07 187.577 136.281L188.077 137.073C188.726 137.468 189.775 137.726 190.96 137.726C192.059 137.726 193.042 137.504 193.695 137.156C194.97 143.206 199.102 145.096 205.896 145.096C209.741 145.096 213.173 144.077 215.429 142.48C215.498 142.432 215.58 142.407 215.664 142.409C215.748 142.411 215.829 142.439 215.896 142.491C215.963 142.542 216.011 142.614 216.034 142.694C216.057 142.775 216.054 142.861 216.025 142.94L214.618 146.66V149.455C214.618 149.455 214.599 149.659 214.597 150.009C214.583 151.552 214.872 155.918 218.413 157.781C218.602 157.883 218.761 158.034 218.87 158.219C218.979 158.404 219.036 158.616 219.033 158.831Z" fill="white"/>
<path d="M214.436 149.644C214.436 150.655 214.225 151.653 213.816 152.577C213.408 153.502 212.812 154.33 212.066 155.011C211.783 155.269 211.491 155.551 211.197 155.859" stroke="#56303C" stroke-width="1.43981" stroke-miterlimit="10" stroke-linecap="round"/>
<path d="M205.167 154.334C205.167 154.334 205.57 153.143 205.974 152.495" stroke="#56303C" stroke-width="1.43981" stroke-miterlimit="10" stroke-linecap="round"/>
<path d="M200.72 155.222L200.107 153.413" stroke="#56303C" stroke-width="1.43981" stroke-miterlimit="10" stroke-linecap="round"/>
<path d="M190.236 153.415C190.236 153.415 192.145 155.553 195.829 155.465" stroke="#56303C" stroke-width="1.43981" stroke-miterlimit="10" stroke-linecap="round"/>
<path d="M187.768 137.252L187.014 138.884" stroke="#56303C" stroke-width="1.43981" stroke-miterlimit="10" stroke-linecap="round"/>
<path d="M193.692 137.207L193.191 136.416C193.058 136.205 192.873 136.031 192.654 135.911C192.436 135.79 192.19 135.727 191.94 135.727H190.468C190.352 135.727 190.239 135.758 190.139 135.817C190.04 135.875 189.957 135.959 189.901 136.06C189.844 136.161 189.815 136.274 189.817 136.39C189.818 136.505 189.851 136.618 189.911 136.717L191.253 138.934C191.343 139.082 191.472 139.203 191.625 139.284C191.779 139.365 191.952 139.402 192.125 139.392C192.298 139.383 192.465 139.326 192.609 139.229C192.752 139.131 192.866 138.996 192.939 138.839L193.692 137.207Z" fill="#56303C"/>
<path d="M187.059 145.967C187.059 146.233 186.746 146.455 186.326 146.513V147.09C186.328 147.121 186.324 147.152 186.314 147.18C186.304 147.209 186.288 147.236 186.267 147.258C186.246 147.281 186.221 147.298 186.193 147.311C186.164 147.323 186.134 147.329 186.104 147.329C186.073 147.329 186.043 147.323 186.015 147.311C185.987 147.298 185.961 147.281 185.941 147.258C185.92 147.236 185.904 147.209 185.894 147.18C185.883 147.152 185.879 147.121 185.881 147.09V146.513C185.462 146.455 185.149 146.233 185.149 145.967C185.149 145.657 185.577 145.406 186.104 145.406C186.632 145.406 187.059 145.657 187.059 145.967Z" fill="#56303C"/>
<path d="M190.236 143.166C190.503 143.166 190.72 142.949 190.72 142.682C190.72 142.414 190.503 142.198 190.236 142.198C189.969 142.198 189.752 142.414 189.752 142.682C189.752 142.949 189.969 143.166 190.236 143.166Z" fill="#56303C"/>
<path d="M187.059 142.423C186.616 143.461 185.702 144.105 184.852 144.058L186.817 139.802C187.355 140.405 187.478 141.444 187.059 142.423Z" fill="#56303C"/>
<path d="M174.665 88.2239L177.874 80.4249C178.327 79.3238 179.222 78.6036 180.413 78.6036" stroke="#56303C" stroke-width="1.43981" stroke-miterlimit="10" stroke-linecap="round"/>
<path d="M185.117 81.1616L200.524 141.876C201.762 145.412 196.858 147.55 194.608 145.348" stroke="#56303C" stroke-width="1.43981" stroke-miterlimit="10" stroke-linecap="round"/>
<path d="M194.7 140.127C194.817 145.217 191.204 148.336 187.854 148.336L188.103 149.544C191.19 149.544 195.303 147.051 195.691 141.657" fill="#FFAFB1"/>
<path d="M189.878 151.56C190.042 150.868 189.613 150.174 188.921 150.011C188.229 149.847 187.536 150.276 187.373 150.968C187.209 151.661 187.638 152.354 188.33 152.517C189.022 152.681 189.715 152.252 189.878 151.56Z" fill="#FFAFB1"/>
<path d="M188.75 149.345V150.271" stroke="#56303C" stroke-width="1.43981" stroke-miterlimit="10" stroke-linecap="round"/>
<path d="M54.9318 156.791H67.3977L74.1975 144.916C76.247 141.337 77.4838 137.352 77.8202 133.241L78.9022 120.022L87.0093 118.583V156.791H97.9208L101.907 143.844C102.97 140.39 103.512 136.797 103.512 133.183V100.999H59.5674V137.25C59.5671 138.971 59.3365 140.685 58.8827 142.345L54.9318 156.791Z" fill="#56303C"/>
<path d="M78.905 120.022L90.1504 117.837" stroke="#D9AF00" stroke-width="1.43981" stroke-miterlimit="10" stroke-linecap="round"/>
<path d="M73.2131 161.827H54.4713V163.187H73.2131V161.827Z" fill="#56303C"/>
<path d="M73.2131 161.827H57.9406C57.3955 161.827 56.8582 161.695 56.3748 161.443C55.8915 161.192 55.4758 160.827 55.1634 160.38C54.8507 159.933 54.6508 159.417 54.5799 158.877C54.509 158.336 54.5697 157.786 54.7565 157.274L54.9335 156.791H67.3981L67.3713 156.864C72.3549 157.485 73.2131 161.827 73.2131 161.827Z" fill="#FFAFB1"/>
<path d="M73.2127 161.827C73.2127 161.827 72.2174 156.791 66.1446 156.791C60.8687 156.791 58.8534 161.827 58.8534 161.827H73.2127Z" fill="#D9AF00"/>
<path d="M67.7178 158.222C68.7526 158.222 69.5914 157.383 69.5914 156.348C69.5914 155.313 68.7526 154.474 67.7178 154.474C66.6834 154.474 65.8446 155.313 65.8446 156.348C65.8446 157.383 66.6834 158.222 67.7178 158.222Z" fill="white"/>
<path d="M105.753 161.826H87.0117V163.186H105.753V161.826Z" fill="#56303C"/>
<path d="M105.753 161.827H91.3928C90.2307 161.826 89.1162 161.364 88.2947 160.543C87.4732 159.72 87.0117 158.606 87.0117 157.443V156.791H98.0025C104.076 156.791 105.753 161.827 105.753 161.827Z" fill="#FFAFB1"/>
<path d="M105.753 161.827C105.753 161.827 104.076 156.791 98.0026 156.791C92.727 156.791 91.3939 161.827 91.3939 161.827H105.753Z" fill="#D9AF00"/>
<path d="M99.0412 157.706C100.076 157.706 100.915 156.866 100.915 155.831C100.915 154.797 100.076 153.958 99.0412 153.958C98.0067 153.958 97.168 154.797 97.168 155.831C97.168 156.866 98.0067 157.706 99.0412 157.706Z" fill="white"/>
<path d="M95.1255 51.8462L96.9039 52.4151C100.527 53.5719 103.743 55.7395 106.176 58.6636C108.609 61.5874 110.155 65.1454 110.635 68.9191L111.826 78.3013L122.929 85.8912L118.136 92.3662H103.516V61.1427L95.1255 51.8462Z" fill="white"/>
<path d="M112.053 78.2975L109.485 76.4222" stroke="#D9AF00" stroke-width="1.43981" stroke-miterlimit="10" stroke-linecap="round"/>
<path d="M119.743 83.7074C119.743 83.7074 115.236 85.1689 114.331 92.3638" stroke="#D9AF00" stroke-width="1.43981" stroke-miterlimit="10" stroke-linecap="round"/>
<path d="M122.93 85.8912L125.805 88.0127C126.525 88.5431 127.115 89.2298 127.53 90.0216L128.116 91.1343C128.184 91.2623 128.217 91.4059 128.213 91.5505C128.209 91.6951 128.167 91.8361 128.092 91.9603C128.017 92.0841 127.912 92.1867 127.786 92.2576C127.66 92.3289 127.518 92.3659 127.373 92.3659H118.137C118.137 92.3659 118.751 87.9421 122.93 85.8912Z" fill="#FFAFB1"/>
<path d="M121.831 92.1807L121.488 91.408C121.429 91.2761 121.404 91.1315 121.416 90.9876C121.427 90.8437 121.474 90.7051 121.553 90.5838C121.631 90.4628 121.739 90.3633 121.866 90.2946C121.993 90.2254 122.135 90.1895 122.279 90.1895H126.126" stroke="#56303C" stroke-width="1.43981" stroke-miterlimit="10" stroke-linecap="round"/>
<path d="M123.769 92.1807L122.933 90.1895" stroke="#56303C" stroke-width="1.43981" stroke-miterlimit="10" stroke-linecap="round"/>
<path d="M125.747 92.1807L124.912 90.1895" stroke="#56303C" stroke-width="1.43981" stroke-miterlimit="10" stroke-linecap="round"/>
<path d="M59.5674 82.2839V100.999H103.516V61.1427C103.516 59.7486 103.203 58.3724 102.599 57.1161C101.995 55.8598 101.116 54.7552 100.028 53.8848C98.9397 53.014 97.6694 52.3996 96.3112 52.0868C94.9531 51.7739 93.5421 51.7708 92.183 52.0772L81.8508 54.4074C75.5249 55.8344 69.8728 59.3715 65.8231 64.4375C61.7734 69.5039 59.5674 75.7973 59.5674 82.2839Z" fill="#A0D6FF"/>
<path d="M61.3246 100.999L82.6736 108.032L86.8157 103.157L89.6938 107.472L103.516 102.118V100.999H61.3246Z" fill="white"/>
<path d="M92.6823 58.1414C92.7926 58.4087 98.8255 73.4671 98.8255 73.4671" stroke="white" stroke-width="1.43981" stroke-miterlimit="10" stroke-linecap="round"/>
<path d="M82.6737 107.804L88.2786 101.367" stroke="#D9AF00" stroke-width="1.43981" stroke-miterlimit="10" stroke-linecap="round"/>
<path d="M92.0846 163.006L97.0414 97.4855C97.1818 95.6716 98.0015 93.978 99.337 92.7429C100.672 91.5081 102.425 90.8232 104.243 90.8253C106.062 90.8229 107.815 91.5078 109.15 92.7425C110.486 93.9777 111.306 95.6716 111.446 97.4855L115.64 153.457" stroke="#D9AF00" stroke-width="1.43981" stroke-miterlimit="10" stroke-linecap="round"/>
<path d="M126.951 90.4592C128.091 91.0062 129.066 91.8435 129.78 92.8871C130.494 93.9311 130.92 95.1443 131.016 96.4052L135.213 153.488" stroke="#D9AF00" stroke-width="1.43981" stroke-miterlimit="10" stroke-linecap="round"/>
<path d="M114.055 132.678H94.3788" stroke="#D9AF00" stroke-width="1.43981" stroke-miterlimit="10" stroke-linecap="round"/>
<path d="M111.714 101.023H131.283" stroke="#D9AF00" stroke-width="1.43981" stroke-miterlimit="10" stroke-linecap="round"/>
<path d="M115.699 163.099C117.822 163.099 119.544 161.377 119.544 159.252C119.544 157.128 117.822 155.406 115.699 155.406C113.575 155.406 111.853 157.128 111.853 159.252C111.853 161.377 113.575 163.099 115.699 163.099Z" stroke="#56303C" stroke-width="1.43981" stroke-miterlimit="10" stroke-linecap="round"/>
<path d="M112.526 154.913C114.278 153.411 117.118 153.411 118.871 154.913" stroke="#D9AF00" stroke-width="1.43981" stroke-miterlimit="10" stroke-linecap="round"/>
<path d="M132.13 154.913C133.888 153.411 136.723 153.411 138.475 154.913" stroke="#D9AF00" stroke-width="1.43981" stroke-miterlimit="10" stroke-linecap="round"/>
<path d="M135.302 163.099C137.426 163.099 139.147 161.377 139.147 159.252C139.147 157.128 137.426 155.406 135.302 155.406C133.178 155.406 131.456 157.128 131.456 159.252C131.456 161.377 133.178 163.099 135.302 163.099Z" stroke="#56303C" stroke-width="1.43981" stroke-miterlimit="10" stroke-linecap="round"/>
<path d="M116.207 157.718L115.922 158.443" stroke="#D9AF00" stroke-width="1.43981" stroke-miterlimit="10" stroke-linecap="round"/>
<path d="M115.283 160.061L114.997 160.785" stroke="#D9AF00" stroke-width="1.43981" stroke-miterlimit="10" stroke-linecap="round"/>
<path d="M114.07 158.647L114.794 158.932" stroke="#D9AF00" stroke-width="1.43981" stroke-miterlimit="10" stroke-linecap="round"/>
<path d="M116.412 159.571L117.136 159.857" stroke="#D9AF00" stroke-width="1.43981" stroke-miterlimit="10" stroke-linecap="round"/>
<path d="M136.053 157.784L135.698 158.477" stroke="#D9AF00" stroke-width="1.43981" stroke-miterlimit="10" stroke-linecap="round"/>
<path d="M134.905 160.027L134.552 160.719" stroke="#D9AF00" stroke-width="1.43981" stroke-miterlimit="10" stroke-linecap="round"/>
<path d="M133.835 158.502L134.528 158.856" stroke="#D9AF00" stroke-width="1.43981" stroke-miterlimit="10" stroke-linecap="round"/>
<path d="M136.077 159.648L136.77 160.003" stroke="#D9AF00" stroke-width="1.43981" stroke-miterlimit="10" stroke-linecap="round"/>
<path d="M97.5488 84.6917L92.3307 92.3662H82.6701C80.0135 92.3662 77.4055 91.6524 75.1187 90.2994C72.8319 88.9465 70.9506 87.0043 69.6711 84.6751L68.3567 82.2839H59.5638C59.5645 76.8049 61.1395 71.4416 64.1011 66.8323C67.0627 62.2233 71.2866 58.5631 76.2692 56.2876C78.269 56.288 80.1866 57.0826 81.6004 58.4972C83.0143 59.9118 83.8086 61.8304 83.8086 63.8305V77.5519L97.5488 84.6917Z" fill="white"/>
<path d="M68.3568 82.7392L65.0542 76.8729" stroke="#D9AF00" stroke-width="1.43981" stroke-miterlimit="10" stroke-linecap="round"/>
<path d="M84.2599 77.552L82.0923 76.2421" stroke="#D9AF00" stroke-width="1.43981" stroke-miterlimit="10" stroke-linecap="round"/>
<path d="M93.2217 82.5619C93.2217 82.5619 88.1207 84.4795 87.1088 92.3663" stroke="#D9AF00" stroke-width="1.43981" stroke-miterlimit="10" stroke-linecap="round"/>
<path d="M69.8855 84.7736C70.7373 84.4057 71.678 84.2957 72.5915 84.4572C73.505 84.6187 74.3512 85.0451 75.025 85.6828C75.6991 86.3208 76.1708 87.1422 76.3827 88.0458C76.5946 88.9494 76.5365 89.8953 76.2163 90.7661" stroke="#D9AF00" stroke-width="1.43981" stroke-miterlimit="10" stroke-linecap="round"/>
<path d="M99.305 94.6809L92.3293 92.3659C92.3293 92.3659 92.8617 86.4506 97.5488 84.6914L100.889 86.5783C101.423 86.8777 101.877 87.3009 102.214 87.8123L103.503 91.6824C103.599 91.9702 103.583 92.2834 103.458 92.5595C103.334 92.836 103.109 93.0554 102.83 93.1739L99.305 94.6809Z" fill="#FFAFB1"/>
<path d="M101.341 90.4194L102.635 92.9327" stroke="#56303C" stroke-width="1.43981" stroke-miterlimit="10" stroke-linecap="round"/>
<path d="M100.05 90.9248L101.341 93.4381" stroke="#56303C" stroke-width="1.43981" stroke-miterlimit="10" stroke-linecap="round"/>
<path d="M98.7563 91.5582L100.05 94.0715" stroke="#56303C" stroke-width="1.43981" stroke-miterlimit="10" stroke-linecap="round"/>
<path d="M97.5971 69.3639L92.9075 57.9597H92.5923C91.9566 57.9594 91.3473 57.7065 90.8985 57.2565C90.4493 56.8068 90.1969 56.1974 90.1969 55.5615C90.1969 54.9256 90.4497 54.3154 90.8992 53.8657C91.3488 53.4161 91.9587 53.1632 92.5944 53.1632H94.1877V46.8762H109.636V55.2366C109.636 57.4706 109.042 59.6643 107.914 61.5921C106.786 63.5199 105.165 65.1126 103.219 66.2066L97.5971 69.3639Z" fill="#FFAFB1"/>
<path d="M92.4478 54.4427C92.4478 54.4427 93.8277 54.2445 94.089 56.1127" stroke="#56303C" stroke-width="1.43981" stroke-miterlimit="10" stroke-linecap="round"/>
<path d="M92.4149 55.8807L93.4772 54.927" stroke="#56303C" stroke-width="1.43981" stroke-miterlimit="10" stroke-linecap="round"/>
<path d="M109.636 46.6345V53.1646L107.706 47.2761C107.706 47.2761 103.404 49.6613 98.4446 47.5036V48.6939C98.4446 49.4948 98.2299 50.281 97.8223 50.9705C97.4148 51.66 96.8299 52.2275 96.1279 52.6133L95.659 52.9568C95.4633 53.1014 95.3039 53.2905 95.1943 53.5077C95.0843 53.7253 95.0271 53.9655 95.0271 54.2092V54.5975C95.0275 54.606 95.0257 54.6145 95.0226 54.6222C95.0194 54.63 95.0145 54.637 95.0085 54.643C95.0025 54.649 94.9954 54.6536 94.9873 54.6568C94.9795 54.6596 94.9711 54.661 94.9626 54.661C94.9478 54.6614 94.933 54.6561 94.9214 54.6462C94.9101 54.6367 94.9027 54.6229 94.9006 54.6081C94.8332 54.2046 94.6252 53.8378 94.3128 53.5733C94.0008 53.3092 93.6049 53.1642 93.1959 53.1646H93.0083V49.346C93.0072 48.4858 93.1945 47.6362 93.5569 46.8564C93.919 46.0766 94.4479 45.3857 95.1058 44.8319H93.9042C93.8432 44.8277 93.7861 44.8006 93.7441 44.7558C93.7025 44.711 93.6792 44.6521 93.6792 44.5911C93.6792 44.5297 93.7025 44.4708 93.7441 44.4264C93.7861 44.3816 93.8432 44.3544 93.9042 44.3498H95.183V43.2417C95.1809 43.2085 95.1854 43.1754 95.1964 43.1443C95.2073 43.1129 95.2249 43.0844 95.2475 43.06C95.2701 43.0361 95.2972 43.0167 95.3279 43.0033C95.3582 42.9902 95.391 42.9832 95.4241 42.9832C95.4573 42.9832 95.4901 42.9902 95.5204 43.0033C95.5507 43.0167 95.5779 43.0361 95.6008 43.06C95.6233 43.0844 95.6406 43.1129 95.6516 43.1443C95.6628 43.1754 95.6674 43.2085 95.665 43.2417V44.4144C96.6275 43.7788 97.7557 43.4406 98.909 43.4424H106.434C106.854 43.4413 107.27 43.5231 107.658 43.6832C108.047 43.843 108.399 44.0779 108.697 44.3745C108.994 44.6711 109.23 45.0231 109.391 45.4111C109.552 45.7987 109.636 46.2145 109.636 46.6345Z" fill="white"/>
<path d="M95.4094 44.5953L98.2233 47.2831C98.2959 47.353 98.3841 47.4052 98.4807 47.4344C98.5773 47.4641 98.6796 47.4704 98.779 47.4531C99.9513 47.2489 104.003 46.3566 106.446 43.4388" stroke="#F5EFD9" stroke-width="1.26025" stroke-miterlimit="10" stroke-linecap="round"/>
<path d="M107.706 47.5036C108.89 46.8903 109.478 45.6375 109.478 45.6375" stroke="#F5EFD9" stroke-width="1.26025" stroke-miterlimit="10" stroke-linecap="round"/>
<path d="M101.327 43.4388C99.977 45.367 97.3556 46.4575 97.3556 46.4575" stroke="#F5EFD9" stroke-width="1.26025" stroke-miterlimit="10" stroke-linecap="round"/>
<path d="M105.318 53.8389C105.318 53.8389 106.16 55.3223 106.022 57.9082H104.523" stroke="#56303C" stroke-width="1.43981" stroke-miterlimit="10" stroke-linecap="round"/>
<path d="M100.525 52.5414L103.681 52.0677L103.708 52.2466C103.734 52.4215 103.725 52.6 103.683 52.7717C103.64 52.9435 103.564 53.105 103.459 53.2471C103.354 53.3896 103.222 53.5099 103.07 53.6009C102.918 53.6922 102.75 53.7525 102.575 53.779L99.4149 54.253L99.3881 54.0745C99.3617 53.8993 99.3705 53.7201 99.4131 53.5483C99.4562 53.3762 99.5327 53.2143 99.6384 53.0719C99.7439 52.9294 99.8768 52.8091 100.029 52.7181C100.181 52.6271 100.35 52.5672 100.525 52.5414Z" fill="white"/>
<path d="M110.034 53.9722L107.909 53.7239C107.561 53.6833 107.243 53.5059 107.026 53.2312C106.809 52.9561 106.71 52.6062 106.75 52.2578L106.774 52.0529L108.899 52.3011C109.247 52.3417 109.565 52.5191 109.782 52.7939C110 53.069 110.099 53.4192 110.058 53.7673L110.034 53.9722Z" fill="white"/>
<path d="M101.506 55.8958C101.506 55.8958 102.499 55.2976 103.167 55.9462" stroke="#56303C" stroke-width="1.43981" stroke-miterlimit="10" stroke-linecap="round"/>
<path d="M107.196 55.6679C107.196 55.6679 107.912 55.1237 108.628 55.7183" stroke="#56303C" stroke-width="1.43981" stroke-miterlimit="10" stroke-linecap="round"/>
<path d="M105.091 63.1019V63.9935" stroke="#56303C" stroke-width="1.43981" stroke-miterlimit="10" stroke-linecap="round"/>
<path d="M107.912 60.3566H101.952L102.241 59.4432C102.358 59.0785 102.587 58.76 102.896 58.5343C103.205 58.3086 103.578 58.1869 103.961 58.1873H105.99C106.402 58.1876 106.801 58.3297 107.121 58.5893C107.442 58.8485 107.663 59.2101 107.749 59.6132L107.912 60.3566Z" fill="white"/>
<path d="M102.336 58.1297C103.542 58.1297 104.519 57.152 104.519 55.9462C104.519 54.74 103.542 53.7623 102.336 53.7623C101.13 53.7623 100.153 54.74 100.153 55.9462C100.153 57.152 101.13 58.1297 102.336 58.1297Z" stroke="#D9AF00" stroke-width="1.43981" stroke-miterlimit="10" stroke-linecap="round"/>
<path d="M110.71 56.3708C110.987 55.1971 110.26 54.0212 109.087 53.744C107.914 53.4671 106.738 54.194 106.461 55.3678C106.184 56.5415 106.911 57.7177 108.084 57.9946C109.258 58.2718 110.434 57.5446 110.71 56.3708Z" stroke="#D9AF00" stroke-width="1.43981" stroke-miterlimit="10" stroke-linecap="round"/>
<path d="M104.519 55.9459H106.41" stroke="#D9AF00" stroke-width="1.43981" stroke-miterlimit="10" stroke-linecap="round"/>
<path d="M39.911 104.592V163.204" stroke="#D9AF00" stroke-width="1.43981" stroke-miterlimit="10" stroke-linecap="round"/>
<path d="M41.89 104.592V163.204" stroke="#D9AF00" stroke-width="1.43981" stroke-miterlimit="10" stroke-linecap="round"/>
<path d="M16.9932 104.592V163.204" stroke="#D9AF00" stroke-width="1.43981" stroke-miterlimit="10" stroke-linecap="round"/>
<path d="M15.0154 104.592V163.204" stroke="#D9AF00" stroke-width="1.43981" stroke-miterlimit="10" stroke-linecap="round"/>
<path d="M16.9931 109.223V110.377L15.0154 110.367V109.467C15.6803 109.441 16.3418 109.36 16.9931 109.223Z" fill="#D9AF00"/>
<path d="M41.89 109.465V110.365H39.9121V109.209C40.5633 109.349 41.2247 109.435 41.89 109.465Z" fill="#D9AF00"/>
<path d="M16.9932 118.018H39.9107" stroke="#D9AF00" stroke-width="1.43981" stroke-miterlimit="10" stroke-linecap="round"/>
<path d="M16.9932 120.177H39.9107" stroke="#D9AF00" stroke-width="1.43981" stroke-miterlimit="10" stroke-linecap="round"/>
<path d="M29.5531 113.527C29.6537 112.907 29.2328 112.323 28.6128 112.222C27.9929 112.121 27.4087 112.542 27.3081 113.162C27.2074 113.783 27.6284 114.367 28.2484 114.468C28.8683 114.568 29.4525 114.147 29.5531 113.527Z" stroke="#D9AF00" stroke-width="1.43981" stroke-miterlimit="10" stroke-linecap="round"/>
<path d="M49.5983 104.466V105.554C49.5983 107.72 46.4223 109.475 42.5031 109.475C39.1244 109.475 36.2978 108.171 35.586 106.426C34.871 108.175 32.0443 109.475 28.6691 109.475C24.7498 109.475 21.5727 107.716 21.5727 105.554C21.5727 107.72 18.3955 109.475 14.4763 109.475C10.557 109.475 7.37988 107.716 7.37988 105.554V104.466C7.37988 103.185 8.50304 102.147 9.8888 102.147H47.0908C48.4754 102.15 49.5983 103.188 49.5983 104.466Z" fill="white"/>
<path d="M35.6425 105.632V106.927" stroke="#A0D6FF" stroke-width="1.43981" stroke-miterlimit="10" stroke-linecap="round"/>
<path d="M21.5643 105.221V106.515" stroke="#A0D6FF" stroke-width="1.43981" stroke-miterlimit="10" stroke-linecap="round"/>
<path d="M42.5067 54.9718H12.0754V71.1792H42.5067V54.9718Z" fill="#D9AF00"/>
<path d="M13.0124 73.6152C13.4229 73.6152 13.7557 73.2823 13.7557 72.8718C13.7557 72.4609 13.4229 72.1283 13.0124 72.1283C12.6019 72.1283 12.2692 72.4609 12.2692 72.8718C12.2692 73.2823 12.6019 73.6152 13.0124 73.6152Z" fill="#56303C"/>
<path d="M41.5703 73.6152C41.9806 73.6152 42.3135 73.2823 42.3135 72.8718C42.3135 72.4609 41.9806 72.1283 41.5703 72.1283C41.1595 72.1283 40.827 72.4609 40.827 72.8718C40.827 73.2823 41.1595 73.6152 41.5703 73.6152Z" fill="#56303C"/>
<path d="M35.8586 73.6152C36.269 73.6152 36.6018 73.2823 36.6018 72.8718C36.6018 72.4609 36.269 72.1283 35.8586 72.1283C35.4479 72.1283 35.1152 72.4609 35.1152 72.8718C35.1152 73.2823 35.4479 73.6152 35.8586 73.6152Z" fill="#56303C"/>
<path d="M30.1476 73.6152C30.5581 73.6152 30.8909 73.2823 30.8909 72.8718C30.8909 72.4609 30.5581 72.1283 30.1476 72.1283C29.7371 72.1283 29.4043 72.4609 29.4043 72.8718C29.4043 73.2823 29.7371 73.6152 30.1476 73.6152Z" fill="#56303C"/>
<path d="M24.4358 73.6152C24.8463 73.6152 25.1791 73.2823 25.1791 72.8718C25.1791 72.4609 24.8463 72.1283 24.4358 72.1283C24.0253 72.1283 23.6925 72.4609 23.6925 72.8718C23.6925 73.2823 24.0253 73.6152 24.4358 73.6152Z" fill="#56303C"/>
<path d="M18.7241 73.6152C19.1346 73.6152 19.4674 73.2823 19.4674 72.8718C19.4674 72.4609 19.1346 72.1283 18.7241 72.1283C18.3136 72.1283 17.9808 72.4609 17.9808 72.8718C17.9808 73.2823 18.3136 73.6152 18.7241 73.6152Z" fill="#56303C"/>
<path d="M30.2099 76.4914H24.3726C24.1799 76.491 23.9953 76.4145 23.859 76.2783C23.7228 76.1418 23.6461 75.957 23.6458 75.7645C23.6458 75.6689 23.6645 75.5744 23.7011 75.4862C23.7376 75.398 23.7912 75.3176 23.8586 75.2503C23.9262 75.1829 24.0063 75.1293 24.0945 75.0926C24.1827 75.0559 24.2772 75.0372 24.3726 75.0372H30.2099C30.4027 75.0372 30.5875 75.1138 30.7239 75.2503C30.8602 75.3867 30.9368 75.5716 30.9368 75.7645C30.9365 75.957 30.8598 76.1418 30.7235 76.2783C30.5873 76.4145 30.4026 76.491 30.2099 76.4914Z" fill="#A0D6FF"/>
<path d="M30.1041 101.219H24.4766C23.6006 101.219 22.7364 101.016 21.9519 100.626C21.1674 100.236 20.4838 99.6697 19.9547 98.9714C19.4256 98.2727 19.0654 97.4612 18.9023 96.6003C18.7392 95.739 18.7776 94.852 19.0146 94.0084L23.2773 78.8456C23.3835 78.4675 23.6103 78.1342 23.9234 77.8969C24.2364 77.6595 24.6185 77.5311 25.0113 77.5311H29.573C29.9658 77.5311 30.3478 77.6595 30.6609 77.8969C30.9739 78.1342 31.2008 78.4675 31.3069 78.8456L35.5673 94.0084C35.8042 94.852 35.8427 95.7394 35.6794 96.6003C35.5165 97.4615 35.1561 98.2731 34.6269 98.9718C34.0977 99.6704 33.4139 100.237 32.6293 100.627C31.8446 101.017 30.9803 101.219 30.1041 101.219Z" fill="#A0D6FF"/>
<path d="M15.975 54.9718V71.32" stroke="white" stroke-width="0.907778" stroke-miterlimit="10" stroke-linecap="round"/>
<path d="M21.5505 54.9718V71.32" stroke="white" stroke-width="0.907778" stroke-miterlimit="10" stroke-linecap="round"/>
<path d="M27.1265 54.9718V71.32" stroke="white" stroke-width="0.907778" stroke-miterlimit="10" stroke-linecap="round"/>
<path d="M32.7023 54.9718V71.32" stroke="white" stroke-width="0.907778" stroke-miterlimit="10" stroke-linecap="round"/>
<path d="M38.2772 54.9718V71.32" stroke="white" stroke-width="0.907778" stroke-miterlimit="10" stroke-linecap="round"/>
<path d="M30.6154 90.6017L31.8417 101.219L28.5474 101.217L30.6154 90.6017Z" fill="#56303C"/>
<path d="M47.0454 89.374H31.8407C31.1634 89.374 30.6144 89.9232 30.6144 90.6007V99.991C30.6144 100.669 31.1634 101.218 31.8407 101.218H47.0454C47.7227 101.218 48.2716 100.669 48.2716 99.991V90.6007C48.2716 89.9232 47.7227 89.374 47.0454 89.374Z" fill="white"/>
<path d="M40.7294 99.4221H34.4151C33.8137 99.4221 33.3917 98.6624 33.6109 97.9564C34.1138 96.3319 35.4306 95.1183 37.0309 94.8918C36.7844 94.7571 36.5803 94.5568 36.4407 94.3131C36.3011 94.0697 36.2312 93.7922 36.2394 93.5114C36.2394 92.6777 36.8363 92.0009 37.571 92.0009C38.3061 92.0009 38.9041 92.6777 38.9041 93.5114C38.9119 93.7922 38.8421 94.0697 38.7024 94.3134C38.5625 94.5568 38.358 94.7571 38.1115 94.8918C39.7119 95.1183 41.0284 96.3319 41.5326 97.9564C41.7529 98.6575 41.3323 99.4221 40.7294 99.4221Z" fill="#FFAFB1"/>
<path d="M42.7355 95.8268C43.436 95.8268 44.004 95.2156 44.004 94.4616C44.004 93.7079 43.436 93.0967 42.7355 93.0967C42.0349 93.0967 41.4669 93.7079 41.4669 94.4616C41.4669 95.2156 42.0349 95.8268 42.7355 95.8268Z" fill="#FFAFB1"/>
<path d="M39.244 99.2193L41.2748 97.1938C41.6623 96.8066 42.188 96.589 42.7359 96.589C43.2842 96.589 43.8095 96.8066 44.1973 97.1938L46.2267 99.225" stroke="#56303C" stroke-width="1.43981" stroke-miterlimit="10" stroke-linecap="round"/>
<path d="M11.6709 85.1759C11.5713 85.5279 10.4153 87.1697 10.4153 87.1697C10.4153 87.1697 10.2887 85.1654 10.3883 84.8113C10.4367 84.6413 10.5506 84.497 10.7051 84.411C10.8595 84.3249 11.0418 84.3037 11.2119 84.3521C11.382 84.4004 11.5259 84.5146 11.612 84.6691C11.6981 84.8236 11.7193 85.0059 11.6709 85.1759Z" fill="white"/>
<path d="M8.86892 90.2187C8.96859 89.8671 10.1245 88.225 10.1245 88.225C10.1245 88.225 10.2523 90.2293 10.1515 90.5834C10.1036 90.7538 9.99014 90.8976 9.836 90.9844C9.68189 91.0708 9.49975 91.0923 9.32966 91.0444C9.15958 90.9964 9.01549 90.8832 8.92911 90.7287C8.84269 90.5746 8.82104 90.3926 8.86892 90.2223V90.2187Z" fill="white"/>
<path d="M7.39765 87.4607C7.76109 87.4053 9.7342 87.7805 9.7342 87.7805C9.7342 87.7805 7.9604 88.7187 7.59696 88.7786C7.42219 88.8051 7.24411 88.761 7.10188 88.6563C6.95961 88.5512 6.86484 88.3942 6.83843 88.2193C6.81199 88.0444 6.85606 87.8662 6.96095 87.7241C7.06581 87.5816 7.22292 87.4868 7.39765 87.4607Z" fill="white"/>
<path d="M13.1469 87.9354C12.7823 87.9908 10.8092 87.6155 10.8092 87.6155C10.8092 87.6155 12.583 86.6774 12.9464 86.6174C13.1212 86.591 13.2993 86.6347 13.4417 86.7394C13.5841 86.8442 13.679 87.0015 13.7056 87.1761C13.7321 87.351 13.6882 87.5291 13.5834 87.6716C13.4787 87.8141 13.3216 87.9089 13.1469 87.9354Z" fill="white"/>
<path d="M7.77652 86.2517C8.04385 86.5049 9.87744 87.3235 9.87744 87.3235C9.87744 87.3235 8.95948 85.5361 8.69216 85.2828C8.62859 85.2225 8.55377 85.1756 8.47201 85.1446C8.39028 85.1132 8.30316 85.0984 8.21569 85.1009C8.12822 85.1033 8.04208 85.1231 7.96222 85.1587C7.88233 85.1943 7.81027 85.2454 7.75015 85.3093C7.69004 85.3728 7.64304 85.4475 7.61184 85.5294C7.5806 85.6112 7.56579 85.6983 7.56826 85.7858C7.57069 85.8732 7.59036 85.9596 7.62608 86.0394C7.66183 86.1194 7.71295 86.1914 7.77652 86.2517Z" fill="white"/>
<path d="M12.7683 89.1434C12.501 88.8901 10.6663 88.0715 10.6663 88.0715C10.6663 88.0715 11.5842 89.859 11.8515 90.1122C11.981 90.2275 12.1503 90.2878 12.3235 90.2804C12.4967 90.273 12.6602 90.1982 12.7793 90.0723C12.8985 89.9464 12.964 89.7793 12.9619 89.6057C12.9599 89.4322 12.8904 89.2664 12.7683 89.1434Z" fill="white"/>
<path d="M10.8622 88.542C11.3167 88.2112 11.4172 87.5746 11.0866 87.12C10.7561 86.6653 10.1196 86.5648 9.66508 86.8953C9.21058 87.2261 9.11013 87.8627 9.4407 88.3173C9.77128 88.772 10.4077 88.8725 10.8622 88.542Z" fill="#FFAFB1"/>
<path d="M13.7555 89.1832L17.4637 97.9648" stroke="#D9AF00" stroke-width="1.43981" stroke-miterlimit="10" stroke-linecap="round"/>
<path d="M14.7823 98.7153L16.3252 87.5259" stroke="#D9AF00" stroke-width="1.43981" stroke-miterlimit="10" stroke-linecap="round"/>
<path d="M19.3912 99.6852C21.436 97.6396 21.436 94.3237 19.3912 92.2781C17.3465 90.2328 14.0314 90.2328 11.9867 92.2781C9.94195 94.3237 9.94195 97.6396 11.9867 99.6852C14.0314 101.73 17.3465 101.73 19.3912 99.6852Z" stroke="#56303C" stroke-width="1.43981" stroke-miterlimit="10" stroke-linecap="round"/>
<path d="M17.2514 78.137C17.2514 78.4607 16.8821 79.6313 16.6101 80.4485C16.59 80.5081 16.5518 80.5596 16.5008 80.5963C16.4498 80.6329 16.3886 80.6527 16.3258 80.6527C16.2631 80.6527 16.2019 80.6329 16.1509 80.5963C16.0999 80.5596 16.0616 80.5081 16.0415 80.4485C15.7684 79.6278 15.399 78.4547 15.399 78.137C15.399 77.8915 15.4966 77.6555 15.6703 77.482C15.844 77.3081 16.0796 77.2104 16.3252 77.2104C16.5709 77.2104 16.8065 77.3081 16.9801 77.482C17.1538 77.6555 17.2514 77.8915 17.2514 78.137Z" fill="white"/>
<path d="M15.399 85.936C15.399 85.6123 15.7684 84.442 16.0415 83.6245C16.0616 83.5649 16.0999 83.5134 16.1509 83.4767C16.2019 83.4401 16.2631 83.4207 16.3258 83.4207C16.3886 83.4207 16.4498 83.4401 16.5008 83.4767C16.5518 83.5134 16.59 83.5649 16.6101 83.6245C16.8821 84.4456 17.2514 85.6123 17.2514 85.936C17.2514 86.1819 17.1538 86.4174 16.9801 86.591C16.8065 86.7648 16.5709 86.8625 16.3252 86.8625C16.0796 86.8625 15.844 86.7648 15.6703 86.591C15.4966 86.4174 15.399 86.1819 15.399 85.936Z" fill="white"/>
<path d="M12.4247 81.1123C12.7483 81.1123 13.9183 81.4816 14.7354 81.7535C14.7955 81.7732 14.8478 81.8113 14.8849 81.8625C14.922 81.9133 14.942 81.975 14.942 82.0381C14.942 82.1012 14.922 82.1626 14.8849 82.2138C14.8478 82.2649 14.7955 82.303 14.7354 82.3224C13.9148 82.5957 12.7483 82.965 12.4247 82.965C12.1791 82.965 11.9435 82.8676 11.7698 82.6938C11.5961 82.5199 11.4985 82.2843 11.4985 82.0388C11.4985 81.793 11.5961 81.5574 11.7698 81.3835C11.9435 81.2096 12.1791 81.1123 12.4247 81.1123Z" fill="white"/>
<path d="M20.2295 82.965C19.907 82.965 18.737 82.5957 17.9187 82.3224C17.8592 82.3023 17.8076 82.2642 17.771 82.213C17.7344 82.1619 17.7147 82.1009 17.7147 82.0381C17.7147 81.9753 17.7344 81.914 17.771 81.8632C17.8076 81.812 17.8592 81.7739 17.9187 81.7535C18.7393 81.4816 19.9117 81.1123 20.2295 81.1123C20.4751 81.1123 20.7106 81.2096 20.8844 81.3835C21.058 81.5574 21.1556 81.793 21.1556 82.0388C21.1556 82.2843 21.058 82.5199 20.8844 82.6938C20.7106 82.8676 20.4751 82.965 20.2295 82.965Z" fill="white"/>
<path d="M12.9126 84.143C13.1471 83.9084 14.2304 83.3477 15.0006 82.9618C15.0569 82.934 15.1205 82.9244 15.1824 82.9347C15.2444 82.9449 15.3016 82.9742 15.346 83.0186C15.3904 83.063 15.4197 83.1202 15.4299 83.1823C15.4401 83.2443 15.4306 83.3078 15.4027 83.3642C15.017 84.1349 14.4507 85.2243 14.2221 85.4529C14.1368 85.5417 14.0346 85.6126 13.9215 85.6616C13.8084 85.7107 13.6867 85.7364 13.5635 85.7375C13.4403 85.7389 13.3181 85.7156 13.204 85.6691C13.09 85.6221 12.9863 85.5534 12.8992 85.4663C12.8121 85.3791 12.7432 85.2755 12.6967 85.1615C12.6501 85.0473 12.6267 84.9249 12.628 84.8018C12.6292 84.6787 12.6551 84.5567 12.7039 84.4438C12.7528 84.3306 12.8237 84.2283 12.9126 84.143Z" fill="white"/>
<path d="M19.7381 79.935C19.5106 80.1636 18.4215 80.73 17.6501 81.1158C17.5938 81.1437 17.5302 81.1532 17.4683 81.143C17.4063 81.1327 17.3491 81.1035 17.3047 81.059C17.2603 81.0146 17.2309 80.9575 17.2208 80.8954C17.2106 80.8337 17.2201 80.7698 17.2479 80.7138C17.6337 79.9421 18.1999 78.8537 18.4285 78.6251C18.6034 78.4569 18.837 78.3645 19.0794 78.3666C19.3218 78.3691 19.5536 78.4668 19.7249 78.6382C19.8963 78.8096 19.9937 79.0413 19.9962 79.284C19.9986 79.5263 19.906 79.7601 19.7381 79.935Z" fill="white"/>
<path d="M12.9126 79.935C13.1471 80.1635 14.2304 80.7299 15.0006 81.1158C15.0569 81.1436 15.1205 81.1532 15.1824 81.1429C15.2444 81.1327 15.3016 81.1034 15.346 81.059C15.3904 81.0146 15.4197 80.9574 15.4299 80.8953C15.4401 80.8333 15.4306 80.7698 15.4027 80.7137C15.017 79.942 14.4507 78.8536 14.2221 78.6247C14.1368 78.5359 14.0346 78.465 13.9215 78.4159C13.8084 78.3673 13.6867 78.3415 13.5635 78.3401C13.4403 78.3391 13.3181 78.3623 13.204 78.4089C13.09 78.4554 12.9863 78.5242 12.8992 78.6113C12.8121 78.6985 12.7432 78.8021 12.6967 78.9164C12.6501 79.0303 12.6267 79.1527 12.628 79.2758C12.6292 79.3992 12.6551 79.5209 12.7039 79.6341C12.7528 79.7474 12.8237 79.8496 12.9126 79.935Z" fill="white"/>
<path d="M19.7381 84.143C19.5106 83.9084 18.4215 83.3477 17.6501 82.9618C17.5938 82.934 17.5302 82.9244 17.4683 82.9347C17.4063 82.9449 17.3491 82.9742 17.3047 83.0186C17.2603 83.063 17.2309 83.1202 17.2208 83.1823C17.2106 83.2443 17.2201 83.3078 17.2479 83.3642C17.6337 84.1349 18.1999 85.2243 18.4285 85.4529C18.6034 85.6207 18.837 85.7135 19.0794 85.711C19.3218 85.7086 19.5536 85.6112 19.7249 85.4398C19.8963 85.2684 19.9937 85.0363 19.9962 84.794C19.9986 84.5514 19.906 84.3179 19.7381 84.143Z" fill="white"/>
<path d="M16.3254 83.153C16.9405 83.153 17.4392 82.6543 17.4392 82.0388C17.4392 81.4234 16.9405 80.9247 16.3254 80.9247C15.7103 80.9247 15.2117 81.4234 15.2117 82.0388C15.2117 82.6543 15.7103 83.153 16.3254 83.153Z" fill="#FFAFB1"/>
<path d="M78.5585 0V11.3148" stroke="#D9AF00" stroke-width="1.43981" stroke-miterlimit="10"/>
<path d="M78.5585 29.6227C80.9235 29.6227 82.8412 27.7047 82.8412 25.3386C82.8412 22.9726 80.9235 21.0546 78.5585 21.0546C76.1931 21.0546 74.2758 22.9726 74.2758 25.3386C74.2758 27.7047 76.1931 29.6227 78.5585 29.6227Z" fill="white"/>
<path d="M91.1005 25.5531H65.9518L71.5595 12.9201C71.7714 12.4424 72.1176 12.0364 72.5558 11.7514C72.9941 11.4665 73.5057 11.3147 74.0282 11.3146H83.0287C83.5516 11.314 84.0632 11.4654 84.5018 11.7505C84.94 12.0355 85.2859 12.4419 85.4978 12.9201L91.1005 25.5531Z" stroke="#A0D6FF" stroke-width="1.26025" stroke-miterlimit="10"/>
<path d="M85.1646 25.5531H71.7023L76.224 11.3146H80.6439L85.1646 25.5531Z" stroke="#A0D6FF" stroke-width="1.26025" stroke-miterlimit="10"/>
<path d="M78.5585 11.3146V25.5531" stroke="#A0D6FF" stroke-width="1.26025" stroke-miterlimit="10"/>
</g>
<defs>
<clipPath id="clip0_3_1643">
<rect width="226" height="164" fill="white"/>
</clipPath>
</defs>
</svg>
